<svg width="218" height="218" viewBox="0 0 218 218" fill="none" xmlns="http://www.w3.org/2000/svg">
<g filter="url(#filter0_d_1_41792)">
<path d="M162.854 162.854C192.834 132.873 192.834 84.2651 162.854 54.2846C132.873 24.304 84.2651 24.304 54.2846 54.2846C24.304 84.2651 24.304 132.873 54.2846 162.854C84.2651 192.834 132.873 192.834 162.854 162.854Z" fill="white"/>
</g>
<g style="mix-blend-mode:multiply">
<path d="M162.854 162.854C192.834 132.873 192.834 84.2651 162.854 54.2846C132.873 24.304 84.2651 24.304 54.2846 54.2846C24.304 84.2651 24.304 132.873 54.2846 162.854C84.2651 192.834 132.873 192.834 162.854 162.854Z" fill="#001971"/>
</g>
<path d="M55.3822 81.1774C55.3822 81.637 55.4971 82.0584 55.7269 82.4415C55.9568 82.8054 56.0717 83.1023 56.0717 83.3321C56.0717 83.5428 56.0142 83.7343 55.8993 83.9067C55.8036 84.0791 55.6695 84.1653 55.4971 84.1653C55.1715 84.1653 54.9034 83.8876 54.6927 83.3321C54.482 82.7767 54.3766 82.1925 54.3766 81.5796C54.3766 80.6602 54.7118 79.8366 55.3822 79.1088C56.0717 78.381 56.9432 78.0171 57.9966 78.0171C58.7053 78.0171 59.232 78.3618 59.5768 79.0513C59.9407 79.7217 60.1226 80.4878 60.1226 81.3497C60.1226 82.2116 60.0939 83.0257 60.0364 83.7918C59.9981 84.5388 59.9598 85.123 59.9215 85.5443C59.8832 85.9465 59.8066 86.5978 59.6917 87.498C59.5768 88.379 59.5002 88.9919 59.4618 89.3367C60.9941 89.3367 62.603 88.561 64.2885 87.0096C64.5183 84.2515 64.8344 82.0967 65.2366 80.5453C65.6579 78.9747 66.0793 77.8734 66.5007 77.2414C66.9221 76.6093 67.3722 76.2933 67.851 76.2933C68.349 76.2933 68.7512 76.5135 69.0577 76.9541C69.3833 77.3946 69.5461 77.9213 69.5461 78.5342C69.5461 80.7943 68.5405 83.2363 66.5294 85.8604C66.4145 87.3735 66.357 88.7717 66.357 90.0549C66.357 91.3191 66.539 92.5544 66.9029 93.7611C67.286 94.9486 67.4775 95.6094 67.4775 95.7435C67.4775 95.8967 67.3722 96.0116 67.1615 96.0882C66.9508 96.184 66.721 96.2319 66.472 96.2319C65.8016 96.2319 65.2557 96.0595 64.8344 95.7147C64.6237 95.5424 64.4513 94.9582 64.3172 93.9622C64.1831 92.9662 64.1161 92.0373 64.1161 91.1754C64.1161 90.2944 64.1448 89.3463 64.2023 88.3311C62.4976 89.7868 60.8792 90.5433 59.3469 90.6008C59.3278 90.869 59.3086 91.3191 59.2895 91.9511C59.2703 92.564 59.2416 93.0237 59.2033 93.3302C59.165 93.6175 59.0884 93.9526 58.9734 94.3357C58.7819 95.0444 58.3222 95.3987 57.5944 95.3987C57.1539 95.3987 56.9336 95.0252 56.9336 94.2782C56.9336 93.5121 57.0485 92.1905 57.2784 90.3135C56.4165 89.9496 55.9855 89.308 55.9855 88.3886C55.9855 87.7182 56.1579 87.1532 56.5027 86.6935C56.8474 86.2147 57.2688 85.9753 57.7668 85.9753C57.9392 84.2132 58.0253 82.8533 58.0253 81.8956C58.0253 80.1718 57.7572 79.3099 57.2209 79.3099C55.9951 79.3099 55.3822 79.9324 55.3822 81.1774ZM68.6267 79.0226C68.6267 78.7353 68.5788 78.4767 68.4831 78.2469C68.4065 77.9979 68.3011 77.8734 68.167 77.8734C67.6307 77.8734 67.1423 79.9516 66.7018 84.1078C67.9851 82.1542 68.6267 80.4591 68.6267 79.0226ZM57.6806 86.8946C57.4124 87.0862 57.2784 87.3447 57.2784 87.6703C57.2784 87.996 57.355 88.2641 57.5082 88.4748L57.6806 86.8946ZM78.2457 89.0207C79.0118 88.7717 79.5385 88.561 79.8258 88.3886C80.1323 88.1971 80.3621 88.0534 80.5153 87.9576L80.8601 87.7565C80.9559 87.6991 81.0325 87.6703 81.0899 87.6703C81.2432 87.6703 81.3198 87.7565 81.3198 87.9289C81.3198 88.1013 81.0229 88.4077 80.4291 88.8483C79.8354 89.2696 79.098 89.6527 78.2169 89.9975C78.0829 91.6064 77.5753 92.9088 76.6942 93.9048C75.8132 94.9007 74.5586 95.3987 72.9306 95.3987C71.7431 95.3987 70.8333 94.9295 70.2013 93.9909C69.5692 93.0333 69.2532 91.9224 69.2532 90.6583C69.2532 89.375 69.6267 88.1683 70.3736 87.0383C71.1398 85.9082 72.1166 85.3432 73.3041 85.3432C73.8404 84.9601 74.4724 84.7686 75.2003 84.7686C75.9473 84.7686 76.6368 85.1613 77.2688 85.9465C77.9009 86.7318 78.2265 87.7565 78.2457 89.0207ZM76.3782 90.4859L75.3439 90.5433C74.4629 90.5433 73.7159 90.2848 73.103 89.7676C72.4901 89.2313 72.1836 88.6472 72.1836 88.0151C72.1836 87.383 72.289 86.8372 72.4997 86.3775C71.6761 87.0287 71.2643 88.312 71.2643 90.2273C71.2643 91.1467 71.4558 92.0277 71.8389 92.8705C72.2219 93.6941 72.8253 94.1059 73.6489 94.1059C74.4724 94.1059 75.1141 93.7611 75.5738 93.0716C76.0334 92.3629 76.3016 91.501 76.3782 90.4859ZM74.5969 85.7167C74.2905 85.7167 74.0511 85.8604 73.8787 86.1477C73.7063 86.4158 73.6201 86.7127 73.6201 87.0383C73.6201 87.747 73.8595 88.3216 74.3384 88.7621C74.8364 89.2026 75.411 89.4229 76.0622 89.4229H76.4069C76.3686 88.4844 76.2058 87.632 75.9185 86.8659C75.6504 86.0998 75.2099 85.7167 74.5969 85.7167ZM81.8156 95.3987C81.3942 95.3987 81.0016 95.3508 80.6377 95.2551C80.2929 95.1401 80.0822 95.0348 80.0056 94.939C79.8141 94.7092 79.7183 93.5217 79.7183 91.3765C79.7183 89.2122 79.9577 86.2817 80.4365 82.5851C80.8388 79.5398 81.7773 78.0171 83.2521 78.0171C83.5968 78.0171 83.8458 78.2086 83.9991 78.5917C84.1523 78.9556 84.2289 79.3099 84.2289 79.6547C84.2289 82.1446 83.4723 84.9314 81.9592 88.0151C81.9018 89.6048 81.873 90.9934 81.873 92.181C81.873 93.3493 81.9784 93.9335 82.1891 93.9335C82.5147 93.9143 82.9648 93.5121 83.5394 92.7268C84.114 91.9224 84.679 90.8977 85.2345 89.6527C85.8091 88.4077 86.1538 87.7853 86.2687 87.7853C86.4028 87.7853 86.4698 87.8619 86.4698 88.0151C86.4698 88.5514 86.1921 89.4037 85.6367 90.5721C84.1236 93.7898 82.8499 95.3987 81.8156 95.3987ZM83.5107 79.9132C83.5107 79.3003 83.434 78.9939 83.2808 78.9939C82.7062 78.9939 82.2848 81.3785 82.0167 86.1477C83.0127 83.5236 83.5107 81.4455 83.5107 79.9132ZM85.8034 81.2061C85.8034 80.8613 85.9854 80.5645 86.3493 80.3155C86.7132 80.0665 87.0388 79.942 87.3261 79.942C87.8433 79.942 88.1018 80.2389 88.1018 80.8326C88.1018 81.4264 87.9486 81.9435 87.6422 82.384C87.3357 82.8054 86.9048 83.0161 86.3493 83.0161C85.9854 83.0161 85.8034 82.4128 85.8034 81.2061ZM86.6366 95.3987C85.8896 95.3987 85.3246 95.2455 84.9415 94.939C84.8075 94.805 84.7404 94.3261 84.7404 93.5025C84.7404 92.6789 84.7979 91.3095 84.9128 89.3941C85.0469 87.4597 85.1618 86.4158 85.2576 86.2626C85.3533 86.1093 85.6502 85.822 86.1482 85.4007C86.6462 84.9793 87.0293 84.7686 87.2974 84.7686C87.5847 84.7686 87.7283 85.1325 87.7283 85.8604C87.7283 86.0519 87.6709 86.4254 87.556 86.9808C87.4602 87.5363 87.3453 87.9385 87.2112 88.1875C86.9622 88.8195 86.8377 90.4763 86.8377 93.1578C86.8377 93.6749 86.8952 93.9335 87.0101 93.9335C87.3357 93.9143 87.7858 93.5121 88.3604 92.7268C88.935 91.9224 89.5 90.8977 90.0555 89.6527C90.6301 88.4077 90.9748 87.7853 91.0898 87.7853C91.2238 87.7853 91.2909 87.8619 91.2909 88.0151C91.2909 88.5514 91.0131 89.4037 90.4577 90.5721C88.9446 93.7898 87.6709 95.3987 86.6366 95.3987ZM103.847 78.6204C103.961 78.6012 104.268 78.5917 104.766 78.5917C105.283 78.5917 105.896 78.6874 106.605 78.879C107.332 79.0513 108.032 79.3482 108.702 79.7696C109.391 80.1718 109.937 80.7751 110.34 81.5796C110.761 82.3649 110.972 83.3034 110.972 84.3951C110.972 86.1955 110.272 87.6512 108.874 88.7621C107.476 89.873 105.628 90.4284 103.329 90.4284C103.329 94.1633 102.669 96.0308 101.347 96.0308C100.466 96.0308 100.025 95.6573 100.025 94.9103C100.025 94.6805 100.14 94.3644 100.37 93.9622C100.6 93.56 100.763 93.1003 100.859 92.5832C100.954 92.066 101.031 91.2329 101.088 90.0837C100.303 89.8347 99.9105 89.4899 99.9105 89.0494C99.9105 88.6089 100.112 88.3886 100.514 88.3886C100.725 88.3886 100.935 88.4173 101.146 88.4748C101.395 83.3608 101.567 80.5357 101.663 79.9994C100.571 80.2676 99.6615 80.7081 98.9337 81.321C98.225 81.9339 97.8707 82.6617 97.8707 83.5045C97.8707 83.9833 97.7654 84.3568 97.5547 84.625C97.3631 84.8931 97.1142 85.0272 96.8077 85.0272C96.2331 85.0272 95.9458 84.7016 95.9458 84.0504C95.9458 82.7671 96.5108 81.6658 97.6409 80.7464C98.7901 79.8079 100.217 79.1758 101.922 78.8502C102.286 77.6244 102.793 77.0115 103.444 77.0115C103.712 77.0115 103.847 77.5478 103.847 78.6204ZM108.817 85.1996C108.817 83.4758 108.319 82.1638 107.323 81.2636C106.346 80.3442 105.159 79.8558 103.76 79.7983C103.473 83.1885 103.329 86.3775 103.329 89.3654C103.598 89.4037 103.808 89.4229 103.961 89.4229C105.57 89.4229 106.777 89.0111 107.581 88.1875C108.405 87.3639 108.817 86.3679 108.817 85.1996ZM119.439 95.3987C118.692 95.3987 118.127 95.2455 117.744 94.939C117.61 94.805 117.543 94.4698 117.543 93.9335C117.543 93.378 117.562 92.6406 117.601 91.7213C117.103 92.9662 116.605 93.8952 116.107 94.5081C115.628 95.1018 115.005 95.3987 114.239 95.3987C113.473 95.3987 112.803 95.0444 112.228 94.3357C111.653 93.6079 111.366 92.4778 111.366 90.9456C111.366 89.3941 111.797 88.0247 112.659 86.8372C113.54 85.6497 114.689 85.0559 116.107 85.0559C116.72 85.0559 117.409 85.4581 118.175 86.2626C118.328 86.0519 118.597 85.8029 118.98 85.5156C119.382 85.2091 119.717 85.0559 119.985 85.0559C120.272 85.0559 120.416 85.4198 120.416 86.1477C120.416 86.3392 120.359 86.7127 120.244 87.2681C120.148 87.8236 120.033 88.2258 119.899 88.4748C119.727 88.9153 119.64 90.4763 119.64 93.1578C119.64 93.6749 119.698 93.9335 119.813 93.9335C120.138 93.9143 120.589 93.5121 121.163 92.7268C121.738 91.9224 122.303 90.8977 122.858 89.6527C123.433 88.4077 123.778 87.7853 123.892 87.7853C124.027 87.7853 124.094 87.8619 124.094 88.0151C124.094 88.5514 123.816 89.4037 123.26 90.5721C121.747 93.7898 120.474 95.3987 119.439 95.3987ZM115.934 86.2051C115.398 86.2051 114.823 86.6073 114.21 87.4118C113.617 88.1971 113.32 89.126 113.32 90.1986C113.32 91.2712 113.473 92.1522 113.78 92.8417C114.105 93.5313 114.526 93.876 115.044 93.876C115.676 93.876 116.605 92.2959 117.83 89.1356C117.85 88.9823 117.869 88.7238 117.888 88.3599C117.926 87.9768 117.955 87.6895 117.974 87.498C117.802 87.1915 117.495 86.9042 117.055 86.6361C116.633 86.3488 116.26 86.2051 115.934 86.2051ZM124.864 87.7565L126.444 87.5842C126.597 87.5842 126.731 87.6703 126.846 87.8427C126.961 88.0151 127.019 88.1971 127.019 88.3886C127.019 88.5801 126.952 89.2313 126.818 90.3422C126.703 91.4531 126.645 92.3342 126.645 92.9854C126.645 93.6175 126.703 93.9335 126.818 93.9335C127.143 93.9143 127.593 93.5121 128.168 92.7268C128.742 91.9224 129.307 90.8977 129.863 89.6527C130.438 88.4077 130.782 87.7853 130.897 87.7853C131.031 87.7853 131.098 87.8619 131.098 88.0151C131.098 88.5514 130.821 89.4037 130.265 90.5721C128.752 93.7898 127.478 95.3987 126.444 95.3987C125.697 95.3987 125.132 95.2455 124.749 94.939C124.615 94.805 124.548 93.9718 124.548 92.4395C124.548 90.9073 124.711 89.5953 125.036 88.5035C123.925 88.5035 123.15 88.1492 122.709 87.4405C122.479 87.0766 122.364 86.6648 122.364 86.2051C122.364 85.7454 122.46 85.3432 122.652 84.9985C122.843 84.6537 123.111 84.4813 123.456 84.4813C123.82 84.4813 124.146 84.6728 124.433 85.0559C124.739 85.4198 124.893 85.8316 124.893 86.2913C124.893 86.751 124.759 87.2107 124.49 87.6703C124.567 87.7278 124.692 87.7565 124.864 87.7565ZM136.123 90.5721C134.61 93.7898 133.326 95.3987 132.273 95.3987C131.239 95.3987 130.626 95.2742 130.434 95.0252C130.262 94.7762 130.176 93.9526 130.176 92.5544C130.176 91.1563 130.31 89.1356 130.578 86.4924C129.62 86.3009 129.113 85.9082 129.055 85.3145C129.055 85.008 129.256 84.8548 129.658 84.8548C130.061 84.8548 130.415 84.9314 130.721 85.0846C130.894 83.7056 131.095 82.3074 131.325 80.8901C131.382 80.5262 131.564 80.1814 131.871 79.8558C132.177 79.5302 132.474 79.3674 132.761 79.3674C133.01 79.3674 133.135 79.76 133.135 80.5453C133.135 80.9092 133.001 82.5851 132.733 85.5731C133.25 85.4773 133.815 85.2858 134.428 84.9985C135.06 84.7112 135.433 84.5675 135.548 84.5675C135.893 84.5675 136.065 84.6728 136.065 84.8835C136.084 85.0751 135.73 85.3432 135.002 85.688C134.274 86.0136 133.489 86.2626 132.646 86.435C132.417 89.2313 132.302 91.3478 132.302 92.7843C132.302 93.5504 132.417 93.9335 132.646 93.9335C132.991 93.9143 133.451 93.5121 134.025 92.7268C134.6 91.9415 135.165 90.9264 135.72 89.6814C136.295 88.4173 136.64 87.7853 136.755 87.7853C136.889 87.7853 136.956 87.8619 136.956 88.0151C136.956 88.5514 136.678 89.4037 136.123 90.5721ZM135.467 92.7556L135.639 89.5378C135.639 87.4884 135.735 86.3679 135.927 86.1764C136.118 85.9849 136.453 85.7071 136.932 85.3432C137.43 84.9601 137.784 84.7686 137.995 84.7686C138.225 84.7686 138.369 84.8069 138.426 84.8835C138.483 84.9601 138.512 85.1134 138.512 85.3432C138.512 86.1668 138.33 87 137.966 87.8427C137.679 89.6048 137.535 91.0509 137.535 92.181C137.535 93.311 137.669 93.876 137.938 93.876C138.397 93.876 138.924 93.4738 139.518 92.6694C140.131 91.8458 140.753 90.6391 141.385 89.0494C141.404 88.628 141.424 88.1875 141.443 87.7278C141.462 87.249 141.481 86.9042 141.5 86.6935C141.519 86.4637 141.529 86.3009 141.529 86.2051C141.548 86.1093 141.816 85.8508 142.333 85.4294C142.85 84.9889 143.243 84.7686 143.511 84.7686C143.799 84.7686 143.942 85.1325 143.942 85.8604C143.942 86.0519 143.885 86.4254 143.77 86.9808C143.674 87.5363 143.559 87.9385 143.425 88.1875C143.272 89.5474 143.166 90.7349 143.109 91.75C144.986 89.375 145.982 88.1204 146.097 87.9864C146.231 87.8523 146.346 87.7853 146.442 87.7853C146.633 87.7853 146.729 87.881 146.729 88.0726C146.729 88.1875 146.691 88.312 146.614 88.4461C146.001 89.3463 144.795 90.9264 142.994 93.1865C142.879 95.4658 142.803 97.0172 142.764 97.8408C142.668 100.273 142.324 101.978 141.73 102.955C141.155 103.951 140.121 104.449 138.627 104.449C137.976 104.449 137.363 104.248 136.788 103.845C136.233 103.462 135.955 102.782 135.955 101.806C135.955 100.848 136.319 99.8614 137.047 98.8463C137.794 97.8312 139.144 96.2702 141.098 94.1633L141.27 91.0318C140.619 92.4683 139.977 93.56 139.345 94.307C138.713 95.0348 138.014 95.3987 137.248 95.3987C136.482 95.3987 135.994 95.2072 135.783 94.8241C135.572 94.441 135.467 93.7515 135.467 92.7556ZM141.012 95.5136C138.828 97.8695 137.737 99.7561 137.737 101.173C137.737 101.825 137.851 102.361 138.081 102.782C138.311 103.204 138.627 103.414 139.029 103.414C139.642 103.414 140.073 103.079 140.322 102.409C140.571 101.738 140.753 100.379 140.868 98.3292L141.012 95.5136Z" fill="white"/>
<path d="M151.197 74.515C151.627 73.775 151.877 72.125 151.147 71.695C150.407 71.265 148.967 72.225 148.537 72.955C148.107 73.695 148.357 74.635 149.087 75.065C149.827 75.495 150.767 75.245 151.197 74.515Z" fill="#A7AEE4"/>
<path d="M145.197 75.655C145.137 75.235 144.737 74.935 144.317 75.005C143.897 75.075 143.597 75.465 143.667 75.885C143.727 76.305 144.127 76.605 144.547 76.535C144.967 76.475 145.267 76.075 145.197 75.655Z" fill="#A7AEE4"/>
<path d="M133.107 60.9851C133.257 62.0351 135.257 62.5451 136.307 62.3951C137.357 62.2451 138.077 61.2651 137.927 60.2151C137.777 59.1651 136.797 58.4451 135.747 58.5951C134.697 58.7551 132.957 59.9351 133.107 60.9851Z" fill="#A7AEE4"/>
<path d="M163.537 69.295C164.337 68.035 165.647 67.195 167.127 66.965C169.957 66.525 173.917 64.905 173.737 59.215C173.697 57.845 173.217 56.605 172.497 55.575C170.987 53.385 170.487 50.675 171.097 48.085C171.507 46.365 171.597 44.565 171.327 42.745C170.087 34.365 161.677 28.665 152.537 30.015C150.807 30.275 149.177 30.765 147.677 31.445C145.707 30.175 143.327 29.515 140.817 29.705C134.727 30.175 130.187 35.425 130.597 41.515C130.787 44.285 131.977 46.745 133.777 48.565C134.097 48.885 134.227 49.335 134.157 49.785C134.147 49.865 134.137 49.945 134.127 50.025C134.057 50.665 134.077 51.325 134.177 51.995C134.517 54.315 135.837 56.265 137.687 57.525C138.727 58.235 139.337 59.405 139.267 60.665C139.227 61.395 139.287 62.135 139.467 62.885C140.417 66.915 144.487 69.515 148.547 68.685C148.667 68.665 148.777 68.635 148.897 68.605C150.697 68.155 152.597 68.665 153.827 70.045C154.947 71.315 156.627 72.215 158.497 72.075C161.157 71.875 162.697 70.595 163.527 69.275L163.537 69.295Z" fill="#A7AEE4"/>
<path d="M130.117 63.195C129.687 59.645 134.477 56.215 134.477 56.215C134.477 56.215 125.787 58.815 126.697 63.825C127.147 66.305 130.447 65.905 130.117 63.195Z" fill="#A7AEE4"/>
<path d="M127.277 53.535C126.387 51.955 124.467 53.035 125.197 54.545C126.677 57.595 132.357 55.575 132.357 55.575C132.357 55.575 128.437 55.615 127.277 53.545V53.535Z" fill="#A7AEE4"/>
<path d="M76.9873 129.955C77.7273 128.935 80.9173 128.395 82.4973 127.495C84.7673 126.205 82.6173 124.265 78.4373 123.835C73.1673 123.295 66.1273 124.765 62.6373 123.295C58.7373 121.655 62.0373 118.105 51.6773 118.985C46.8673 119.395 43.8973 120.925 41.1973 122.235C39.6973 122.965 37.8573 123.735 35.2973 123.845C32.1373 123.985 29.2173 123.055 26.0473 123.165C22.2873 123.295 20.1873 124.905 21.1673 126.165C22.3473 127.675 28.1573 128.195 29.2773 129.655C30.4073 131.125 22.7673 131.555 20.7173 132.485C19.2373 133.155 18.8373 134.185 20.4473 134.815C24.2173 136.305 30.6073 134.425 34.8673 134.395C37.0573 134.385 39.4273 134.795 40.0473 135.515C40.6973 136.285 39.2373 137.105 39.6773 137.895C41.1773 140.575 50.5573 138.665 53.2373 137.515C55.3973 136.585 57.1973 135.515 60.0673 134.855C61.1773 134.605 62.4673 134.415 63.7973 134.445C68.9373 134.565 70.2973 136.965 76.3173 136.915C79.3173 136.895 82.3173 136.125 82.6673 135.105C83.2973 133.225 75.6673 131.795 77.0073 129.955H76.9873Z" fill="#00DBC4"/>
<path d="M80.0273 44.0251C79.1173 42.6151 79.8773 40.5951 81.2673 39.6551C81.9473 39.1951 82.7873 38.9251 83.5973 39.0551C84.4073 39.1851 85.1673 39.7551 85.3873 40.5551C86.0473 39.3251 87.7273 38.8751 89.0273 39.3751C90.3273 39.8751 91.2273 41.145 91.5473 42.505C91.8673 43.865 91.6773 45.2951 91.3173 46.6351C91.5573 45.7551 93.9473 48.335 94.0473 48.865C94.0673 48.955 94.0773 49.0451 94.0873 49.1351C94.2073 50.4651 93.3373 51.595 92.0073 51.895C92.1873 51.855 92.0073 53.4251 91.9573 53.5751C91.7873 54.0151 91.3673 54.295 91.2173 54.755C91.1073 55.075 91.1173 55.4651 91.0673 55.8051C90.9173 56.7951 90.7373 57.7951 90.4173 58.7451C90.4173 58.7451 88.9273 56.9351 87.5473 55.9151C86.7073 56.5651 85.6273 56.8951 84.5673 56.7151C82.9373 56.4451 81.5773 55.0151 81.3773 53.3751C80.1773 53.1751 79.3573 51.7651 79.7573 50.6251C77.8973 50.5451 76.1773 48.8851 76.2173 47.0151C76.2573 45.1551 78.2373 43.5251 80.0373 44.0151L80.0273 44.0251Z" fill="#EDBB2C"/>
<g style="mix-blend-mode:multiply" opacity="0.5">
<path d="M77.6373 44.5151C77.7773 45.1251 78.0973 45.7051 78.5473 46.1351C79.2073 46.7651 80.1373 47.1051 81.0473 47.0351C80.9973 47.5551 81.4073 48.0351 81.8973 48.2251C82.3873 48.4251 82.9273 48.3951 83.4473 48.3751C83.3473 49.3851 84.1973 50.2551 85.1073 50.7051C86.4673 51.3951 88.2273 51.4651 89.4373 50.5451C89.9473 50.9351 90.8273 50.4951 90.8273 49.8551C90.8273 50.4851 92.7273 50.5451 93.6573 50.7551C93.2873 51.3051 92.7173 51.7251 91.9873 51.8951C92.1673 51.8551 91.9873 53.4251 91.9373 53.5751C91.7673 54.0151 91.3473 54.2951 91.1973 54.7551C91.0873 55.0751 91.0973 55.4651 91.0473 55.8051C90.8973 56.7951 90.7173 57.7951 90.3973 58.7451C90.3973 58.7451 88.9073 56.9351 87.5273 55.9151C86.6873 56.5651 85.6073 56.8951 84.5473 56.7151C82.9173 56.4451 81.5573 55.0151 81.3573 53.3751C80.1573 53.1751 79.3373 51.7651 79.7373 50.6251C77.8773 50.5451 76.1573 48.8851 76.1973 47.0151C76.2173 46.0051 76.8073 45.0751 77.6273 44.5051L77.6373 44.5151Z" fill="#F9AE40"/>
</g>
<path d="M69.1273 25.0551C70.4373 24.8651 71.2472 23.3751 71.0872 22.0651C71.0072 21.4251 70.7373 20.7851 70.2373 20.3651C69.7373 19.9451 69.0073 19.7951 68.4273 20.0751C68.8173 19.0451 68.2173 17.8151 67.2473 17.2951C66.2773 16.7751 65.0573 16.8951 64.0773 17.4051C63.0973 17.9151 62.3473 18.7651 61.7373 19.6751C62.1373 19.0751 59.3673 18.9851 58.9973 19.1951C58.9373 19.2351 58.8773 19.2751 58.8173 19.3151C57.9673 19.9351 57.7373 21.0351 58.2473 21.9851C58.1773 21.8551 57.3373 22.7751 57.2673 22.8851C57.0873 23.2151 57.1473 23.6151 56.9473 23.9351C56.8073 24.1651 56.5773 24.3651 56.3973 24.5651C55.8873 25.1651 55.3873 25.7851 54.9773 26.4651C54.9773 26.4651 56.8273 26.4151 58.1473 26.7151C58.1873 27.5451 58.5573 28.3651 59.2073 28.9051C60.2073 29.7351 61.7672 29.8151 62.8372 29.0851C63.5772 29.6951 64.8373 29.4651 65.3173 28.6251C66.3273 29.6951 68.2073 29.8551 69.2973 28.8751C70.3873 27.8851 70.3372 25.8651 69.1172 25.0451L69.1273 25.0551Z" fill="#EDBB2C"/>
<g style="mix-blend-mode:multiply" opacity="0.5">
<path d="M70.0673 26.7251C69.6273 26.9551 69.1273 27.0651 68.6273 27.0151C67.9073 26.9451 67.2273 26.5651 66.7973 25.9851C66.5173 26.2851 66.0173 26.2851 65.6473 26.0951C65.2773 25.9051 65.0173 25.5751 64.7573 25.2451C64.2073 25.8251 63.2473 25.7651 62.5073 25.4651C61.3973 25.0051 60.4472 24.0051 60.3672 22.8051C59.8772 22.6951 59.6773 21.9451 60.0573 21.6151C59.6773 21.9451 58.6573 20.8351 58.0573 20.3951C57.9173 20.8951 57.9673 21.4551 58.2373 21.9751C58.1673 21.8451 57.3273 22.7651 57.2573 22.8751C57.0773 23.2051 57.1373 23.6051 56.9373 23.9251C56.7973 24.1551 56.5673 24.3551 56.3873 24.5551C55.8773 25.1551 55.3773 25.7751 54.9673 26.4551C54.9673 26.4551 56.8173 26.4051 58.1373 26.7051C58.1773 27.5351 58.5473 28.3551 59.1973 28.8951C60.1973 29.7251 61.7573 29.8051 62.8273 29.0751C63.5673 29.6851 64.8273 29.4551 65.3073 28.6151C66.3173 29.6851 68.1973 29.8451 69.2873 28.8651C69.8773 28.3351 70.1273 27.4951 70.0473 26.7151L70.0673 26.7251Z" fill="#F9AE40"/>
</g>
<path d="M66.9073 126.115C66.9073 126.115 66.7673 129.385 66.9073 130.395C67.0473 131.405 71.9573 131.985 73.8273 131.985C75.2973 131.985 73.1473 130.785 72.7973 130.615C71.7173 130.095 70.2673 130.065 69.4873 129.035C68.9073 128.265 69.0073 127.035 68.9673 126.115H66.8973H66.9073Z" fill="#F0C3C1"/>
<path d="M72.8073 130.615C71.7973 130.135 70.4873 130.065 69.6873 129.235C69.1973 129.605 68.1873 129.645 67.7973 129.165C67.4873 128.785 67.0773 128.645 66.8573 128.585C66.8573 129.315 66.8573 130.015 66.9173 130.405C67.0573 131.415 71.9672 131.995 73.8372 131.995C75.3073 131.995 73.1573 130.795 72.8073 130.625V130.615Z" fill="#7931DC"/>
<path d="M43.9273 126.305C43.9273 126.305 44.0673 129.575 43.9273 130.585C43.7873 131.595 38.8773 132.175 37.0073 132.175C35.5373 132.175 37.6873 130.975 38.0373 130.805C39.1173 130.285 40.5673 130.255 41.3473 129.225C41.9273 128.455 41.8272 127.225 41.8672 126.305H43.9373H43.9273Z" fill="#F0C3C1"/>
<path d="M39.7573 106.405C39.7573 105.835 39.8173 105.275 39.8573 104.705L40.0173 103.165C40.4773 99.1751 41.0473 95.3351 41.6273 91.4551C42.2073 87.5851 42.8173 83.7451 43.4473 79.8751L62.9273 81.6551L66.6873 103.995L67.1573 106.795L67.4073 108.245C67.4973 108.745 67.5573 109.225 67.6373 109.705C67.9173 111.635 68.1473 113.535 68.3573 115.435C68.7673 119.235 69.1073 123.015 69.4173 126.805C69.4173 126.805 69.1873 127.335 68.0872 127.485C66.9972 127.645 66.5273 127.255 66.5273 127.255C65.4173 123.635 64.4573 120.025 63.2473 116.455C62.6373 114.675 62.0172 112.905 61.3672 111.195C61.1972 110.775 61.0372 110.335 60.8672 109.935L60.3473 108.675L59.2773 106.025L53.3073 91.3051C52.9473 92.2051 52.5873 93.1151 52.2273 94.0151C50.8173 97.6051 49.3973 101.245 48.1373 104.765L47.6973 106.035C47.5873 106.395 47.4373 106.755 47.3473 107.125C47.2373 107.475 47.1573 107.925 47.0673 108.365C46.9773 108.795 46.8973 109.275 46.8173 109.725C46.4973 111.575 46.2273 113.495 45.9573 115.405C45.4373 119.235 44.9673 123.105 44.5273 126.975C44.5273 126.975 44.0273 127.365 43.0273 127.505C42.0173 127.645 41.5173 127.045 41.5173 127.045C41.0773 123.165 40.6673 119.305 40.3173 115.405C40.1473 113.455 39.9772 111.505 39.8672 109.505C39.8472 108.995 39.8073 108.505 39.7973 107.985C39.7873 107.465 39.7573 106.955 39.7773 106.375L39.7573 106.405Z" fill="#EDBB2C"/>
<path d="M38.0373 130.795C39.0473 130.315 40.3573 130.245 41.1573 129.415C41.6473 129.785 42.6473 129.825 43.0473 129.345C43.3573 128.965 43.7673 128.825 43.9873 128.765C43.9873 129.495 43.9873 130.195 43.9273 130.585C43.7873 131.595 38.8773 132.175 37.0073 132.175C35.5373 132.175 37.6873 130.975 38.0373 130.805V130.795Z" fill="#7931DC"/>
<g style="mix-blend-mode:multiply" opacity="0.5">
<path d="M48.0073 96.9951C48.5373 95.1551 47.9273 93.1751 46.4373 91.9651L42.0872 88.4251C42.5272 85.5751 42.9673 82.7351 43.4373 79.8751L62.9173 81.6551L65.0173 94.1051C64.3173 94.0451 63.6173 93.9651 62.9273 93.8651C59.7673 93.4051 57.0573 96.1151 57.5173 99.2651L58.0773 103.105L53.3073 91.3351C52.9473 92.2351 52.5873 93.1451 52.2273 94.0451C50.8173 97.6351 49.3973 101.275 48.1373 104.795L47.6973 106.065C47.5873 106.425 47.4373 106.785 47.3473 107.155C47.2373 107.505 47.1573 107.955 47.0673 108.395C46.9773 108.825 46.8973 109.305 46.8173 109.755C46.4973 111.605 46.2273 113.525 45.9573 115.435C45.9573 115.435 45.6873 108.155 45.8473 105.815C45.9473 104.335 47.1473 99.9851 48.0173 96.9851L48.0073 96.9951Z" fill="#F9AE40"/>
</g>
<path d="M56.8473 56.0851C58.7373 53.7651 62.2173 53.5951 64.3173 55.7251C65.2273 56.6451 66.0373 57.4551 66.3773 57.7951C67.3873 58.7851 68.3873 59.7851 69.3873 60.7351L70.1373 61.4351L70.8773 62.1051L71.5773 62.7151L71.8573 62.9551L71.9973 63.0751C71.9973 63.0751 71.9973 63.0951 71.9973 63.1051C71.9973 63.1051 71.9873 63.1151 71.9873 63.1251L72.0273 63.1551L72.1073 63.2151C72.2073 63.2551 72.2873 63.3051 72.3973 63.3451C72.6273 63.4351 72.8973 63.5251 73.1873 63.5951C73.7673 63.7551 74.4173 63.8751 75.0873 63.9851C76.4173 64.2051 77.8173 64.3551 79.2273 64.4951C80.6373 64.6351 82.0673 64.7351 83.4973 64.8251C84.9273 64.9251 86.3773 64.9951 87.8073 65.0551C87.8073 65.0551 88.6273 63.4651 89.7373 62.9851C90.8473 62.5051 90.8973 62.9051 90.1873 63.5051C89.4773 64.1051 89.4273 64.4851 89.6573 64.5851C89.8873 64.6751 90.7673 64.5051 91.4673 64.1251C92.1673 63.7451 92.5773 63.2551 92.8273 63.1651C93.0673 63.0751 92.4173 64.4851 91.5173 64.8951C91.9373 64.7851 93.1673 64.0551 93.5273 63.9351C93.8773 63.8151 93.0373 65.9551 91.5873 66.6851C90.1373 67.4051 88.0473 67.0851 88.0473 67.0851C85.2073 67.8651 82.3573 68.5151 79.4273 69.0551C77.9673 69.3351 76.4873 69.5451 74.9373 69.7051C74.1573 69.7751 73.3773 69.8351 72.5273 69.8451C72.0973 69.8451 71.6573 69.8451 71.1773 69.7951C70.9373 69.7751 70.6673 69.7351 70.4173 69.7051L69.9773 69.6151L69.7573 69.5651L69.4973 69.4851C68.2273 69.0351 67.6273 68.7351 66.8573 68.3651L65.7973 67.8451L64.7773 67.3151C63.4373 66.6051 62.1173 65.8951 60.8273 65.1451C60.3473 64.8651 59.3273 64.2551 58.1673 63.5651C55.5473 61.9951 54.9273 58.4551 56.8573 56.0851H56.8473Z" fill="#F0C3C1"/>
<g style="mix-blend-mode:multiply" opacity="0.5">
<path d="M67.8672 63.025C67.9472 62.905 68.8573 61.535 69.3873 60.725L70.1373 61.425L70.8773 62.095L71.5773 62.705L71.7673 62.865C71.5673 64.075 71.1872 66.005 70.6172 67.085C69.9972 68.275 73.6973 69.185 75.8173 69.595C75.5273 69.625 75.2373 69.675 74.9373 69.705C74.1573 69.775 73.3773 69.835 72.5273 69.845C72.0973 69.845 71.6573 69.845 71.1773 69.795C70.9373 69.775 70.6673 69.735 70.4173 69.705L69.9773 69.615L69.7573 69.565L69.4973 69.485C68.2273 69.035 67.6273 68.735 66.8573 68.365L65.7973 67.845L64.7773 67.315C65.1273 67.095 67.7673 63.215 67.8873 63.035L67.8672 63.025Z" fill="#F0C3C1"/>
</g>
<path d="M29.1073 44.2751C29.1773 43.9151 29.2673 43.5851 29.3673 43.2551C29.4873 42.9551 29.5973 42.6451 29.7373 42.3751C29.8773 42.1151 30.0073 41.8351 30.1673 41.6051C30.7673 40.6451 31.4373 39.8951 32.1273 39.2251C32.8173 38.5551 33.5273 37.9651 34.2473 37.4151C35.6873 36.3251 37.1773 35.395 38.6773 34.535C40.1773 33.685 41.6773 32.9251 43.2373 32.2151C43.2973 32.0851 43.3373 31.9851 43.3373 31.9851C43.3373 31.9851 44.2473 30.7751 45.9073 30.3451C47.5673 29.9151 50.4673 31.2951 48.7973 31.2451C47.1373 31.1951 44.6673 32.0051 45.4573 31.9851C46.2373 31.9651 47.6173 32.3451 46.6173 32.6251C45.6173 32.9051 44.2973 33.6151 44.2973 33.6151C44.2973 33.6151 44.2273 33.6151 44.1273 33.6151C41.5473 35.6551 39.0473 37.9251 37.0573 40.3551C36.5673 40.9651 36.1073 41.5851 35.7273 42.1951C35.1873 43.0551 34.4173 44.3251 35.0773 45.0951C35.1873 45.2251 35.3573 45.4051 35.5573 45.5951C35.9573 45.9851 36.4873 46.4151 37.0573 46.8351C37.6273 47.2551 38.2573 47.6651 38.8973 48.0651C40.1873 48.8651 41.5773 49.6151 42.9973 50.3351C44.4173 51.0551 45.8773 51.7351 47.3473 52.3851H47.3673C49.7073 53.4151 50.6973 56.2151 49.5073 58.4751L48.8773 59.6851C47.6173 62.0851 44.5073 62.7751 42.3473 61.1551C42.2773 61.1051 42.2273 61.0651 42.1773 61.0251C40.7773 59.9551 39.3973 58.8451 38.0373 57.6851C36.6773 56.5251 35.3473 55.3151 34.0373 53.9951C33.3873 53.3251 32.7473 52.6451 32.1173 51.8851C31.4873 51.1251 30.8773 50.3251 30.2973 49.3551C30.0073 48.8651 29.7273 48.3351 29.4873 47.7051L29.3173 47.2151L29.2773 47.0951L29.2373 46.9451L29.1673 46.6351C29.1273 46.4251 29.0773 46.2251 29.0573 46.0151C29.0473 45.8151 29.0273 45.6051 29.0273 45.4051C28.9973 44.9951 29.0773 44.6351 29.1173 44.2551L29.1073 44.2751Z" fill="#F0C3C1"/>
<g style="mix-blend-mode:multiply" opacity="0.5">
<path d="M33.7473 50.0451C34.5773 48.9051 37.0073 47.6551 37.7073 47.3151C38.0873 47.5751 38.4773 47.8251 38.8773 48.0751C39.3873 48.3851 39.9073 48.6951 40.4373 48.9951L38.5273 50.9351L34.9373 54.9151C34.6273 54.6151 34.3173 54.3151 34.0173 53.9951C33.3673 53.3251 32.7273 52.6451 32.0973 51.8851C31.4673 51.1251 30.8573 50.3251 30.2773 49.3551C30.0273 48.9251 29.7873 48.4751 29.5673 47.9451C31.0173 49.2451 33.1173 50.8751 33.7373 50.0251L33.7473 50.0451Z" fill="#F0C3C1"/>
</g>
<path d="M33.2973 54.0551C34.1273 51.7851 36.5373 48.3751 38.8973 47.4951C40.9273 48.9651 47.9573 52.1451 47.9573 52.1451C49.3873 51.885 51.1473 51.735 53.3473 51.785C55.0773 51.825 56.7973 52.1951 58.4573 52.7051C59.2273 52.9451 59.9973 53.2051 60.7473 53.5051C62.1373 54.0451 63.3773 54.5851 64.5973 55.4351C66.1873 56.5451 67.6373 57.8351 68.9673 59.2451C69.2473 59.5351 69.5173 59.835 69.7873 60.1451C69.9273 60.295 70.6372 60.9451 70.6172 61.1351C70.6172 61.1351 70.0173 66.8051 66.6873 68.8651L63.0573 67.3951C61.9873 73.4051 63.7573 78.4851 64.2973 85.7751C53.8073 89.6251 42.3173 84.815 42.3173 84.815C42.4273 81.205 41.2573 74.1951 40.6973 67.6951C40.4873 65.2451 40.5973 62.7351 40.9073 60.5051C37.9273 58.7451 33.2873 54.0651 33.2873 54.0651L33.2973 54.0551Z" fill="#E576B5"/>
<path d="M51.8973 49.205C51.8973 49.205 52.2473 51.675 50.9473 52.585C49.6473 53.495 49.8173 54.845 50.9473 55.365C52.0773 55.885 55.1973 54.675 54.7273 52.895C54.2573 51.115 53.4173 48.735 53.4173 48.735L51.8973 49.205Z" fill="#F0C3C1"/>
<g style="mix-blend-mode:multiply" opacity="0.5">
<path d="M44.2473 56.205C42.7973 57.655 40.9173 60.495 40.9173 60.495C39.0673 59.405 36.5773 57.185 34.9573 55.655C36.8973 56.055 41.9273 56.975 44.2473 56.205Z" fill="#E576B5"/>
</g>
<g style="mix-blend-mode:multiply" opacity="0.5">
<path d="M64.2973 62.675C64.9573 63.555 67.8373 65.205 69.1773 65.945C68.5973 67.085 67.7873 68.175 66.6873 68.855L63.0573 67.385C63.0573 67.385 63.4373 64.785 64.2973 62.675Z" fill="#E576B5"/>
</g>
<g style="mix-blend-mode:multiply" opacity="0.5">
<path d="M63.9373 82.2651C64.0773 83.3851 64.2073 84.5451 64.2973 85.7651C53.8073 89.6151 42.3173 84.8051 42.3173 84.8051C42.4173 81.6851 41.5473 76.0151 40.9573 70.3351C43.5273 75.7851 49.9673 84.7651 63.9373 82.2651Z" fill="#E576B5"/>
</g>
<g style="mix-blend-mode:multiply" opacity="0.5">
<path d="M51.8173 51.135C52.0373 50.185 51.8973 49.205 51.8973 49.205L53.4173 48.735C53.4173 48.735 53.8473 49.965 54.2673 51.325C53.7373 51.375 52.7573 51.405 51.8173 51.135Z" fill="#F0C3C1"/>
</g>
<path d="M56.4873 45.9851C56.6473 45.1851 56.4473 44.3451 55.9173 43.7351C55.3473 43.0651 54.3473 42.3851 52.6873 42.5551C49.6173 42.8751 48.8273 46.9851 48.8973 48.2951C48.9673 49.6051 49.6673 51.2251 52.4573 50.4151C54.7473 49.7451 56.1273 47.8051 56.4773 45.9951L56.4873 45.9851Z" fill="#F0C3C1"/>
<path d="M55.2273 49.5951C55.2273 49.5951 53.7073 50.3551 52.9173 50.2551C53.5373 49.6751 54.3973 48.9051 53.7873 48.6151C53.1773 48.3251 53.1372 48.5751 52.9372 48.7251C52.7372 48.8751 53.4973 47.8251 53.7073 47.1351C53.9173 46.4451 53.0873 44.7851 52.7373 45.1851C52.3973 45.5851 52.7273 46.1251 52.7273 46.1251C52.7273 46.1251 50.2272 45.1651 50.3672 43.8451C51.2572 43.0351 54.2573 44.2951 54.2573 44.2951L54.9573 45.7351C54.9573 45.7351 55.4372 47.4051 55.3672 47.7751C55.2972 48.1551 55.6372 48.7551 55.2172 49.5751L55.2273 49.5951Z" fill="#7931DC"/>
<path d="M50.3672 43.865C50.3672 43.865 51.7573 42.995 53.7373 44.965C54.9873 46.585 55.2273 49.605 55.2273 49.605C55.2273 49.605 55.4073 49.445 56.6873 47.815C58.1973 45.885 56.6372 42.675 54.8672 42.135C54.1372 41.915 53.6073 41.785 52.8873 42.005C52.4273 42.145 51.9973 42.365 51.6073 42.635C51.1473 42.965 50.8173 43.575 50.3573 43.855L50.3672 43.865Z" fill="white"/>
<path d="M50.5073 46.1351C50.1873 46.4951 49.8873 46.8551 49.6373 47.2851C49.5773 47.4051 49.4973 47.4851 49.4973 47.7051C49.5173 47.9051 49.6473 48.0251 49.7573 48.1051C49.9873 48.2551 50.2373 48.3151 50.4873 48.3051C50.4973 48.3051 50.5073 48.3051 50.5073 48.2851V48.2751C50.3173 48.1051 50.1273 47.9751 49.9873 47.8351C49.8373 47.6751 49.8073 47.6751 49.8973 47.4051C49.9773 47.1951 50.0873 46.9851 50.1973 46.7751C50.3073 46.5651 50.4173 46.3551 50.5373 46.1551V46.1351H50.5173H50.5073Z" fill="#CC9393"/>
<path d="M44.3863 62.6714L44.1682 65.6134C44.0869 66.7094 44.9096 67.6638 46.0056 67.745L56.3173 68.5095C57.4134 68.5908 58.3677 67.7681 58.449 66.6721L58.6671 63.7302C58.7484 62.6341 57.9257 61.6797 56.8297 61.5985L46.518 60.834C45.4219 60.7527 44.4676 61.5754 44.3863 62.6714Z" fill="#7931DC"/>
<path d="M53.7373 44.955C53.7373 44.955 52.0172 43.205 50.3672 43.855C49.7172 43.105 48.2373 40.305 49.7073 39.885C51.1773 39.465 53.8573 42.805 53.7373 44.955Z" fill="#E576B5"/>
<g style="mix-blend-mode:multiply" opacity="0.5">
<path d="M57.2673 46.385C57.2073 46.895 57.0273 47.385 56.6873 47.815C55.4073 49.445 55.2273 49.605 55.2273 49.605C55.2273 49.605 55.0173 47.095 54.0373 45.425C55.3873 46.585 56.5673 46.565 57.2673 46.395V46.385Z" fill="#F9AE40"/>
</g>
<path d="M152.997 147.295C152.917 148.175 152.667 149.515 151.927 150.885C151.897 150.945 151.867 151.005 151.827 151.055C151.447 151.735 150.937 152.435 150.267 153.075C150.217 153.125 150.167 153.165 150.117 153.215C149.517 153.775 148.787 154.295 147.907 154.755C147.837 154.795 147.767 154.825 147.697 154.865C146.327 155.545 144.607 156.045 142.447 156.275C142.377 156.275 142.297 156.295 142.227 156.295C142.137 156.295 142.037 156.315 141.947 156.315C141.297 156.365 140.617 156.395 139.897 156.395C139.697 156.395 139.497 156.395 139.297 156.395C139.217 156.395 139.147 156.395 139.067 156.395C138.487 156.375 137.937 156.345 137.407 156.285C137.337 156.285 137.267 156.275 137.197 156.265C136.387 156.175 135.637 156.045 134.947 155.875C134.857 155.855 134.767 155.835 134.687 155.815C133.057 155.395 131.767 154.785 130.737 154.075C130.667 154.025 130.587 153.975 130.517 153.925C129.917 153.485 129.417 153.005 128.987 152.515C128.947 152.465 128.897 152.415 128.857 152.355C128.367 151.755 127.987 151.135 127.697 150.535C127.667 150.465 127.637 150.405 127.607 150.335C127.397 149.865 127.237 149.405 127.117 148.975C126.937 148.325 126.847 147.745 126.807 147.295H152.987H152.997Z" fill="url(#paint0_linear_1_41792)"/>
<path d="M128.337 150.315C128.337 150.315 130.317 155.395 137.297 155.765C137.297 155.765 131.357 154.475 129.537 150.545L128.337 150.315Z" fill="url(#paint1_linear_1_41792)"/>
<g style="mix-blend-mode:multiply">
<path d="M133.207 149.495C133.047 150.045 132.607 150.465 132.097 150.705C131.447 151.015 130.707 151.015 129.997 150.925C129.227 150.825 128.477 150.595 127.707 150.525C127.677 150.455 127.647 150.395 127.617 150.325C128.987 150.415 130.367 151.095 131.727 150.645C132.297 150.455 132.847 150.035 133.027 149.435C133.247 148.695 132.887 147.935 132.577 147.275H132.787C133.117 147.955 133.437 148.725 133.217 149.485L133.207 149.495Z" fill="#46137C"/>
</g>
<g style="mix-blend-mode:multiply">
<path d="M134.727 148.355C134.377 149.045 134.377 149.865 134.677 150.575C134.977 151.315 135.577 151.875 136.297 152.205C137.937 152.935 139.767 152.415 141.187 151.455C142.087 150.845 142.867 150.085 143.637 149.315C143.727 149.225 143.587 149.095 143.507 149.185C142.277 150.415 140.957 151.695 139.237 152.185C137.757 152.605 135.887 152.295 135.047 150.885C134.617 150.155 134.517 149.225 134.907 148.465C134.967 148.355 134.797 148.265 134.747 148.365L134.727 148.355Z" fill="#46137C"/>
</g>
<g style="mix-blend-mode:multiply">
<path d="M151.927 150.885C151.897 150.945 151.867 151.005 151.827 151.055C151.587 150.805 151.387 150.525 151.227 150.215C150.757 149.315 150.697 148.235 151.047 147.285H151.247C150.907 148.205 150.937 149.245 151.397 150.125C151.537 150.405 151.717 150.655 151.927 150.885Z" fill="#46137C"/>
</g>
<g style="mix-blend-mode:multiply">
<path d="M150.277 153.085C150.277 153.085 150.177 153.175 150.127 153.225C149.767 152.265 149.077 151.395 148.117 150.985C146.837 150.435 145.417 150.925 144.277 151.575C142.237 152.735 140.717 154.565 139.297 156.405C139.217 156.405 139.147 156.405 139.067 156.405C139.877 155.365 140.697 154.335 141.637 153.405C142.577 152.475 143.647 151.625 144.857 151.075C146.047 150.535 147.437 150.335 148.597 151.045C149.367 151.515 149.937 152.265 150.267 153.105L150.277 153.085Z" fill="#46137C"/>
</g>
<g style="mix-blend-mode:multiply">
<path d="M147.927 154.765C147.857 154.805 147.787 154.835 147.717 154.875V154.835C147.787 154.475 147.807 154.025 147.507 153.765C147.217 153.515 146.787 153.575 146.447 153.665C145.707 153.865 144.987 154.225 144.337 154.625C143.567 155.095 142.867 155.655 142.247 156.305C142.157 156.305 142.057 156.325 141.967 156.325C142.187 156.085 142.417 155.855 142.657 155.635C143.287 155.065 143.987 154.575 144.727 154.175C145.097 153.975 145.477 153.805 145.867 153.655C146.237 153.515 146.627 153.375 147.027 153.395C147.377 153.415 147.697 153.585 147.847 153.915C147.967 154.175 147.957 154.475 147.917 154.755L147.927 154.765Z" fill="#46137C"/>
</g>
<g style="mix-blend-mode:multiply">
<path d="M137.417 156.285C137.347 156.285 137.277 156.275 137.207 156.265C137.167 156.165 137.117 156.065 137.077 155.965C136.297 154.355 134.917 153.075 133.207 152.515C131.847 152.075 130.357 152.065 129.007 152.505C128.967 152.455 128.917 152.405 128.877 152.345C129.497 152.145 130.137 152.025 130.797 151.995C132.697 151.915 134.567 152.615 135.907 153.965C136.567 154.625 137.087 155.415 137.437 156.275L137.417 156.285Z" fill="#46137C"/>
</g>
<g style="mix-blend-mode:multiply">
<path d="M134.947 155.875C134.857 155.855 134.767 155.835 134.687 155.815C134.277 155.165 133.677 154.635 132.937 154.335C132.237 154.045 131.467 153.965 130.737 154.075C130.667 154.025 130.587 153.975 130.517 153.925C130.787 153.875 131.057 153.845 131.337 153.835C132.647 153.835 133.897 154.415 134.677 155.465C134.777 155.595 134.867 155.735 134.947 155.875Z" fill="#46137C"/>
</g>
<g style="mix-blend-mode:multiply">
<path d="M152.997 147.295C152.777 149.675 151.317 155.365 142.467 156.285C146.417 155.335 148.027 153.075 140.087 151.855C134.377 150.975 129.257 149.855 127.127 148.985C126.947 148.335 126.857 147.755 126.817 147.305H152.997V147.295Z" fill="#46137C"/>
<path d="M151.497 147.295C151.457 147.715 151.517 147.225 151.477 147.515C151.447 147.675 151.417 147.845 151.387 148.005C151.307 148.405 151.197 148.795 151.057 149.175C150.807 149.885 150.407 150.635 149.907 151.275C148.137 153.535 145.217 154.465 142.467 154.785L142.867 157.735C144.327 157.375 146.227 156.775 146.967 155.335C147.887 153.555 146.347 152.155 144.837 151.515C141.887 150.265 138.477 150.135 135.357 149.525C132.737 149.025 130.027 148.525 127.537 147.535L128.587 148.585C128.477 148.155 128.377 147.735 128.327 147.295L126.827 148.795H153.007C154.937 148.795 154.937 145.795 153.007 145.795H126.827C126.077 145.795 125.237 146.485 125.327 147.295C125.477 148.625 125.527 149.965 126.927 150.505C127.787 150.835 128.667 151.085 129.557 151.315C132.497 152.075 135.487 152.625 138.487 153.115C139.937 153.345 141.397 153.545 142.807 153.965C143.167 154.075 144.467 154.555 144.397 154.685C144.377 154.715 144.177 153.705 144.277 154.015C144.247 153.915 144.397 153.915 144.057 154.125C143.447 154.495 142.757 154.685 142.077 154.855C140.477 155.255 140.767 157.995 142.477 157.805C146.037 157.405 149.677 156.275 152.037 153.425C153.487 151.675 154.287 149.575 154.507 147.325C154.697 145.405 151.697 145.415 151.507 147.325L151.497 147.295Z" fill="#46137C"/>
</g>
<path d="M154.097 144.445H126.057V147.215H154.097V144.445Z" fill="url(#paint2_linear_1_41792)"/>
<path d="M140.077 149.845C147.82 149.845 154.097 148.663 154.097 147.205C154.097 145.747 147.82 144.565 140.077 144.565C132.334 144.565 126.057 145.747 126.057 147.205C126.057 148.663 132.334 149.845 140.077 149.845Z" fill="url(#paint3_linear_1_41792)"/>
<path d="M154.097 144.445C154.097 146.225 147.797 147.295 140.047 147.295C132.297 147.295 126.057 146.225 126.057 144.445C126.057 142.665 132.337 141.225 140.077 141.225C147.817 141.225 154.097 142.665 154.097 144.445Z" fill="url(#paint4_linear_1_41792)"/>
<path d="M152.797 144.355C152.797 145.055 147.087 145.475 140.067 145.475C133.047 145.475 127.387 145.055 127.387 144.355C127.387 143.655 133.077 143.085 140.097 143.085C147.117 143.085 152.807 143.655 152.807 144.355H152.797Z" fill="url(#paint5_linear_1_41792)"/>
<path d="M152.257 144.485C152.187 144.685 152.017 144.855 151.787 144.915C143.977 146.995 136.167 146.975 128.347 144.915C127.947 144.805 127.727 144.375 127.897 143.995C129.157 140.995 134.187 129.425 138.377 126.025C138.697 125.765 139.007 125.555 139.317 125.395C139.487 125.305 139.657 125.235 139.817 125.185C139.977 125.135 140.147 125.135 140.317 125.185C144.007 126.335 148.927 136.475 151.237 141.665C151.677 142.645 152.017 143.455 152.247 143.995C152.317 144.165 152.317 144.335 152.257 144.495V144.485Z" fill="#80E19F"/>
<path d="M151.787 144.905C143.977 146.985 136.167 146.965 128.347 144.905C127.947 144.795 127.727 144.365 127.897 143.985C129.257 140.755 134.977 127.605 139.317 125.395C139.277 125.455 136.227 133.875 137.947 138.245C140.037 143.545 148.507 144.105 151.227 141.665C151.667 142.645 152.007 143.455 152.237 143.995C152.397 144.375 152.187 144.815 151.787 144.915V144.905Z" fill="#6CBE8F"/>
<path d="M152.257 144.485C152.187 144.685 152.017 144.855 151.787 144.915C147.587 146.035 143.387 146.545 139.187 146.455C135.577 146.385 131.957 145.865 128.347 144.915C127.947 144.805 127.727 144.375 127.897 143.995C128.717 142.035 131.147 136.415 133.907 131.815C135.367 129.365 136.927 127.205 138.377 126.025C136.787 128.715 132.267 136.905 133.947 140.275C135.877 144.135 145.107 145.585 152.257 144.485Z" fill="#5EA483"/>
<path d="M139.197 146.455C135.587 146.385 131.967 145.865 128.357 144.915C127.957 144.805 127.737 144.375 127.907 143.995C128.727 142.035 131.157 136.415 133.917 131.815C132.297 135.945 130.187 142.345 131.987 143.975C133.577 145.425 136.807 146.125 139.197 146.455Z" fill="#4E8A77"/>
<path d="M139.197 128.855C139.197 128.855 139.707 125.905 140.927 126.175C143.217 126.685 150.087 140.925 150.087 140.925C150.087 140.925 143.717 130.845 142.097 129.545C140.477 128.255 139.197 128.855 139.197 128.855Z" fill="url(#paint6_linear_1_41792)"/>
<path d="M141.457 130.015C140.867 129.435 139.877 129.985 140.077 130.785C140.107 130.895 140.147 131.005 140.207 131.125C140.657 132.045 141.517 131.955 141.707 131.755C142.227 131.215 141.937 130.505 141.457 130.015Z" fill="#6CBE8F"/>
<path d="M142.627 131.925C142.337 131.635 141.837 131.905 141.937 132.305C141.947 132.365 141.967 132.415 141.997 132.475C142.217 132.935 142.657 132.885 142.747 132.785C143.007 132.515 142.867 132.155 142.617 131.915L142.627 131.925Z" fill="#6CBE8F"/>
<path d="M141.557 132.985C141.267 132.695 140.767 132.965 140.867 133.365C140.877 133.415 140.897 133.475 140.927 133.535C141.147 133.995 141.587 133.945 141.677 133.845C141.937 133.575 141.797 133.215 141.547 132.975L141.557 132.985Z" fill="#6CBE8F"/>
<path d="M141.817 141.345C142.347 141.975 143.387 141.515 143.257 140.695C143.237 140.585 143.207 140.465 143.157 140.345C142.787 139.395 141.917 139.405 141.707 139.595C141.147 140.085 141.367 140.825 141.807 141.345H141.817Z" fill="#6CBE8F"/>
<path d="M141.107 139.215C141.377 139.535 141.887 139.295 141.827 138.895C141.827 138.835 141.807 138.785 141.777 138.715C141.587 138.235 141.157 138.245 141.057 138.335C140.777 138.585 140.887 138.945 141.107 139.215Z" fill="#6CBE8F"/>
<path d="M143.487 140.295C143.757 140.615 144.267 140.375 144.207 139.975C144.207 139.915 144.187 139.865 144.157 139.795C143.967 139.315 143.537 139.325 143.437 139.415C143.157 139.665 143.267 140.025 143.487 140.295Z" fill="#6CBE8F"/>
<path d="M147.507 142.305C147.777 142.625 148.287 142.385 148.227 141.985C148.227 141.925 148.207 141.875 148.177 141.805C147.987 141.325 147.557 141.335 147.457 141.425C147.177 141.675 147.287 142.035 147.507 142.305Z" fill="#6CBE8F"/>
<path d="M138.717 136.705C138.857 136.865 139.117 136.745 139.087 136.535C139.087 136.505 139.077 136.475 139.067 136.445C138.967 136.205 138.747 136.205 138.697 136.255C138.557 136.385 138.607 136.575 138.727 136.705H138.717Z" fill="#6CBE8F"/>
<path d="M146.637 142.115C146.777 142.275 147.037 142.155 147.007 141.945C147.007 141.915 146.997 141.885 146.987 141.855C146.887 141.605 146.667 141.615 146.617 141.665C146.477 141.795 146.527 141.985 146.647 142.115H146.637Z" fill="#6CBE8F"/>
<path d="M138.427 137.895C138.667 138.175 139.127 137.965 139.077 137.605C139.077 137.555 139.057 137.505 139.037 137.445C138.867 137.015 138.477 137.025 138.387 137.105C138.137 137.325 138.237 137.655 138.437 137.895H138.427Z" fill="#6CBE8F"/>
<path d="M140.047 132.895C140.217 133.095 140.547 132.945 140.507 132.685C140.507 132.645 140.487 132.615 140.477 132.575C140.357 132.265 140.077 132.275 140.007 132.335C139.827 132.495 139.897 132.735 140.037 132.895H140.047Z" fill="#6CBE8F"/>
<path d="M126.247 160.545C126.117 161.925 125.717 164.025 124.567 166.195C124.517 166.285 124.467 166.375 124.417 166.465C123.817 167.545 123.017 168.625 121.967 169.645C121.887 169.725 121.817 169.795 121.737 169.865C120.787 170.745 119.647 171.575 118.267 172.285C118.157 172.345 118.047 172.395 117.937 172.455C115.787 173.515 113.077 174.315 109.687 174.665C109.567 174.675 109.457 174.685 109.337 174.695C109.187 174.705 109.047 174.725 108.897 174.735C107.887 174.815 106.807 174.855 105.667 174.855C105.347 174.855 105.037 174.855 104.727 174.845C104.607 174.845 104.487 174.845 104.367 174.845C103.457 174.815 102.587 174.765 101.757 174.675C101.647 174.665 101.537 174.655 101.427 174.635C100.147 174.495 98.9673 174.285 97.8873 174.025C97.7473 173.995 97.6073 173.955 97.4773 173.925C94.9173 173.265 92.8873 172.305 91.2673 171.185C91.1473 171.105 91.0373 171.025 90.9273 170.945C89.9873 170.255 89.1973 169.505 88.5273 168.735C88.4573 168.655 88.3873 168.575 88.3173 168.485C87.5473 167.545 86.9573 166.575 86.4973 165.625C86.4473 165.525 86.3973 165.415 86.3573 165.315C86.0273 164.575 85.7772 163.855 85.5872 163.175C85.3072 162.155 85.1673 161.245 85.0973 160.525H126.247V160.545Z" fill="url(#paint7_linear_1_41792)"/>
<path d="M87.4773 165.285C87.4773 165.285 90.5973 173.265 101.557 173.855C101.557 173.855 92.2273 171.825 89.3573 165.655L87.4673 165.295L87.4773 165.285Z" fill="url(#paint8_linear_1_41792)"/>
<g style="mix-blend-mode:multiply">
<path d="M95.1373 164.015C94.8773 164.875 94.1873 165.545 93.3973 165.915C92.3673 166.405 91.2073 166.415 90.0973 166.265C88.8873 166.105 87.7073 165.745 86.4873 165.635C86.4373 165.535 86.3873 165.425 86.3473 165.325C88.5073 165.465 90.6773 166.525 92.8173 165.825C93.7173 165.525 94.5773 164.865 94.8573 163.925C95.2073 162.765 94.6373 161.565 94.1473 160.535H94.4773C94.9873 161.605 95.4973 162.815 95.1473 164.005L95.1373 164.015Z" fill="#46137C"/>
</g>
<g style="mix-blend-mode:multiply">
<path d="M97.5173 162.215C96.9573 163.295 96.9773 164.585 97.4273 165.705C97.8973 166.865 98.8373 167.755 99.9673 168.265C102.537 169.425 105.417 168.585 107.657 167.085C109.077 166.135 110.297 164.935 111.497 163.725C111.627 163.585 111.427 163.375 111.287 163.515C109.357 165.455 107.287 167.455 104.577 168.225C102.257 168.885 99.3173 168.405 97.9873 166.175C97.3073 165.035 97.1473 163.565 97.7673 162.365C97.8573 162.195 97.5973 162.045 97.5073 162.215H97.5173Z" fill="#46137C"/>
</g>
<g style="mix-blend-mode:multiply">
<path d="M124.567 166.195C124.517 166.285 124.467 166.375 124.417 166.465C124.047 166.075 123.727 165.635 123.477 165.145C122.747 163.725 122.647 162.035 123.187 160.535H123.497C122.957 161.975 123.017 163.615 123.727 164.995C123.947 165.425 124.237 165.835 124.567 166.185V166.195Z" fill="#46137C"/>
</g>
<g style="mix-blend-mode:multiply">
<path d="M121.967 169.645C121.887 169.725 121.817 169.795 121.737 169.865C121.177 168.355 120.077 166.985 118.587 166.345C116.577 165.485 114.347 166.245 112.557 167.265C109.357 169.095 106.967 171.965 104.727 174.855C104.607 174.855 104.487 174.855 104.367 174.855C105.637 173.215 106.927 171.595 108.407 170.145C109.887 168.675 111.567 167.345 113.477 166.475C115.347 165.625 117.527 165.305 119.357 166.425C120.567 167.155 121.467 168.345 121.977 169.655L121.967 169.645Z" fill="#46137C"/>
</g>
<g style="mix-blend-mode:multiply">
<path d="M118.267 172.295C118.157 172.355 118.047 172.405 117.937 172.465V172.395C118.047 171.835 118.077 171.115 117.597 170.705C117.147 170.315 116.467 170.415 115.937 170.555C114.777 170.875 113.647 171.435 112.617 172.065C111.407 172.795 110.307 173.685 109.327 174.705C109.177 174.715 109.037 174.735 108.887 174.745C109.237 174.365 109.597 174.005 109.977 173.655C110.967 172.765 112.057 171.985 113.237 171.365C113.817 171.055 114.417 170.785 115.037 170.545C115.617 170.325 116.227 170.105 116.857 170.135C117.407 170.165 117.917 170.435 118.147 170.955C118.327 171.365 118.327 171.835 118.257 172.285L118.267 172.295Z" fill="#46137C"/>
</g>
<g style="mix-blend-mode:multiply">
<path d="M101.747 174.675C101.637 174.665 101.527 174.655 101.417 174.635C101.347 174.475 101.277 174.325 101.207 174.165C99.9873 171.635 97.8072 169.625 95.1172 168.745C92.9872 168.045 90.6373 168.045 88.5073 168.725C88.4373 168.645 88.3673 168.565 88.2973 168.475C89.2673 168.155 90.2873 167.965 91.3073 167.925C94.2873 167.805 97.2372 168.895 99.3372 171.015C100.367 172.055 101.187 173.305 101.737 174.655L101.747 174.675Z" fill="#46137C"/>
</g>
<g style="mix-blend-mode:multiply">
<path d="M97.8773 174.035C97.7373 174.005 97.5973 173.965 97.4673 173.935C96.8173 172.905 95.8773 172.075 94.7273 171.605C93.6373 171.155 92.4173 171.015 91.2573 171.205C91.1373 171.125 91.0273 171.045 90.9173 170.965C91.3373 170.875 91.7673 170.835 92.2073 170.835C94.2573 170.815 96.2373 171.745 97.4573 173.405C97.6073 173.615 97.7473 173.835 97.8773 174.055V174.035Z" fill="#46137C"/>
</g>
<g style="mix-blend-mode:multiply">
<path d="M126.247 160.545C125.897 164.285 123.597 173.225 109.687 174.665C115.897 173.175 118.437 169.615 105.947 167.705C96.9673 166.325 88.9273 164.565 85.5773 163.195C85.2973 162.185 85.1572 161.265 85.0872 160.545H126.237H126.247Z" fill="#46137C"/>
</g>
<path d="M127.977 156.065H83.9073V160.415H127.977V156.065Z" fill="url(#paint9_linear_1_41792)"/>
<path d="M127.977 160.415C127.977 162.705 118.107 164.565 105.937 164.565C93.7673 164.565 83.8973 162.705 83.8973 160.415C83.8973 158.125 93.7673 156.265 105.937 156.265C118.107 156.265 127.977 158.125 127.977 160.415Z" fill="url(#paint10_linear_1_41792)"/>
<path d="M127.977 156.065C127.977 158.855 118.067 160.545 105.897 160.545C93.7273 160.545 83.9073 158.865 83.9073 156.065C83.9073 153.265 93.7773 151.005 105.947 151.005C118.117 151.005 127.987 153.265 127.987 156.065H127.977Z" fill="url(#paint11_linear_1_41792)"/>
<path d="M125.927 155.925C125.927 157.025 116.947 157.685 105.917 157.685C94.8873 157.685 85.9873 157.025 85.9873 155.925C85.9873 154.825 94.9273 153.935 105.957 153.935C116.987 153.935 125.927 154.825 125.927 155.925Z" fill="url(#paint12_linear_1_41792)"/>
<path d="M125.077 156.125C124.967 156.445 124.697 156.705 124.347 156.795C112.067 160.065 99.7873 160.025 87.5073 156.795C86.8773 156.625 86.5373 155.945 86.7873 155.345C88.7673 150.625 96.6773 132.435 103.257 127.105C103.757 126.695 104.247 126.365 104.737 126.125C105.007 125.985 105.267 125.875 105.527 125.795C105.777 125.715 106.057 125.715 106.307 125.795C112.107 127.605 119.837 143.535 123.477 151.695C124.167 153.245 124.707 154.505 125.057 155.355C125.167 155.615 125.167 155.895 125.077 156.135V156.125Z" fill="#D63770"/>
<path d="M124.347 156.795C112.067 160.065 99.7873 160.025 87.5073 156.795C86.8773 156.625 86.5373 155.945 86.7873 155.345C88.9173 150.265 97.9173 129.595 104.737 126.115C104.667 126.215 99.8773 139.445 102.587 146.315C105.877 154.635 119.187 155.525 123.467 151.695C124.157 153.245 124.697 154.505 125.047 155.355C125.297 155.955 124.967 156.635 124.337 156.805L124.347 156.795Z" fill="#A51357"/>
<path d="M125.077 156.125C124.967 156.445 124.697 156.705 124.347 156.795C117.747 158.555 111.147 159.355 104.547 159.215C98.8673 159.095 93.1873 158.285 87.5073 156.785C86.8773 156.615 86.5373 155.935 86.7873 155.335C88.0773 152.255 91.9073 143.425 96.2373 136.185C98.5373 132.335 100.977 128.945 103.267 127.085C100.767 131.315 93.6573 144.195 96.3073 149.495C99.3473 155.565 113.847 157.845 125.087 156.115L125.077 156.125Z" fill="#8B0049"/>
<path d="M104.547 159.225C98.8673 159.105 93.1873 158.295 87.5073 156.795C86.8773 156.625 86.5373 155.945 86.7873 155.345C88.0773 152.265 91.9073 143.435 96.2373 136.195C93.6873 142.685 90.3773 152.745 93.2073 155.315C95.7073 157.595 100.787 158.695 104.547 159.225Z" fill="#6F0035"/>
<path d="M104.547 131.555C104.547 131.555 105.357 126.915 107.267 127.345C110.877 128.145 121.667 150.535 121.667 150.535C121.667 150.535 111.647 134.685 109.107 132.655C106.567 130.625 104.547 131.565 104.547 131.565V131.555Z" fill="url(#paint13_linear_1_41792)"/>
<path d="M108.097 133.385C107.177 132.465 105.617 133.335 105.927 134.595C105.967 134.765 106.037 134.945 106.127 135.135C106.837 136.575 108.187 136.435 108.497 136.125C109.307 135.285 108.867 134.155 108.107 133.395L108.097 133.385Z" fill="#A51357"/>
<path d="M109.947 136.385C109.487 135.925 108.707 136.355 108.867 136.985C108.887 137.075 108.917 137.165 108.967 137.255C109.317 137.975 109.997 137.905 110.147 137.745C110.557 137.325 110.327 136.765 109.947 136.375V136.385Z" fill="#A51357"/>
<path d="M108.257 138.045C107.797 137.585 107.017 138.015 107.177 138.645C107.197 138.735 107.227 138.825 107.277 138.915C107.627 139.635 108.307 139.565 108.457 139.405C108.867 138.985 108.637 138.425 108.257 138.035V138.045Z" fill="#A51357"/>
<path d="M108.677 151.205C109.517 152.195 111.137 151.465 110.937 150.185C110.907 150.005 110.857 149.825 110.787 149.635C110.207 148.135 108.847 148.165 108.517 148.455C107.637 149.225 107.987 150.385 108.677 151.205Z" fill="#A51357"/>
<path d="M107.557 147.845C107.977 148.345 108.787 147.975 108.687 147.335C108.677 147.245 108.647 147.155 108.607 147.055C108.317 146.305 107.637 146.315 107.467 146.465C107.027 146.855 107.197 147.435 107.547 147.845H107.557Z" fill="#A51357"/>
<path d="M111.297 149.545C111.717 150.045 112.527 149.675 112.427 149.035C112.417 148.945 112.387 148.855 112.347 148.755C112.057 148.005 111.377 148.015 111.207 148.165C110.767 148.555 110.937 149.135 111.287 149.545H111.297Z" fill="#A51357"/>
<path d="M117.607 152.705C118.027 153.205 118.837 152.835 118.737 152.195C118.727 152.105 118.697 152.015 118.657 151.915C118.367 151.165 117.687 151.175 117.517 151.325C117.077 151.715 117.247 152.295 117.597 152.705H117.607Z" fill="#A51357"/>
<path d="M103.797 143.895C104.017 144.145 104.427 143.965 104.377 143.635C104.377 143.585 104.357 143.545 104.337 143.495C104.187 143.105 103.837 143.115 103.747 143.195C103.517 143.395 103.607 143.695 103.787 143.905L103.797 143.895Z" fill="#A51357"/>
<path d="M116.257 152.415C116.477 152.675 116.887 152.485 116.837 152.155C116.837 152.105 116.817 152.065 116.797 152.015C116.647 151.625 116.297 151.635 116.207 151.715C115.977 151.915 116.067 152.215 116.247 152.425L116.257 152.415Z" fill="#A51357"/>
<path d="M103.347 145.765C103.727 146.215 104.457 145.885 104.367 145.305C104.357 145.225 104.337 145.145 104.297 145.055C104.037 144.385 103.427 144.395 103.277 144.525C102.887 144.875 103.037 145.395 103.347 145.765Z" fill="#A51357"/>
<path d="M105.887 137.915C106.157 138.235 106.677 137.995 106.617 137.585C106.617 137.525 106.597 137.465 106.567 137.405C106.377 136.925 105.947 136.935 105.837 137.025C105.557 137.275 105.667 137.645 105.887 137.915Z" fill="#A51357"/>
<defs>
<filter id="filter0_d_1_41792" x="26.7992" y="26.7991" width="173.54" height="173.54" filterUnits="userSpaceOnUse" color-interpolation-filters="sRGB">
<feFlood flood-opacity="0" result="BackgroundImageFix"/>
<feColorMatrix in="SourceAlpha" type="matrix" values="0 0 0 0 0 0 0 0 0 0 0 0 0 0 0 0 0 0 127 0" result="hardAlpha"/>
<feOffset dx="5" dy="5"/>
<feGaussianBlur stdDeviation="5"/>
<feColorMatrix type="matrix" values="0 0 0 0 0.447059 0 0 0 0 0.313726 0 0 0 0 0.737255 0 0 0 0.55 0"/>
<feBlend mode="normal" in2="BackgroundImageFix" result="effect1_dropShadow_1_41792"/>
<feBlend mode="normal" in="SourceGraphic" in2="effect1_dropShadow_1_41792" result="shape"/>
</filter>
<linearGradient id="paint0_linear_1_41792" x1="139.977" y1="145.195" x2="139.737" y2="152.525" gradientUnits="userSpaceOnUse">
<stop stop-color="#7171FA"/>
<stop offset="1" stop-color="#4B24D9"/>
</linearGradient>
<linearGradient id="paint1_linear_1_41792" x1="127.217" y1="142.645" x2="136.817" y2="160.505" gradientUnits="userSpaceOnUse">
<stop stop-color="#7171FA"/>
<stop offset="1" stop-color="#4B24D9"/>
</linearGradient>
<linearGradient id="paint2_linear_1_41792" x1="140.367" y1="142.355" x2="139.867" y2="148.385" gradientUnits="userSpaceOnUse">
<stop stop-color="#7171FA"/>
<stop offset="1" stop-color="#4B24D9"/>
</linearGradient>
<linearGradient id="paint3_linear_1_41792" x1="140.477" y1="142.365" x2="139.987" y2="148.395" gradientUnits="userSpaceOnUse">
<stop stop-color="#7171FA"/>
<stop offset="1" stop-color="#4B24D9"/>
</linearGradient>
<linearGradient id="paint4_linear_1_41792" x1="140.227" y1="146.635" x2="140.717" y2="153.615" gradientUnits="userSpaceOnUse">
<stop stop-color="#7171FA"/>
<stop offset="1" stop-color="#4B24D9"/>
</linearGradient>
<linearGradient id="paint5_linear_1_41792" x1="140.117" y1="142.775" x2="140.077" y2="145.275" gradientUnits="userSpaceOnUse">
<stop stop-color="#7171FA"/>
<stop offset="1" stop-color="#4B24D9"/>
</linearGradient>
<linearGradient id="paint6_linear_1_41792" x1="140.887" y1="126.045" x2="148.787" y2="144.665" gradientUnits="userSpaceOnUse">
<stop stop-color="#A2FFC9"/>
<stop offset="1" stop-color="#80E19F"/>
</linearGradient>
<linearGradient id="paint7_linear_1_41792" x1="105.777" y1="157.245" x2="105.397" y2="168.765" gradientUnits="userSpaceOnUse">
<stop stop-color="#7171FA"/>
<stop offset="1" stop-color="#4B24D9"/>
</linearGradient>
<linearGradient id="paint8_linear_1_41792" x1="85.7173" y1="153.245" x2="100.817" y2="181.315" gradientUnits="userSpaceOnUse">
<stop stop-color="#7171FA"/>
<stop offset="1" stop-color="#4B24D9"/>
</linearGradient>
<linearGradient id="paint9_linear_1_41792" x1="106.387" y1="152.785" x2="105.607" y2="162.265" gradientUnits="userSpaceOnUse">
<stop stop-color="#7171FA"/>
<stop offset="1" stop-color="#4B24D9"/>
</linearGradient>
<linearGradient id="paint10_linear_1_41792" x1="106.557" y1="152.795" x2="105.787" y2="162.285" gradientUnits="userSpaceOnUse">
<stop stop-color="#7171FA"/>
<stop offset="1" stop-color="#4B24D9"/>
</linearGradient>
<linearGradient id="paint11_linear_1_41792" x1="106.177" y1="159.515" x2="106.937" y2="170.485" gradientUnits="userSpaceOnUse">
<stop stop-color="#7171FA"/>
<stop offset="1" stop-color="#4B24D9"/>
</linearGradient>
<linearGradient id="paint12_linear_1_41792" x1="105.997" y1="153.435" x2="105.927" y2="157.375" gradientUnits="userSpaceOnUse">
<stop stop-color="#7171FA"/>
<stop offset="1" stop-color="#4B24D9"/>
</linearGradient>
<linearGradient id="paint13_linear_1_41792" x1="106.877" y1="118.345" x2="119.787" y2="165.395" gradientUnits="userSpaceOnUse">
<stop stop-color="#DE809A"/>
<stop offset="1" stop-color="#D63770"/>
</linearGradient>
</defs>
</svg>
