<svg width="217" height="189" viewBox="0 0 217 189" fill="none" xmlns="http://www.w3.org/2000/svg">
<g filter="url(#filter0_d_1_41111)">
<path d="M200.25 109.359C207.204 67.5347 178.935 27.9917 137.111 21.0377C95.286 14.0836 55.7429 42.3519 48.7889 84.1766C41.8349 126.001 70.1031 165.544 111.928 172.498C153.753 179.452 193.296 151.184 200.25 109.359Z" fill="white"/>
</g>
<g style="mix-blend-mode:multiply">
<path d="M200.25 109.359C207.204 67.5347 178.935 27.9917 137.111 21.0377C95.286 14.0836 55.7429 42.3519 48.7889 84.1766C41.8349 126.001 70.1031 165.544 111.928 172.498C153.753 179.452 193.296 151.184 200.25 109.359Z" fill="#066767"/>
</g>
<path d="M81.9733 69.7608C81.9733 70.7226 82.2137 71.6042 82.6946 72.4057C83.1755 73.1671 83.4159 73.7882 83.4159 74.2691C83.4159 74.7099 83.2957 75.1106 83.0553 75.4713C82.8549 75.8319 82.5744 76.0123 82.2137 76.0123C81.5325 76.0123 80.9714 75.4312 80.5306 74.2691C80.0898 73.1069 79.8694 71.8847 79.8694 70.6024C79.8694 68.6788 80.5707 66.9557 81.9733 65.4329C83.4159 63.9101 85.2392 63.1487 87.4433 63.1487C88.926 63.1487 90.028 63.87 90.7493 65.3127C91.5107 66.7152 91.8914 68.3182 91.8914 70.1215C91.8914 71.9248 91.8313 73.6279 91.7111 75.2308C91.6309 76.7937 91.5508 78.0159 91.4707 78.8975C91.3905 79.7391 91.2302 81.1016 90.9898 82.985C90.7493 84.8284 90.589 86.1107 90.5089 86.8321C93.7148 86.8321 97.0809 85.2091 100.607 81.9632C101.088 76.1926 101.749 71.6843 102.591 68.4384C103.473 65.1524 104.354 62.8482 105.236 61.5257C106.117 60.2033 107.059 59.5421 108.061 59.5421C109.103 59.5421 109.944 60.003 110.586 60.9246C111.267 61.8463 111.608 62.9484 111.608 64.2307C111.608 68.9594 109.504 74.0687 105.296 79.5588C105.056 82.7245 104.935 85.6499 104.935 88.3348C104.935 90.9797 105.316 93.5644 106.077 96.089C106.879 98.5735 107.28 99.9561 107.28 100.237C107.28 100.557 107.059 100.798 106.618 100.958C106.178 101.158 105.697 101.258 105.176 101.258C103.773 101.258 102.631 100.898 101.749 100.176C101.309 99.8158 100.948 98.5936 100.667 96.5098C100.387 94.426 100.247 92.4824 100.247 90.6791C100.247 88.8357 100.307 86.8521 100.427 84.7282C96.8605 87.7738 93.4743 89.3567 90.2685 89.4769C90.2284 90.0379 90.1883 90.9797 90.1482 92.3021C90.1082 93.5844 90.048 94.5462 89.9679 95.1874C89.8878 95.7885 89.7275 96.4897 89.487 97.2912C89.0863 98.7739 88.1245 99.5153 86.6017 99.5153C85.6801 99.5153 85.2192 98.7338 85.2192 97.171C85.2192 95.568 85.4597 92.803 85.9405 88.8758C84.1372 88.1144 83.2356 86.772 83.2356 84.8484C83.2356 83.4459 83.5962 82.2637 84.3176 81.3019C85.0389 80.3001 85.9205 79.7992 86.9624 79.7992C87.3231 76.1124 87.5034 73.2672 87.5034 71.2636C87.5034 67.657 86.9424 65.8537 85.8203 65.8537C83.2556 65.8537 81.9733 67.1561 81.9733 69.7608ZM109.684 65.2526C109.684 64.6515 109.584 64.1105 109.383 63.6296C109.223 63.1086 109.003 62.8482 108.722 62.8482C107.6 62.8482 106.578 67.1961 105.657 75.892C108.342 71.8046 109.684 68.2581 109.684 65.2526ZM86.7821 81.7227C86.221 82.1234 85.9405 82.6644 85.9405 83.3457C85.9405 84.0269 86.1008 84.588 86.4214 85.0288L86.7821 81.7227ZM129.809 86.1709C131.412 85.6499 132.514 85.2091 133.115 84.8484C133.756 84.4477 134.237 84.1471 134.558 83.9468L135.279 83.526C135.479 83.4058 135.64 83.3457 135.76 83.3457C136.081 83.3457 136.241 83.526 136.241 83.8867C136.241 84.2473 135.62 84.8885 134.377 85.8102C133.135 86.6918 131.592 87.4933 129.749 88.2146C129.468 91.5808 128.407 94.3057 126.563 96.3896C124.72 98.4734 122.095 99.5153 118.689 99.5153C116.204 99.5153 114.301 98.5335 112.978 96.5699C111.656 94.5662 110.995 92.242 110.995 89.5971C110.995 86.9122 111.776 84.3876 113.339 82.0233C114.942 79.6589 116.986 78.4768 119.47 78.4768C120.592 77.6753 121.915 77.2746 123.437 77.2746C125 77.2746 126.443 78.0961 127.765 79.7391C129.088 81.3821 129.769 83.526 129.809 86.1709ZM125.902 89.2365L123.738 89.3567C121.895 89.3567 120.332 88.8157 119.049 87.7337C117.767 86.6117 117.126 85.3894 117.126 84.067C117.126 82.7446 117.346 81.6025 117.787 80.6407C116.064 82.0032 115.202 84.6881 115.202 88.6955C115.202 90.619 115.603 92.4624 116.405 94.2256C117.206 95.9487 118.468 96.8103 120.191 96.8103C121.915 96.8103 123.257 96.089 124.219 94.6464C125.181 93.1636 125.742 91.3603 125.902 89.2365ZM122.175 79.2582C121.534 79.2582 121.033 79.5588 120.672 80.1599C120.312 80.7209 120.131 81.342 120.131 82.0233C120.131 83.506 120.632 84.7082 121.634 85.6299C122.676 86.5515 123.878 87.0124 125.241 87.0124H125.962C125.882 85.0488 125.541 83.2655 124.94 81.6626C124.379 80.0597 123.457 79.2582 122.175 79.2582ZM137.278 99.5153C136.397 99.5153 135.575 99.4151 134.814 99.2147C134.092 98.9743 133.652 98.7539 133.491 98.5535C133.091 98.0726 132.89 95.5881 132.89 91.0999C132.89 86.5716 133.391 80.4404 134.393 72.7062C135.234 66.3346 137.198 63.1487 140.284 63.1487C141.005 63.1487 141.526 63.5495 141.847 64.3509C142.167 65.1123 142.327 65.8537 142.327 66.575C142.327 71.7845 140.745 77.6152 137.579 84.067C137.459 87.3931 137.398 90.2984 137.398 92.783C137.398 95.2274 137.619 96.4497 138.06 96.4497C138.741 96.4096 139.683 95.568 140.885 93.925C142.087 92.242 143.269 90.098 144.431 87.4933C145.634 84.8885 146.355 83.5861 146.595 83.5861C146.876 83.5861 147.016 83.7464 147.016 84.067C147.016 85.1891 146.435 86.9723 145.273 89.4168C142.107 96.1491 139.442 99.5153 137.278 99.5153ZM140.825 67.116C140.825 65.8336 140.664 65.1925 140.344 65.1925C139.142 65.1925 138.26 70.1816 137.699 80.1599C139.783 74.6698 140.825 70.3218 140.825 67.116ZM145.622 69.8209C145.622 69.0996 146.002 68.4785 146.764 67.9575C147.525 67.4366 148.207 67.1761 148.808 67.1761C149.89 67.1761 150.431 67.7972 150.431 69.0395C150.431 70.2818 150.11 71.3638 149.469 72.2854C148.828 73.1671 147.926 73.6079 146.764 73.6079C146.002 73.6079 145.622 72.3455 145.622 69.8209ZM147.365 99.5153C145.802 99.5153 144.62 99.1947 143.818 98.5535C143.538 98.273 143.398 97.2712 143.398 95.548C143.398 93.8249 143.518 90.9596 143.758 86.9523C144.039 82.9049 144.279 80.7209 144.48 80.4003C144.68 80.0797 145.301 79.4786 146.343 78.597C147.385 77.7154 148.186 77.2746 148.747 77.2746C149.349 77.2746 149.649 78.036 149.649 79.5588C149.649 79.9595 149.529 80.7409 149.288 81.903C149.088 83.0652 148.848 83.9067 148.567 84.4277C148.046 85.7501 147.786 89.2164 147.786 94.8267C147.786 95.9087 147.906 96.4497 148.146 96.4497C148.828 96.4096 149.769 95.568 150.972 93.925C152.174 92.242 153.356 90.098 154.518 87.4933C155.72 84.8885 156.442 83.5861 156.682 83.5861C156.963 83.5861 157.103 83.7464 157.103 84.067C157.103 85.1891 156.522 86.9723 155.36 89.4168C152.194 96.1491 149.529 99.5153 147.365 99.5153Z" fill="white"/>
<path d="M148.646 118.859V120.971H145.31V122.147H147.71V124.151H145.31V127.355H142.646V118.859H148.646ZM152.212 120.983V122.027H154.852V124.031H152.212V125.231H155.212V127.355H149.548V118.859H155.212V120.983H152.212ZM159.54 127.439C158.524 127.439 157.684 127.203 157.02 126.731C156.364 126.251 156.008 125.551 155.952 124.631H158.784C158.824 125.119 159.04 125.363 159.432 125.363C159.576 125.363 159.696 125.331 159.792 125.267C159.896 125.195 159.948 125.087 159.948 124.943C159.948 124.743 159.84 124.583 159.624 124.463C159.408 124.335 159.072 124.191 158.616 124.031C158.072 123.839 157.62 123.651 157.26 123.467C156.908 123.283 156.604 123.015 156.348 122.663C156.092 122.311 155.968 121.859 155.976 121.307C155.976 120.755 156.116 120.287 156.396 119.903C156.684 119.511 157.072 119.215 157.56 119.015C158.056 118.815 158.612 118.715 159.228 118.715C160.268 118.715 161.092 118.955 161.7 119.435C162.316 119.915 162.64 120.591 162.672 121.463H159.804C159.796 121.223 159.736 121.051 159.624 120.947C159.512 120.843 159.376 120.791 159.216 120.791C159.104 120.791 159.012 120.831 158.94 120.911C158.868 120.983 158.832 121.087 158.832 121.223C158.832 121.415 158.936 121.575 159.144 121.703C159.36 121.823 159.7 121.971 160.164 122.147C160.7 122.347 161.14 122.539 161.484 122.723C161.836 122.907 162.14 123.163 162.396 123.491C162.652 123.819 162.78 124.231 162.78 124.727C162.78 125.247 162.652 125.715 162.396 126.131C162.14 126.539 161.768 126.859 161.28 127.091C160.792 127.323 160.212 127.439 159.54 127.439ZM170.388 118.859V120.971H168.132V127.355H165.468V120.971H163.236V118.859H170.388ZM173.775 118.859V127.355H171.111V118.859H173.775ZM183.534 118.859L180.678 127.355H177.234L174.378 118.859H177.21L178.962 124.703L180.702 118.859H183.534ZM189.578 126.071H186.746L186.326 127.355H183.53L186.638 118.859H189.71L192.806 127.355H189.998L189.578 126.071ZM188.93 124.067L188.162 121.703L187.394 124.067H188.93ZM196.076 125.339H198.644V127.355H193.412V118.859H196.076V125.339Z" fill="#E86097"/>
<path d="M160.736 63.9687V72.4647H158.072V69.1527H155.54V72.4647H152.876V63.9687H155.54V67.0287H158.072V63.9687H160.736ZM167.383 71.1807H164.551L164.131 72.4647H161.335L164.443 63.9687H167.515L170.611 72.4647H167.803L167.383 71.1807ZM166.735 69.1767L165.967 66.8127L165.199 69.1767H166.735ZM178.164 66.8847C178.164 67.4207 178.04 67.9087 177.792 68.3487C177.544 68.7807 177.176 69.1247 176.688 69.3807C176.208 69.6367 175.624 69.7647 174.936 69.7647H173.88V72.4647H171.216V63.9687H174.936C175.976 63.9687 176.772 64.2327 177.324 64.7607C177.884 65.2887 178.164 65.9967 178.164 66.8847ZM174.636 67.6647C175.188 67.6647 175.464 67.4047 175.464 66.8847C175.464 66.3647 175.188 66.1047 174.636 66.1047H173.88V67.6647H174.636ZM185.957 66.8847C185.957 67.4207 185.833 67.9087 185.585 68.3487C185.337 68.7807 184.969 69.1247 184.481 69.3807C184.001 69.6367 183.417 69.7647 182.729 69.7647H181.673V72.4647H179.009V63.9687H182.729C183.769 63.9687 184.565 64.2327 185.117 64.7607C185.677 65.2887 185.957 65.9967 185.957 66.8847ZM182.429 67.6647C182.981 67.6647 183.257 67.4047 183.257 66.8847C183.257 66.3647 182.981 66.1047 182.429 66.1047H181.673V67.6647H182.429ZM194.962 63.9687L191.914 69.8847V72.4647H189.25V69.8847L186.202 63.9687H189.25L190.606 66.9807L191.962 63.9687H194.962Z" fill="#E86097"/>
<path d="M139.046 49.1847C137.596 48.8347 136.326 50.9847 136.116 52.1147C135.896 53.2447 136.896 54.4347 138.346 54.7847C139.796 55.1347 141.146 54.5047 141.366 53.3747C141.586 52.2447 140.506 49.5347 139.056 49.1847H139.046Z" fill="#EDBB2C"/>
<path d="M122.196 30.1747C122.506 29.1047 119.926 27.3847 118.536 26.9647C117.146 26.5547 115.776 27.0847 115.466 28.1547C115.156 29.2247 116.036 30.4247 117.426 30.8347C118.816 31.2447 121.886 31.2447 122.196 30.1747Z" fill="#EDBB2C"/>
<path d="M141.036 8.66472C137.586 9.48472 135.246 11.7547 134.356 14.5747C133.846 16.1747 131.676 17.1247 129.526 16.6147C126.946 16.0047 124.356 16.6047 123.186 18.3147C122.796 18.8847 122.496 19.5147 122.296 20.1947C121.656 22.4347 122.266 24.8147 123.776 26.9147C124.846 28.4047 124.996 30.1147 124.296 31.5247C124.026 32.0647 123.836 32.6547 123.726 33.2747C122.986 37.5847 126.856 42.2047 132.356 43.5947C132.606 43.6547 132.856 43.7147 133.106 43.7647C133.106 43.7847 133.096 43.8147 133.086 43.8347C132.826 45.1947 134.026 46.6347 135.776 47.0547C136.446 47.2147 137.096 47.2047 137.656 47.0547C138.746 46.7547 140.086 47.1647 140.886 47.9947C141.806 48.9547 142.896 49.8047 144.126 50.5047C144.876 50.9347 145.526 51.4847 145.996 52.1147C146.756 53.1247 147.986 53.9447 149.466 54.3047C152.226 54.9747 154.796 53.7747 155.216 51.6247C155.226 51.5647 155.236 51.4947 155.236 51.4347C156.026 51.5047 156.836 51.6547 157.626 51.8747C157.756 51.9147 157.896 51.9447 158.036 51.9847C159.136 52.2547 160.226 52.3747 161.266 52.3447C162.726 52.3047 164.206 52.8347 165.336 53.7447C165.846 54.1647 166.486 54.4947 167.196 54.6947C169.256 55.2647 171.336 54.4847 171.866 52.9347C172.456 51.2347 171.066 49.2647 168.836 48.6047C168.676 48.5547 168.516 48.5247 168.366 48.4847C168.416 48.3747 168.476 48.2647 168.516 48.1547C169.066 46.8547 169.106 45.4747 168.736 44.1547C167.926 41.2747 168.526 38.3947 170.536 36.2747C171.866 34.8747 172.846 33.2247 173.386 31.3647C175.846 22.8147 168.016 12.9447 155.896 9.33472C150.636 7.76472 145.436 7.63472 141.026 8.68472L141.036 8.66472Z" fill="#EDBB2C"/>
<path d="M159.146 57.8847C158.996 58.4247 159.436 59.0247 160.126 59.2347C160.816 59.4447 161.516 59.1747 161.666 58.6447C161.816 58.1147 161.376 57.5047 160.686 57.2947C159.986 57.0847 159.296 57.3547 159.146 57.8947V57.8847Z" fill="#EDBB2C"/>
<path d="M20.4359 129.305C24.4059 128.855 27.4059 130.415 31.6459 130.305C37.9659 130.125 38.5859 128.055 38.3959 126.815C38.1559 125.265 39.2559 123.385 44.8959 122.515C51.3659 121.525 60.3359 122.405 62.7759 124.235C63.6459 124.885 63.6759 125.595 64.4359 126.255C65.1859 126.915 67.0159 127.575 69.6559 127.665C71.6559 127.725 73.5659 127.445 75.1559 127.125C76.7459 126.805 78.2559 126.435 80.1659 126.265C82.0759 126.095 84.5659 126.215 85.4459 126.685C86.0359 126.995 85.7559 127.375 85.3159 127.695C84.7359 128.125 83.8659 128.525 83.6059 128.975C82.6459 130.585 90.8359 130.745 95.0959 130.805C99.2159 130.865 103.466 131.105 106.626 131.795C109.786 132.485 111.496 133.695 109.776 134.665C108.316 135.485 104.966 135.935 102.096 136.445C99.2259 136.955 96.4159 137.755 97.0359 138.635C97.4559 139.235 99.2959 139.675 100.736 140.155C103.786 141.175 105.106 142.625 102.906 143.775C100.706 144.925 94.3459 145.515 90.3759 144.735C89.1259 144.495 88.2059 144.145 86.8959 143.925C84.1259 143.455 80.2759 143.665 77.6159 144.175C74.9559 144.685 73.1659 145.435 71.2759 146.145C67.5759 147.525 62.6459 148.875 56.2159 149.095C50.3059 149.295 44.1059 148.355 41.8759 146.925C40.0259 145.745 40.1259 144.125 35.6459 143.585C30.7159 142.995 25.6459 144.355 20.2959 144.595C15.9859 144.795 11.3159 144.155 9.5159 143.125C6.6059 141.475 11.4159 140.095 15.7259 139.065C17.0859 138.735 18.4859 138.395 19.1659 137.955C19.8459 137.505 19.5559 136.925 18.0159 136.655C16.5259 136.395 14.5559 136.515 12.7759 136.575C8.6159 136.705 0.755899 136.585 0.0458993 135.185C-0.254101 134.585 0.945899 133.965 2.7859 133.585C6.0359 132.915 10.3859 133.265 14.1459 133.085C21.1959 132.745 17.6859 131.535 18.1859 130.275C18.3759 129.775 19.2559 129.435 20.4859 129.295L20.4359 129.305Z" fill="#8B29EC"/>
<path d="M28.3359 128.545C33.8559 128.335 36.5559 124.915 29.1359 125.155C22.1259 125.385 20.5359 128.855 28.3359 128.545Z" fill="#8B29EC"/>
<path d="M81.4259 148.695C82.2259 148.665 83.0359 148.625 83.7859 148.555C89.9459 147.935 89.3259 144.865 81.9359 145.425C76.0159 145.865 72.4659 148.985 81.4259 148.695Z" fill="#8B29EC"/>
<path d="M20.6559 147.165C20.3759 147.605 20.6259 148.065 21.5559 148.445C25.2459 149.925 32.2859 148.585 33.4459 147.325C34.6759 145.995 32.2859 144.295 26.1759 145.275C24.1159 145.605 22.2659 146.055 21.2659 146.635C20.9759 146.805 20.7659 146.985 20.6459 147.165H20.6559Z" fill="#8B29EC"/>
<path d="M63.5459 72.2447C62.3459 68.8147 58.4959 67.1247 55.1559 68.5647C53.9859 69.0647 52.9859 69.4847 52.5159 69.6547C51.0259 70.1747 49.5459 70.6147 48.1259 70.9547C46.7459 71.2747 45.3759 71.3947 44.6459 71.3947C44.5559 71.3947 44.4559 71.4147 44.3659 71.4047C44.2859 71.3747 44.1959 71.3547 44.1059 71.3447C44.0159 71.3147 43.9259 71.3447 43.8059 71.2747L43.4459 71.0947C43.3259 71.0347 43.1959 70.9847 43.0659 70.9047L42.6659 70.6147C42.3959 70.4347 42.1259 70.2447 41.8559 69.9847C40.7559 69.0547 39.6859 67.8247 38.6859 66.5247C36.6759 63.9147 34.8559 60.9247 33.2759 57.9047C33.2759 57.9047 34.9259 54.9447 34.8159 54.0247C34.7059 53.1047 33.7059 54.7047 33.1659 55.2947C32.6259 55.8847 31.9359 54.6347 32.0759 52.8647C32.2159 51.0847 32.2759 50.4147 31.9459 50.6147C31.6059 50.8247 31.1659 52.6947 31.2159 53.0747C31.2659 53.4647 30.4159 50.9047 30.2359 50.4547C30.0559 50.0047 29.9059 51.8647 30.1359 52.6647C30.3659 53.4647 30.2359 53.6347 30.2359 53.6347C30.2359 53.6347 29.0359 51.2547 28.7059 51.0047C28.3759 50.7547 29.4259 54.2347 29.4259 54.2347C29.4259 54.2347 28.2759 52.2547 28.0259 52.4247C27.7759 52.5947 29.6359 58.1847 30.7859 58.7247C31.5159 62.2847 32.4459 65.7347 33.8159 69.2347C34.5059 70.9747 35.2959 72.7247 36.4259 74.4747C36.6859 74.9147 37.0159 75.3547 37.3559 75.7947L37.8659 76.4547C38.0559 76.6747 38.2759 76.8847 38.4959 77.1047L39.1559 77.7547C39.3759 77.9647 39.6959 78.1747 39.9659 78.3747C40.0259 78.4147 40.0859 78.4647 40.1459 78.5047C40.5659 78.8047 41.3059 79.2147 41.7759 79.4347C42.0959 79.5747 42.4259 79.7147 42.7559 79.8547C43.0659 79.9647 43.3459 80.0347 43.6459 80.1247C44.2459 80.2947 44.8559 80.4647 45.3859 80.5447C45.9259 80.6347 46.5259 80.7647 47.0459 80.8047L48.6359 80.9547C50.6959 81.0747 52.6859 81.0547 54.6259 80.9547C55.2859 80.9147 56.7559 80.7447 58.4359 80.5247C62.3859 80.0147 64.8659 76.0147 63.5559 72.2547L63.5459 72.2447Z" fill="#F0C3C1"/>
<g style="mix-blend-mode:multiply" opacity="0.5">
<path d="M44.9059 71.3947C44.4259 72.3147 42.9259 75.2147 42.7159 76.3247C42.5059 77.4347 40.2659 77.5047 37.8359 76.4147L37.8659 76.4547C38.0559 76.6747 38.2759 76.8847 38.4959 77.1047L39.1559 77.7547C39.3759 77.9647 39.6959 78.1747 39.9659 78.3747C40.0259 78.4147 40.0859 78.4647 40.1459 78.5047C40.5659 78.8047 41.3059 79.2147 41.7759 79.4347C42.0959 79.5747 42.4259 79.7147 42.7559 79.8547C43.0659 79.9647 43.3459 80.0347 43.6459 80.1247C44.2459 80.2947 44.8559 80.4647 45.3859 80.5447C45.9259 80.6347 46.5259 80.7647 47.0459 80.8047L48.6359 80.9547C48.9259 80.9747 49.2159 80.9847 49.5059 80.9947C49.9659 80.3847 50.2559 79.9447 50.2559 79.9447V71.4647L49.4159 70.6447C48.9859 70.7647 48.5559 70.8747 48.1359 70.9747C46.9059 71.2547 45.6759 71.3847 44.9059 71.4047V71.3947Z" fill="#F0C3C1"/>
</g>
<path d="M108.876 56.0347C108.396 55.7647 107.256 58.5547 107.256 58.5547C107.256 58.5547 107.416 57.7347 107.346 56.2247C107.276 54.7147 106.476 54.4647 106.616 56.2447C106.756 58.0247 105.246 60.0047 105.106 59.5247C104.966 59.0447 104.896 55.8347 104.356 57.1947C103.816 58.5547 103.526 61.0347 103.526 61.0347C101.266 63.5547 98.3459 65.7247 95.7559 67.7447C94.4659 68.7547 93.1359 69.6847 91.8459 70.3147C91.5259 70.5047 91.2059 70.6147 90.9059 70.7347L90.4559 70.9147C90.3159 70.9547 90.1759 70.9747 90.0459 71.0047L89.6559 71.0947C89.5259 71.1347 89.4459 71.0847 89.3459 71.0947C89.2559 71.0947 89.1659 71.0947 89.0759 71.0947C88.9859 71.0947 88.8859 71.0347 88.7959 71.0147C88.0759 70.8547 86.7759 70.3947 85.5059 69.7547C84.2059 69.0847 82.8759 68.2947 81.5559 67.4247C81.1159 67.1247 80.1459 66.3947 79.0359 65.5447C76.2659 63.4147 72.2659 64.0547 70.2959 66.9547C68.1459 70.1247 69.4359 74.4847 72.9659 75.9647C74.6259 76.6647 76.1159 77.2647 76.7659 77.4947C78.6059 78.1147 80.5059 78.6547 82.5159 79.0847L84.0859 79.3547C84.5959 79.4547 85.1959 79.4847 85.7459 79.5447C86.2759 79.6147 86.9159 79.6147 87.5359 79.6047C87.8459 79.6047 88.1459 79.6047 88.4659 79.5747C88.8159 79.5347 89.1659 79.4847 89.5159 79.4247C90.0259 79.3447 90.8359 79.1347 91.3159 78.9647C91.3859 78.9347 91.4559 78.9147 91.5259 78.8847C91.8459 78.7647 92.2059 78.6547 92.4659 78.5047L93.2659 78.0547C93.5259 77.9047 93.7959 77.7547 94.0359 77.5947L94.7059 77.0947C95.1559 76.7647 95.5859 76.4347 95.9459 76.0747C97.5059 74.6847 98.7259 73.2147 99.8559 71.7247C102.116 68.7247 103.926 65.6447 105.596 62.4047C107.276 62.1447 109.326 60.8847 109.396 59.5247C109.466 58.1547 109.326 56.3047 108.846 56.0347H108.876Z" fill="#F0C3C1"/>
<g style="mix-blend-mode:multiply" opacity="0.5">
<path d="M80.2159 72.7047C80.7859 74.2647 81.1259 77.3547 81.2559 78.7947C81.6759 78.8947 82.1059 78.9947 82.5459 79.0947L84.1159 79.3647C84.6259 79.4647 85.2259 79.4947 85.7759 79.5547C86.3059 79.6247 86.9459 79.6247 87.5659 79.6147C87.8759 79.6147 88.1759 79.6147 88.4959 79.5847C88.8459 79.5447 89.1959 79.4947 89.5459 79.4347C90.0559 79.3547 90.8659 79.1447 91.3459 78.9747C91.4159 78.9447 91.4859 78.9247 91.5559 78.8947C91.8759 78.7747 92.2359 78.6647 92.4959 78.5147L93.2959 78.0647C93.5559 77.9147 93.8259 77.7647 94.0659 77.6047L94.7359 77.1047C95.1859 76.7747 95.6159 76.4447 95.9759 76.0847C97.0359 75.1447 97.9359 74.1647 98.7559 73.1647C90.7359 79.0847 83.0659 75.5647 80.2159 72.7147V72.7047Z" fill="#F0C3C1"/>
</g>
<path d="M76.0759 142.855C76.0759 142.855 74.0459 145.675 74.0059 145.845C73.9659 146.015 75.0059 149.485 74.6159 150.615C74.6159 150.615 71.5359 146.665 71.1859 145.545C71.4859 144.765 74.6559 141.595 74.6559 141.595L76.0759 142.855Z" fill="#E86097"/>
<path d="M36.1759 132.585C36.1759 132.585 32.7759 133.265 32.6259 133.365C32.4759 133.465 31.2959 136.715 30.2459 137.275C30.2459 137.275 30.6759 132.285 31.1959 131.225C31.9459 130.865 36.0059 130.695 36.0059 130.695L36.1859 132.585H36.1759Z" fill="#E86097"/>
<path d="M93.5459 119.055C93.4959 118.525 93.4859 118.015 93.3359 117.445C93.2759 117.165 93.2059 116.885 93.1259 116.605L93.0659 116.405L93.0259 116.275L92.9459 116.015C92.7259 115.345 92.5059 114.605 92.2559 113.995C92.0059 113.375 91.7659 112.715 91.5059 112.105L90.7159 110.305C89.6359 107.955 88.4759 105.725 87.2859 103.535C86.0959 101.345 84.8459 99.2147 83.5759 97.1047C82.9459 96.0447 82.2959 95.0047 81.6359 93.9547C80.9659 92.8947 80.3359 91.8947 79.5959 90.7847L70.8459 98.2347L59.0659 97.1447C59.1159 98.1847 59.1259 99.3747 59.1459 100.495C59.1559 101.635 59.1659 102.785 59.1459 103.925C59.1259 106.205 59.0859 108.495 58.9659 110.745C58.8559 112.995 58.6959 115.235 58.4459 117.385C58.2559 118.785 58.0959 120.225 57.7959 121.605C57.6159 122.425 57.2159 123.055 56.6959 123.585C56.5259 123.625 52.2559 124.655 47.4059 126.085C42.4559 127.545 34.3659 130.445 34.3659 130.445L34.5559 133.225C39.3859 133.755 44.1859 133.995 49.1659 133.755C51.6559 133.625 54.1759 133.365 56.8159 132.755C58.1359 132.445 59.4959 132.035 60.9059 131.405C62.3059 130.765 63.8159 129.925 65.2459 128.395C65.5959 127.985 65.9459 127.625 66.2559 127.115C66.4159 126.875 66.5659 126.625 66.7059 126.375L66.8159 126.195L66.8759 126.075L67.0059 125.835C67.3259 125.205 67.7059 124.535 67.9759 123.935C68.2559 123.325 68.5559 122.685 68.8059 122.085L69.5459 120.265C70.4659 117.855 71.2659 115.465 71.9959 113.085C72.5259 111.385 72.9959 109.685 73.4559 107.985C74.4959 109.045 75.5259 110.105 76.5259 111.175C78.0559 112.825 79.5459 114.505 80.9159 116.185L81.8959 117.445C82.5959 118.355 83.4859 119.375 83.9459 120.425C84.4459 121.565 84.1159 123.025 83.7559 124.245C83.7559 124.245 79.6059 129.805 77.3559 133.855C75.1059 137.895 73.3659 142.315 73.3659 142.315L75.5659 144.375C79.3159 141.295 82.8359 138.025 86.1459 134.295C87.7859 132.425 89.3659 130.435 90.7759 128.125C91.4759 126.965 92.1259 125.705 92.6659 124.255C93.1859 122.805 93.6359 121.145 93.5359 119.055H93.5459Z" fill="#7FDDBB"/>
<path d="M86.9859 70.0847C83.8559 68.7047 79.1559 65.5747 77.9459 64.7647C77.8559 64.6947 77.7659 64.6347 77.6759 64.5847L77.6459 64.5647C77.6459 64.5647 77.5859 64.5347 77.5659 64.5247C75.3959 63.5547 70.9259 62.8347 63.7959 64.5247C59.4859 65.5447 55.9759 67.4047 53.8759 68.7147C53.8759 68.7147 50.3459 70.3947 45.9459 70.9547C45.4459 71.8247 42.7659 77.0947 45.4759 81.0347C46.1759 81.1747 50.9759 81.7647 54.3359 81.3047C54.6559 82.4447 54.9859 83.5847 55.3359 84.6847C57.3859 91.0847 58.1159 98.3347 57.8759 102.555C70.3159 104.965 85.5259 99.8947 84.4459 97.1247C83.3559 94.3447 81.0659 87.1047 81.3059 80.2147C81.3059 79.9947 81.3159 79.7747 81.3259 79.5647C82.9859 79.7847 84.6059 79.9747 85.0159 79.9347C88.3959 77.1847 87.8659 71.6847 86.9959 70.0947L86.9859 70.0847Z" fill="#E86097"/>
<path d="M65.5959 61.2447C65.5959 61.2447 64.4459 63.6647 67.3859 65.3447C69.0059 66.3047 68.7459 67.9547 67.3859 68.4847C66.0259 69.0147 63.4159 68.6947 63.2559 66.4647C63.2559 64.8647 63.3059 61.5247 63.2559 60.6947C63.9459 60.6147 65.5959 61.2447 65.5959 61.2447Z" fill="#F0C3C1"/>
<path d="M81.3059 80.2147C81.3059 80.1647 81.3059 80.1047 81.3059 80.0547L80.5159 79.6147C79.3859 78.9947 77.9959 79.2047 77.1259 80.1447L74.7259 82.7347L70.9559 80.6647C69.8659 80.0647 68.4959 80.2647 67.6259 81.1547L64.0559 84.8147L59.4959 82.8147C58.3959 82.3347 57.1259 82.5947 56.3259 83.4747L55.3159 84.5847C55.3159 84.5847 55.3359 84.6347 55.3359 84.6647C55.6859 85.7447 55.9859 86.8547 56.2659 87.9647L58.4259 85.5947L62.9759 87.5947C64.0359 88.0647 65.2859 87.8247 66.0859 86.9947L69.6459 83.3347L73.4259 85.4047C74.5459 86.0247 75.9359 85.7947 76.8059 84.8647L79.2059 82.2747L81.3659 83.4747C81.2959 82.3847 81.2559 81.2847 81.2959 80.1947L81.3059 80.2147Z" fill="#EDBB2C"/>
<g style="mix-blend-mode:multiply" opacity="0.5">
<path d="M80.2159 72.7047C80.9659 74.7847 81.3259 79.5547 81.3259 79.5547C82.9859 79.7747 84.6059 79.9647 85.0159 79.9247C86.2359 78.9347 86.9459 77.5747 87.3059 76.1747C84.1459 75.6347 81.6059 74.0947 80.2159 72.6947V72.7047Z" fill="#E1615B"/>
</g>
<g style="mix-blend-mode:multiply" opacity="0.5">
<path d="M81.5359 85.2847C80.6159 87.7247 75.4959 98.8047 57.8959 99.3947C57.9359 100.565 57.9359 101.635 57.8859 102.555C70.3259 104.965 85.5359 99.8947 84.4559 97.1247C83.6359 95.0347 82.1359 90.3947 81.5459 85.2947L81.5359 85.2847Z" fill="#E1615B"/>
</g>
<g style="mix-blend-mode:multiply" opacity="0.5">
<path d="M44.6659 79.3647C44.8559 79.9347 45.1159 80.4947 45.4859 81.0347C46.1859 81.1747 50.9859 81.7647 54.3459 81.3047C54.3459 81.3047 52.8459 76.9147 52.7859 76.6447C52.7259 76.4047 48.1859 79.4448 44.6659 79.3548V79.3647Z" fill="#E1615B"/>
</g>
<g style="mix-blend-mode:multiply" opacity="0.5">
<path d="M63.9059 61.1147C63.9059 61.1147 63.6459 61.1447 63.2759 61.2047C63.2859 61.9447 63.2759 63.1447 63.2759 64.2947C64.2859 64.1647 65.0359 63.7147 65.5259 63.2947C65.3659 62.8047 65.3559 62.3447 65.4059 61.9847L63.9059 61.1147Z" fill="#F0C3C1"/>
</g>
<path d="M59.9859 58.0847C59.7959 57.2047 59.9859 56.2647 60.5559 55.5647C61.1659 54.8047 61.9659 53.7547 63.8159 53.9047C67.2359 54.1847 68.2259 58.7447 68.1759 60.2047C68.1259 61.6647 67.3859 63.4947 64.2659 62.6447C61.6959 61.9547 60.4159 60.0947 59.9859 58.0847Z" fill="#F0C3C1"/>
<path d="M68.8159 53.9847C68.9259 52.8147 67.8059 50.9747 66.5159 50.9847C65.6859 50.9847 65.0859 51.7047 64.5959 52.2847C64.4059 52.0147 64.0459 51.8747 63.7259 51.9547C63.4059 52.0347 63.1459 52.3147 63.0959 52.6447C62.6459 52.2847 62.1159 52.0047 61.5359 51.9647C60.9659 51.9147 60.3559 52.1247 60.0059 52.5847C59.6559 53.0447 59.6559 53.7547 60.0559 54.1647C59.7659 54.2847 59.4559 54.4147 59.2759 54.6647C59.0959 54.9147 59.0959 55.3347 59.3759 55.4947C58.6459 55.6147 58.0559 56.2947 58.0259 57.0347C57.9959 57.7747 58.5359 58.4947 59.2559 58.6747C59.0159 58.9247 58.9859 59.3247 59.1059 59.6447C59.2259 59.9747 59.4659 60.2347 59.7059 60.4847C60.0759 60.8847 60.4559 61.2747 60.8359 61.6547C61.3259 62.1447 61.8459 62.6347 62.5059 62.8347C62.6359 62.8747 62.7859 62.8947 62.9159 62.8347C63.0459 62.7647 63.1059 62.5947 63.1359 62.4447C63.2059 61.9847 63.0359 61.5047 62.7059 61.1747C62.4459 60.9147 62.0859 60.7647 61.8159 60.5147C61.5459 60.2647 61.3659 59.8347 61.5759 59.5347C61.7359 59.2947 62.0859 59.2347 62.3659 59.3347C62.6359 59.4347 62.8459 59.6547 63.0259 59.8847C63.1459 60.0447 63.2659 60.2247 63.4459 60.3247C63.6259 60.4247 63.8759 60.4247 63.9959 60.2547C64.1359 60.0547 64.0059 59.7847 63.8759 59.5847C63.5959 59.1547 63.3159 58.7147 63.0359 58.2847C61.9759 56.6347 63.9059 55.9447 65.2659 55.9647C66.6259 55.9847 68.6659 55.6847 68.8259 53.9647L68.8159 53.9847Z" fill="#F9AE40"/>
<g style="mix-blend-mode:multiply" opacity="0.5">
<path d="M68.8159 53.9847C68.8359 53.8047 68.8159 53.6047 68.7759 53.3947C68.1259 53.9647 66.9059 54.7947 65.5159 54.4747C64.7359 54.9647 64.0759 55.4247 63.4159 54.9947C62.9759 55.6247 62.5359 56.6747 61.3159 56.5847C61.1059 57.4547 61.2159 59.6247 59.0959 59.6247C59.0959 59.6247 59.0959 59.6447 59.0959 59.6547C59.2159 59.9847 59.4559 60.2447 59.6959 60.4947C60.0659 60.8947 60.4459 61.2847 60.8259 61.6647C61.3159 62.1547 61.8359 62.6447 62.4959 62.8447C62.6259 62.8847 62.7759 62.9047 62.9059 62.8447C63.0359 62.7747 63.0959 62.6047 63.1259 62.4547C63.1959 61.9947 63.0259 61.5147 62.6959 61.1847C62.4359 60.9247 62.0759 60.7747 61.8059 60.5247C61.5359 60.2747 61.3559 59.8447 61.5659 59.5447C61.7259 59.3047 62.0759 59.2447 62.3559 59.3447C62.6259 59.4447 62.8359 59.6647 63.0159 59.8947C63.1359 60.0547 63.2559 60.2347 63.4359 60.3347C63.6159 60.4347 63.8659 60.4347 63.9859 60.2647C64.1259 60.0647 63.9959 59.7947 63.8659 59.5947C63.5859 59.1647 63.3059 58.7247 63.0259 58.2947C61.9659 56.6447 63.8959 55.9547 65.2559 55.9747C66.6159 55.9947 68.6559 55.6947 68.8159 53.9747V53.9847Z" fill="#F9AE40"/>
</g>
<path d="M66.2959 57.7047C66.6859 58.0647 67.0659 58.4247 67.3459 58.9047C67.4059 59.0247 67.5059 59.1547 67.4659 59.3747C67.4059 59.5847 67.2459 59.6747 67.1059 59.7347C66.8259 59.8247 66.5559 59.8447 66.2759 59.7847C66.2759 59.7847 66.2659 59.7747 66.2659 59.7647C66.2659 59.7647 66.2659 59.7647 66.2659 59.7547C66.5159 59.6547 66.7659 59.5847 66.9659 59.4647C67.1759 59.3447 67.2259 59.2847 67.1159 59.0147C67.0159 58.7847 66.8759 58.5747 66.7259 58.3547C66.5759 58.1447 66.4159 57.9347 66.2559 57.7247V57.7047C66.2559 57.7047 66.2659 57.7047 66.2759 57.7047H66.2959Z" fill="#CC9393"/>
<g style="mix-blend-mode:multiply" opacity="0.5">
<path d="M76.0659 104.445C73.8059 105.925 68.7459 105.455 68.7459 105.455C68.7459 105.455 71.2359 107.095 71.1959 108.805C71.1559 110.515 67.3459 125.245 67.3359 125.245C67.5659 124.805 67.8059 124.355 67.9859 123.945C68.2659 123.335 68.5659 122.695 68.8159 122.095L69.5559 120.275C70.4759 117.865 71.2759 115.475 72.0059 113.095C72.5359 111.395 73.0059 109.695 73.4659 107.995C74.5059 109.055 75.5359 110.115 76.5359 111.185C78.0659 112.835 79.5559 114.515 80.9259 116.195L81.9059 117.455C82.6059 118.365 83.4959 119.385 83.9559 120.435C84.4559 121.575 84.1259 123.035 83.7659 124.255C83.7659 124.255 80.4759 128.665 78.1659 132.485C78.2859 132.345 84.8659 124.855 85.1759 124.005C85.4859 123.145 86.1859 120.815 85.1759 119.015C82.3759 116.285 76.5259 106.865 76.0559 104.445H76.0659Z" fill="#72CED6"/>
</g>
<path d="M30.1259 40.1547C29.5859 39.5147 29.6359 38.4547 30.2359 37.8747C30.8359 37.2947 31.8959 37.2747 32.5159 37.8347C31.8259 37.1847 31.8359 36.0447 32.2759 35.2147C32.7159 34.3847 33.4859 33.7847 34.2459 33.2247C34.6059 32.9647 34.9859 32.6947 35.4259 32.6547C35.9559 32.6147 36.4559 32.9247 36.8859 33.2347C37.7959 33.8847 38.6759 34.6047 39.2559 35.5647C39.8259 36.5147 40.0559 37.7447 39.5959 38.7547C40.1959 37.4247 42.6959 40.0947 42.8759 40.7447C43.3559 42.4947 42.3359 44.5747 40.4559 44.8447C41.4259 45.3447 41.3959 46.9147 40.5459 47.5847C39.6959 48.2547 38.3959 48.1047 37.5059 47.4947C37.9359 48.5947 37.1559 49.9147 36.0459 50.3147C34.9359 50.7147 33.6559 50.3247 32.7459 49.5747C31.8359 48.8247 31.2959 47.7747 30.7859 46.7547C28.6059 49.5047 24.8959 46.3347 27.6659 43.7447C26.5459 42.7347 25.2559 41.3847 26.7759 40.0347C27.7159 39.2047 29.2959 39.1847 30.1259 40.1547Z" fill="#7FDDBB"/>
<g style="mix-blend-mode:multiply" opacity="0.5">
<path d="M42.9659 41.8847C42.4459 42.1747 41.8259 42.2747 41.2659 42.1047C41.1059 43.7647 39.1459 44.9847 37.5859 44.3847C37.2059 45.0147 36.1859 45.1247 35.6859 44.5847C35.2859 45.5247 34.0659 45.9447 33.0959 45.6247C32.1259 45.3047 31.4359 44.3747 31.1859 43.3847C30.3159 43.4447 29.4859 42.6247 29.5459 41.7547C28.8859 41.7647 28.2659 41.5047 27.7659 41.0947C27.4659 40.8447 27.1959 40.2847 26.8859 39.9447C26.8459 39.9747 26.8059 39.9947 26.7659 40.0347C25.2459 41.3747 26.5359 42.7247 27.6559 43.7447C24.8759 46.3247 28.5959 49.4947 30.7759 46.7547C31.2959 47.7847 31.8359 48.8247 32.7359 49.5747C33.6459 50.3247 34.9259 50.7147 36.0359 50.3147C37.1459 49.9147 37.9159 48.5947 37.4959 47.4947C38.3859 48.1147 39.6859 48.2647 40.5359 47.5847C41.3859 46.9147 41.4159 45.3447 40.4459 44.8447C41.9259 44.6347 42.8659 43.3047 42.9759 41.8947L42.9659 41.8847Z" fill="#72CED6"/>
</g>
<path d="M97.3659 49.2347C96.3959 48.1147 96.5659 46.1947 97.7259 45.2647C98.8859 44.3347 100.806 44.6047 101.676 45.8047C101.846 44.3547 103.356 43.2047 104.806 43.4247C106.256 43.6447 107.346 45.2047 107.076 46.6347C108.666 46.2347 110.366 47.6547 110.456 49.2947C110.546 50.9347 109.216 52.4547 107.616 52.8247C108.096 53.7747 107.326 55.0147 106.296 55.2447C105.256 55.4747 104.176 54.8747 103.556 54.0147C103.356 55.2447 102.216 56.2447 100.976 56.2947C99.6759 56.3447 98.6559 55.4047 98.1959 54.2747C96.0159 55.0047 94.7659 54.1447 94.4059 52.3947C94.2359 51.5747 95.5859 48.7847 97.3759 49.2447L97.3659 49.2347Z" fill="#7FDDBB"/>
<g style="mix-blend-mode:multiply" opacity="0.5">
<path d="M110.446 49.5947C109.576 50.0347 108.496 50.0847 107.626 49.6247C107.316 49.4647 106.986 49.2347 106.646 49.3147C106.446 49.3647 106.286 49.4947 106.116 49.6047C105.436 50.0347 104.466 49.9447 103.876 49.3947C103.186 50.3647 102.176 51.4647 101.036 51.1347C100.766 51.0547 100.526 50.9047 100.246 50.8547C99.6359 50.7447 98.7659 51.0447 98.5259 50.4747C98.0459 50.8847 97.2859 50.8347 96.7359 50.5247C96.3259 50.2947 96.0659 49.9447 95.8059 49.6447C94.8659 50.3947 94.2859 51.8347 94.4059 52.3847C94.7759 54.1347 96.0259 54.9947 98.1959 54.2647C98.6659 55.3947 99.6759 56.3347 100.976 56.2847C102.216 56.2347 103.356 55.2347 103.556 54.0047C104.176 54.8647 105.256 55.4647 106.296 55.2347C107.336 55.0047 108.106 53.7547 107.616 52.8147C109.116 52.4747 110.366 51.1047 110.436 49.5847L110.446 49.5947Z" fill="#72CED6"/>
</g>
<path d="M104.976 123.835L108.556 140.435C108.556 141.435 112.446 142.245 117.246 142.245C122.046 142.245 125.936 141.435 125.936 140.435L129.516 123.835H104.986H104.976Z" fill="#A7AEE4"/>
<path d="M117.236 118.735C110.466 118.735 104.966 119.875 104.966 121.285V123.835C104.966 125.245 110.456 126.385 117.236 126.385C124.016 126.385 129.506 125.245 129.506 123.835V121.285C129.506 119.875 124.016 118.735 117.236 118.735Z" fill="#A7AEE4"/>
<path d="M117.236 123.235C123.637 123.235 128.826 122.335 128.826 121.225C128.826 120.115 123.637 119.215 117.236 119.215C110.835 119.215 105.646 120.115 105.646 121.225C105.646 122.335 110.835 123.235 117.236 123.235Z" fill="#43A3BA"/>
<path d="M127.356 120.245C126.246 118.745 124.526 116.655 123.456 116.655C122.656 116.655 121.636 117.235 120.786 117.845C119.856 118.505 118.586 118.335 117.856 117.475C116.766 116.185 115.076 114.655 113.236 114.655C111.066 114.655 108.606 118.055 107.276 120.195C106.666 121.175 106.296 121.885 106.296 121.885C107.876 122.665 112.176 123.235 117.236 123.235C122.566 123.235 127.056 122.615 128.406 121.755C128.406 121.755 127.976 121.095 127.356 120.245Z" fill="#EDBB2C"/>
<g style="mix-blend-mode:multiply" opacity="0.5">
<path d="M125.926 140.445L128.496 128.535C126.216 131.525 119.886 137.865 107.806 136.965L108.556 140.455C108.556 141.455 112.446 142.265 117.246 142.265C122.046 142.265 125.936 141.455 125.936 140.455L125.926 140.445Z" fill="#7BC6DB"/>
</g>
<path d="M126.866 136.555C125.896 136.555 124.946 136.315 124.026 135.845C119.276 133.385 116.896 125.455 116.806 125.115L117.686 124.855C117.706 124.935 120.056 132.755 124.456 135.035C125.806 135.735 127.226 135.835 128.686 135.325C129.106 135.175 129.376 134.935 129.516 134.575C129.756 133.915 129.936 132.945 128.186 129.995L128.486 128.615C130.056 131.265 130.826 133.645 130.366 134.895C130.136 135.515 129.676 135.955 128.976 136.185C128.266 136.425 127.556 136.555 126.866 136.555Z" fill="#8B29EC"/>
<path d="M117.236 126.025C117.81 126.025 118.276 125.559 118.276 124.985C118.276 124.41 117.81 123.945 117.236 123.945C116.662 123.945 116.196 124.41 116.196 124.985C116.196 125.559 116.662 126.025 117.236 126.025Z" fill="white"/>
<g style="mix-blend-mode:multiply" opacity="0.5">
<path d="M128.406 121.755C128.406 121.755 127.976 121.095 127.356 120.245C126.956 119.695 126.466 119.075 125.966 118.505C124.066 119.475 117.216 122.435 106.536 121.455C106.386 121.725 106.296 121.885 106.296 121.885C107.876 122.665 112.176 123.235 117.236 123.235C122.566 123.235 127.056 122.615 128.406 121.755Z" fill="#F2C71F"/>
</g>
<path d="M74.5259 13.5847C75.2759 12.6147 75.1959 11.0947 74.3459 10.2147C73.4959 9.32472 71.9859 9.17472 70.9859 9.88472C72.2359 6.84472 71.0759 3.00473 68.3459 1.17473C65.6259 -0.665271 61.6259 -0.305273 59.2759 1.98473C56.9259 4.27473 56.4659 8.25472 58.2259 11.0247C57.1059 10.5347 55.8059 11.7347 55.7959 12.9647C55.7859 14.1947 56.6259 15.2647 57.5559 16.0647C55.3059 14.6347 51.8859 15.7347 50.8859 18.2047C49.7359 21.0347 52.5159 24.8947 55.6459 23.9247C55.0959 25.4747 55.5459 27.3247 56.7559 28.4347C58.8759 30.3847 62.1959 29.5547 64.1159 27.6147C65.3559 30.6347 67.1759 35.6047 67.5159 38.6947C67.5159 38.6947 68.7059 31.4547 70.3259 26.3647C70.9459 25.8347 71.3759 25.0947 71.4959 24.2947C74.5659 26.4647 79.5559 24.6947 80.5759 21.0847C81.5959 17.4747 78.2659 13.3547 74.5159 13.5947L74.5259 13.5847Z" fill="#A7AEE4"/>
<g style="mix-blend-mode:multiply" opacity="0.5">
<path d="M70.8459 22.6647C69.2659 26.8847 64.9559 25.3947 63.9859 24.5147C59.8559 26.9747 57.2959 23.1947 57.3859 21.6147C53.3559 21.8947 52.7359 17.7947 52.6459 16.1847C51.8759 16.6647 51.2359 17.3447 50.8959 18.1947C49.7459 21.0247 52.5259 24.8847 55.6559 23.9147C55.1059 25.4647 55.5559 27.3147 56.7659 28.4247C58.8859 30.3747 62.2059 29.5447 64.1259 27.6047C65.3659 30.6247 67.1859 35.5947 67.5259 38.6847C67.5259 38.6847 68.7159 31.4447 70.3359 26.3547C70.9559 25.8247 71.3859 25.0847 71.5059 24.2847C74.5759 26.4547 79.5659 24.6847 80.5859 21.0747C81.0959 19.2747 80.5259 17.3547 79.3659 15.9147C79.8259 20.6047 72.8359 23.0747 70.8459 22.6747V22.6647Z" fill="#7BC6DB"/>
</g>
<defs>
<filter id="filter0_d_1_41111" x="42.7373" y="14.9861" width="173.564" height="173.564" filterUnits="userSpaceOnUse" color-interpolation-filters="sRGB">
<feFlood flood-opacity="0" result="BackgroundImageFix"/>
<feColorMatrix in="SourceAlpha" type="matrix" values="0 0 0 0 0 0 0 0 0 0 0 0 0 0 0 0 0 0 127 0" result="hardAlpha"/>
<feOffset dx="5" dy="5"/>
<feGaussianBlur stdDeviation="5"/>
<feColorMatrix type="matrix" values="0 0 0 0 0.447059 0 0 0 0 0.313726 0 0 0 0 0.737255 0 0 0 0.55 0"/>
<feBlend mode="normal" in2="BackgroundImageFix" result="effect1_dropShadow_1_41111"/>
<feBlend mode="normal" in="SourceGraphic" in2="effect1_dropShadow_1_41111" result="shape"/>
</filter>
</defs>
</svg>
