<svg width="218" height="218" viewBox="0 0 218 218" fill="none" xmlns="http://www.w3.org/2000/svg">
<g filter="url(#filter0_d_1_40974)">
<path d="M162.854 162.854C192.834 132.873 192.834 84.2651 162.854 54.2846C132.873 24.304 84.2651 24.304 54.2846 54.2846C24.304 84.2651 24.304 132.873 54.2846 162.854C84.2651 192.834 132.873 192.834 162.854 162.854Z" fill="white"/>
</g>
<g style="mix-blend-mode:multiply">
<path d="M162.854 162.854C192.834 132.873 192.834 84.2651 162.854 54.2846C132.873 24.304 84.2651 24.304 54.2846 54.2846C24.304 84.2651 24.304 132.873 54.2846 162.854C84.2651 192.834 132.873 192.834 162.854 162.854Z" fill="#623D91"/>
</g>
<path d="M34.2523 114.005C34.2523 114.418 34.3554 114.796 34.5617 115.14C34.7681 115.466 34.8712 115.733 34.8712 115.939C34.8712 116.128 34.8196 116.3 34.7165 116.455C34.6305 116.61 34.5102 116.687 34.3554 116.687C34.0631 116.687 33.8224 116.438 33.6333 115.939C33.4442 115.441 33.3496 114.916 33.3496 114.366C33.3496 113.541 33.6505 112.801 34.2523 112.148C34.8712 111.495 35.6535 111.168 36.5991 111.168C37.2353 111.168 37.7081 111.478 38.0176 112.097C38.3443 112.698 38.5076 113.386 38.5076 114.16C38.5076 114.933 38.4818 115.664 38.4302 116.352C38.3958 117.022 38.3615 117.547 38.3271 117.925C38.2927 118.286 38.2239 118.871 38.1208 119.679C38.0176 120.47 37.9488 121.02 37.9144 121.329C39.2899 121.329 40.7341 120.633 42.2472 119.24C42.4535 116.765 42.7372 114.83 43.0982 113.438C43.4765 112.028 43.8547 111.039 44.233 110.472C44.6112 109.904 45.0153 109.621 45.4451 109.621C45.8921 109.621 46.2532 109.818 46.5283 110.214C46.8206 110.609 46.9667 111.082 46.9667 111.632C46.9667 113.661 46.0641 115.853 44.2588 118.209C44.1556 119.567 44.104 120.822 44.104 121.974C44.104 123.109 44.2674 124.218 44.594 125.301C44.9379 126.367 45.1098 126.96 45.1098 127.081C45.1098 127.218 45.0153 127.321 44.8262 127.39C44.637 127.476 44.4307 127.519 44.2072 127.519C43.6054 127.519 43.1154 127.364 42.7372 127.055C42.548 126.9 42.3933 126.376 42.2729 125.482C42.1526 124.588 42.0924 123.754 42.0924 122.98C42.0924 122.189 42.1182 121.338 42.1698 120.427C40.6396 121.733 39.1867 122.413 37.8113 122.464C37.7941 122.705 37.7769 123.109 37.7597 123.676C37.7425 124.226 37.7167 124.639 37.6823 124.914C37.6479 125.172 37.5792 125.473 37.476 125.817C37.3041 126.453 36.8914 126.771 36.2381 126.771C35.8426 126.771 35.6449 126.436 35.6449 125.765C35.6449 125.078 35.7481 123.891 35.9544 122.206C35.1807 121.88 34.7938 121.304 34.7938 120.478C34.7938 119.877 34.9486 119.369 35.2581 118.957C35.5675 118.527 35.9458 118.312 36.3928 118.312C36.5476 116.73 36.6249 115.509 36.6249 114.65C36.6249 113.102 36.3842 112.329 35.9028 112.329C34.8024 112.329 34.2523 112.887 34.2523 114.005ZM46.1414 112.071C46.1414 111.813 46.0985 111.581 46.0125 111.374C45.9437 111.151 45.8492 111.039 45.7288 111.039C45.2474 111.039 44.809 112.905 44.4135 116.636C45.5655 114.882 46.1414 113.36 46.1414 112.071ZM36.3155 119.137C36.0747 119.309 35.9544 119.541 35.9544 119.834C35.9544 120.126 36.0232 120.367 36.1607 120.556L36.3155 119.137ZM53.9508 126.771C53.2802 126.771 52.773 126.634 52.4292 126.358C52.3088 126.238 52.2486 125.937 52.2486 125.456C52.2486 124.957 52.2658 124.295 52.3002 123.47C51.8532 124.588 51.4062 125.421 50.9591 125.972C50.5293 126.505 49.9705 126.771 49.2828 126.771C48.5951 126.771 47.9933 126.453 47.4775 125.817C46.9617 125.163 46.7038 124.149 46.7038 122.774C46.7038 121.381 47.0906 120.152 47.8643 119.086C48.6552 118.02 49.6868 117.487 50.9591 117.487C51.5093 117.487 52.1283 117.848 52.816 118.57C52.9536 118.381 53.1943 118.157 53.5381 117.899C53.8992 117.624 54.2001 117.487 54.4408 117.487C54.6987 117.487 54.8276 117.813 54.8276 118.467C54.8276 118.639 54.7761 118.974 54.6729 119.472C54.5869 119.971 54.4838 120.332 54.3634 120.556C54.2087 120.951 54.1313 122.352 54.1313 124.759C54.1313 125.224 54.1829 125.456 54.286 125.456C54.5783 125.439 54.9824 125.078 55.4982 124.373C56.014 123.65 56.5212 122.731 57.0198 121.613C57.5356 120.496 57.8451 119.937 57.9482 119.937C58.0686 119.937 58.1288 120.005 58.1288 120.143C58.1288 120.624 57.8795 121.39 57.3808 122.438C56.0226 125.327 54.8792 126.771 53.9508 126.771ZM50.8044 118.518C50.323 118.518 49.8072 118.879 49.257 119.601C48.724 120.306 48.4575 121.14 48.4575 122.103C48.4575 123.066 48.5951 123.857 48.8701 124.476C49.1624 125.095 49.5407 125.404 50.0049 125.404C50.5723 125.404 51.4062 123.986 52.5065 121.149C52.5237 121.011 52.5409 120.779 52.5581 120.453C52.5925 120.109 52.6183 119.851 52.6355 119.679C52.4807 119.404 52.2057 119.146 51.8102 118.905C51.432 118.647 51.0967 118.518 50.8044 118.518ZM57.376 118.621C57.5651 118.398 57.866 118.114 58.2787 117.77C58.6913 117.409 59.018 117.229 59.2587 117.229C59.4994 117.229 59.6197 117.573 59.6197 118.26C59.6197 118.931 59.4392 119.593 59.0782 120.246C59.0094 120.556 58.9578 121.003 58.9234 121.587C59.422 120.229 59.9206 119.206 60.4192 118.518C60.9178 117.831 61.5196 117.487 62.2245 117.487C62.9467 117.487 63.5742 117.813 64.1072 118.467C64.6402 119.103 64.9067 120.117 64.9067 121.51C64.9067 122.885 64.5112 124.106 63.7204 125.172C62.9467 126.238 61.9236 126.771 60.6513 126.771C59.998 126.771 59.3361 126.53 58.6655 126.049C58.6655 129.333 58.4764 131.835 58.0981 133.554C58.0637 133.709 57.8316 133.966 57.4018 134.328C56.9892 134.706 56.6883 134.895 56.4992 134.895C56.2928 134.895 56.1467 134.757 56.0607 134.482C55.9748 134.207 55.9318 133.949 55.9318 133.709C55.9318 131.938 56.2928 129.66 57.015 126.874C57.1353 125.258 57.2127 123.487 57.2471 121.561C57.2986 119.636 57.3416 118.656 57.376 118.621ZM60.8061 125.843C61.3047 125.843 61.8205 125.499 62.3535 124.811C62.8865 124.106 63.153 123.246 63.153 122.232C63.153 121.2 63.0068 120.384 62.7145 119.782C62.4394 119.163 62.0612 118.854 61.5798 118.854C60.7545 118.854 59.8175 120.564 58.7687 123.986C58.7343 124.467 58.7171 124.845 58.7171 125.121C59.1985 125.602 59.8948 125.843 60.8061 125.843ZM66.6695 118.621C66.8586 118.398 67.1595 118.114 67.5721 117.77C67.9848 117.409 68.3114 117.229 68.5521 117.229C68.7929 117.229 68.9132 117.573 68.9132 118.26C68.9132 118.931 68.7327 119.593 68.3716 120.246C68.3028 120.556 68.2513 121.003 68.2169 121.587C68.7155 120.229 69.2141 119.206 69.7127 118.518C70.2113 117.831 70.8131 117.487 71.518 117.487C72.2401 117.487 72.8677 117.813 73.4007 118.467C73.9337 119.103 74.2002 120.117 74.2002 121.51C74.2002 122.885 73.8047 124.106 73.0138 125.172C72.2401 126.238 71.2171 126.771 69.9448 126.771C69.2915 126.771 68.6295 126.53 67.959 126.049C67.959 129.333 67.7699 131.835 67.3916 133.554C67.3572 133.709 67.1251 133.966 66.6953 134.328C66.2826 134.706 65.9817 134.895 65.7926 134.895C65.5863 134.895 65.4402 134.757 65.3542 134.482C65.2682 134.207 65.2252 133.949 65.2252 133.709C65.2252 131.938 65.5863 129.66 66.3084 126.874C66.4288 125.258 66.5061 123.487 66.5405 121.561C66.5921 119.636 66.6351 118.656 66.6695 118.621ZM70.0995 125.843C70.5982 125.843 71.114 125.499 71.6469 124.811C72.1799 124.106 72.4464 123.246 72.4464 122.232C72.4464 121.2 72.3003 120.384 72.008 119.782C71.7329 119.163 71.3547 118.854 70.8732 118.854C70.048 118.854 69.1109 120.564 68.0621 123.986C68.0278 124.467 68.0106 124.845 68.0106 125.121C68.492 125.602 69.1883 125.843 70.0995 125.843ZM75.1635 124.398L75.3182 121.51C75.3182 119.67 75.4042 118.664 75.5761 118.492C75.748 118.321 76.0489 118.071 76.4787 117.745C76.9258 117.401 77.2438 117.229 77.433 117.229C77.6393 117.229 77.7682 117.263 77.8198 117.332C77.8714 117.401 77.8972 117.538 77.8972 117.745C77.8972 118.484 77.7339 119.232 77.4072 119.988C77.1493 121.57 77.0203 122.868 77.0203 123.883C77.0203 124.897 77.1407 125.404 77.3814 125.404C77.794 125.404 78.2669 125.043 78.7998 124.321C79.35 123.582 79.9088 122.499 80.4762 121.071C80.4934 120.693 80.5106 120.298 80.5278 119.885C80.545 119.455 80.5622 119.146 80.5794 118.957C80.5965 118.75 80.6051 118.604 80.6051 118.518C80.6223 118.432 80.863 118.2 81.3273 117.822C81.7915 117.426 82.1439 117.229 82.3847 117.229C82.6426 117.229 82.7715 117.555 82.7715 118.209C82.7715 118.381 82.7199 118.716 82.6168 119.215C82.5308 119.713 82.4276 120.074 82.3073 120.298C82.1697 121.519 82.0752 122.584 82.0236 123.496C83.7085 121.364 84.6026 120.238 84.7058 120.117C84.8261 119.997 84.9293 119.937 85.0152 119.937C85.1872 119.937 85.2731 120.023 85.2731 120.195C85.2731 120.298 85.2388 120.41 85.17 120.53C84.6198 121.338 83.5366 122.756 81.9204 124.785C81.8173 126.831 81.7485 128.224 81.7141 128.963C81.6281 131.147 81.3187 132.677 80.7857 133.554C80.2699 134.448 79.3414 134.895 78.0004 134.895C77.4158 134.895 76.8656 134.714 76.3498 134.353C75.8512 134.009 75.6019 133.399 75.6019 132.522C75.6019 131.663 75.9286 130.777 76.5819 129.866C77.2524 128.955 78.4646 127.553 80.2183 125.662L80.373 122.851C79.7885 124.14 79.2125 125.121 78.6451 125.791C78.0777 126.444 77.4502 126.771 76.7624 126.771C76.0747 126.771 75.6363 126.599 75.4471 126.255C75.258 125.911 75.1635 125.292 75.1635 124.398ZM80.1409 126.874C78.1809 128.989 77.2009 130.683 77.2009 131.955C77.2009 132.539 77.304 133.021 77.5103 133.399C77.7167 133.777 78.0004 133.966 78.3614 133.966C78.9116 133.966 79.2985 133.666 79.522 133.064C79.7455 132.462 79.9088 131.241 80.012 129.402L80.1409 126.874ZM91.0457 114.005C91.0457 114.418 91.1488 114.796 91.3551 115.14C91.5615 115.466 91.6646 115.733 91.6646 115.939C91.6646 116.128 91.613 116.3 91.5099 116.455C91.4239 116.61 91.3036 116.687 91.1488 116.687C90.8565 116.687 90.6158 116.438 90.4267 115.939C90.2376 115.441 90.143 114.916 90.143 114.366C90.143 113.541 90.4439 112.801 91.0457 112.148C91.6646 111.495 92.4469 111.168 93.3926 111.168C94.0287 111.168 94.5015 111.478 94.811 112.097C95.1377 112.698 95.301 113.386 95.301 114.16C95.301 114.933 95.2752 115.664 95.2236 116.352C95.1893 117.022 95.1549 117.547 95.1205 117.925C95.0861 118.286 95.0173 118.871 94.9142 119.679C94.811 120.47 94.7422 121.02 94.7078 121.329C96.0833 121.329 97.5276 120.633 99.0406 119.24C99.2469 116.765 99.5306 114.83 99.8916 113.438C100.27 112.028 100.648 111.039 101.026 110.472C101.405 109.904 101.809 109.621 102.239 109.621C102.686 109.621 103.047 109.818 103.322 110.214C103.614 110.609 103.76 111.082 103.76 111.632C103.76 113.661 102.857 115.853 101.052 118.209C100.949 119.567 100.897 120.822 100.897 121.974C100.897 123.109 101.061 124.218 101.387 125.301C101.731 126.367 101.903 126.96 101.903 127.081C101.903 127.218 101.809 127.321 101.62 127.39C101.43 127.476 101.224 127.519 101.001 127.519C100.399 127.519 99.9088 127.364 99.5306 127.055C99.3414 126.9 99.1867 126.376 99.0664 125.482C98.946 124.588 98.8858 123.754 98.8858 122.98C98.8858 122.189 98.9116 121.338 98.9632 120.427C97.433 121.733 95.9802 122.413 94.6047 122.464C94.5875 122.705 94.5703 123.109 94.5531 123.676C94.5359 124.226 94.5101 124.639 94.4757 124.914C94.4413 125.172 94.3726 125.473 94.2694 125.817C94.0975 126.453 93.6848 126.771 93.0315 126.771C92.636 126.771 92.4383 126.436 92.4383 125.765C92.4383 125.078 92.5415 123.891 92.7478 122.206C91.9741 121.88 91.5873 121.304 91.5873 120.478C91.5873 119.877 91.742 119.369 92.0515 118.957C92.361 118.527 92.7392 118.312 93.1862 118.312C93.341 116.73 93.4183 115.509 93.4183 114.65C93.4183 113.102 93.1776 112.329 92.6962 112.329C91.5959 112.329 91.0457 112.887 91.0457 114.005ZM102.935 112.071C102.935 111.813 102.892 111.581 102.806 111.374C102.737 111.151 102.643 111.039 102.522 111.039C102.041 111.039 101.602 112.905 101.207 116.636C102.359 114.882 102.935 113.36 102.935 112.071ZM93.1089 119.137C92.8682 119.309 92.7478 119.541 92.7478 119.834C92.7478 120.126 92.8166 120.367 92.9541 120.556L93.1089 119.137ZM111.569 121.046C112.257 120.822 112.73 120.633 112.988 120.478C113.263 120.306 113.469 120.177 113.607 120.091L113.916 119.911C114.002 119.859 114.071 119.834 114.123 119.834C114.26 119.834 114.329 119.911 114.329 120.066C114.329 120.22 114.063 120.496 113.53 120.891C112.997 121.269 112.335 121.613 111.544 121.923C111.423 123.367 110.968 124.536 110.177 125.43C109.386 126.324 108.26 126.771 106.798 126.771C105.732 126.771 104.916 126.35 104.348 125.507C103.781 124.648 103.497 123.65 103.497 122.516C103.497 121.364 103.832 120.281 104.503 119.266C105.191 118.252 106.068 117.745 107.134 117.745C107.615 117.401 108.182 117.229 108.836 117.229C109.506 117.229 110.125 117.581 110.693 118.286C111.26 118.991 111.552 119.911 111.569 121.046ZM109.893 122.361L108.965 122.413C108.174 122.413 107.503 122.18 106.953 121.716C106.403 121.235 106.128 120.71 106.128 120.143C106.128 119.576 106.222 119.086 106.411 118.673C105.672 119.258 105.303 120.41 105.303 122.129C105.303 122.954 105.474 123.745 105.818 124.502C106.162 125.241 106.704 125.611 107.443 125.611C108.182 125.611 108.758 125.301 109.171 124.682C109.584 124.046 109.824 123.272 109.893 122.361ZM108.294 118.08C108.019 118.08 107.804 118.209 107.649 118.467C107.495 118.707 107.417 118.974 107.417 119.266C107.417 119.902 107.632 120.418 108.062 120.814C108.509 121.209 109.025 121.407 109.609 121.407H109.919C109.885 120.564 109.738 119.799 109.48 119.111C109.24 118.424 108.844 118.08 108.294 118.08ZM114.774 126.771C114.396 126.771 114.043 126.728 113.717 126.642C113.407 126.539 113.218 126.444 113.149 126.358C112.977 126.152 112.891 125.086 112.891 123.16C112.891 121.218 113.106 118.587 113.536 115.269C113.897 112.535 114.74 111.168 116.064 111.168C116.373 111.168 116.597 111.34 116.734 111.684C116.872 112.011 116.94 112.329 116.94 112.638C116.94 114.873 116.261 117.375 114.903 120.143C114.851 121.57 114.826 122.817 114.826 123.883C114.826 124.931 114.92 125.456 115.109 125.456C115.402 125.439 115.806 125.078 116.321 124.373C116.837 123.65 117.344 122.731 117.843 121.613C118.359 120.496 118.668 119.937 118.772 119.937C118.892 119.937 118.952 120.005 118.952 120.143C118.952 120.624 118.703 121.39 118.204 122.438C116.846 125.327 115.703 126.771 114.774 126.771ZM116.296 112.87C116.296 112.32 116.227 112.045 116.089 112.045C115.574 112.045 115.195 114.186 114.955 118.467C115.849 116.111 116.296 114.246 116.296 112.87ZM118.354 114.031C118.354 113.721 118.517 113.455 118.844 113.231C119.171 113.008 119.463 112.896 119.721 112.896C120.185 112.896 120.417 113.163 120.417 113.696C120.417 114.229 120.28 114.693 120.004 115.088C119.729 115.466 119.342 115.656 118.844 115.656C118.517 115.656 118.354 115.114 118.354 114.031ZM119.102 126.771C118.431 126.771 117.924 126.634 117.58 126.358C117.46 126.238 117.4 125.808 117.4 125.069C117.4 124.33 117.451 123.1 117.554 121.381C117.675 119.644 117.778 118.707 117.864 118.57C117.95 118.432 118.216 118.174 118.663 117.796C119.11 117.418 119.454 117.229 119.695 117.229C119.953 117.229 120.082 117.555 120.082 118.209C120.082 118.381 120.03 118.716 119.927 119.215C119.841 119.713 119.738 120.074 119.618 120.298C119.394 120.865 119.282 122.352 119.282 124.759C119.282 125.224 119.334 125.456 119.437 125.456C119.729 125.439 120.133 125.078 120.649 124.373C121.165 123.65 121.672 122.731 122.171 121.613C122.687 120.496 122.996 119.937 123.099 119.937C123.22 119.937 123.28 120.005 123.28 120.143C123.28 120.624 123.03 121.39 122.532 122.438C121.174 125.327 120.03 126.771 119.102 126.771Z" fill="white"/>
<g style="mix-blend-mode:screen" opacity="0.5">
<path d="M94.8343 37.8221L94.1543 39.0921C94.0243 39.3321 92.2043 42.8021 90.3043 48.0921C88.4743 48.6821 86.6543 49.3521 84.8643 50.1121C77.0243 53.4321 69.9843 58.1721 63.9343 64.2121C60.4643 67.6821 57.4243 71.4821 54.8443 75.5721C49.2043 76.2421 45.3843 77.2621 45.1143 77.3321L43.7243 77.7121L44.2943 79.0321C44.4043 79.2821 45.9543 82.8221 48.8743 87.5521C47.0843 92.3021 45.8543 97.2121 45.2043 102.232H47.0343C47.6143 97.8921 48.6443 93.6321 50.1043 89.4921C51.9143 92.2621 54.1343 95.3021 56.7643 98.2821C55.3743 99.3821 54.1743 100.722 53.2243 102.232H56.2943C56.9243 101.462 57.6443 100.762 58.4343 100.142C58.8543 100.512 59.2843 100.862 59.7243 101.202C60.1743 101.572 60.6443 101.912 61.1343 102.232H69.7243C70.3143 99.4121 71.1943 96.6921 72.3243 94.1121C73.3443 94.2021 74.3643 93.6621 74.8343 92.6821C75.2943 91.7321 75.1043 90.6521 74.4543 89.9021C75.9843 87.2721 77.7943 84.8221 79.8443 82.5921C80.7443 83.5121 81.5343 84.5321 82.1843 85.6521C83.3643 87.6821 83.9643 89.8421 83.9643 91.9421C83.9643 93.5421 83.6143 95.1121 82.9143 96.5621C81.6343 99.2321 79.2943 101.212 76.3343 102.212H83.3143C86.9543 90.6621 97.7643 82.2621 110.504 82.2621C123.244 82.2621 134.054 90.6621 137.694 102.212H140.304C139.154 98.2321 137.234 94.5721 134.704 91.4121C137.114 91.9221 139.714 91.7921 142.314 90.9821C143.664 90.5621 144.964 89.9721 146.174 89.2421C147.804 91.9421 149.144 94.8421 150.134 97.8921C148.644 98.4021 147.214 99.1121 145.904 100.002C144.924 100.662 144.054 101.402 143.284 102.212H147.104C147.174 102.162 147.244 102.112 147.314 102.072C148.414 101.332 149.604 100.732 150.844 100.292C151.014 100.922 151.154 101.572 151.294 102.212H153.844C153.674 101.342 153.484 100.492 153.264 99.6421C156.334 99.0621 159.604 99.3421 162.584 100.532C163.914 101.062 165.194 101.622 166.434 102.212H171.904C169.894 101.102 167.714 100.002 165.374 98.9921C167.794 92.6021 165.804 85.3121 160.394 81.0421C158.724 79.7221 156.784 78.7521 154.744 78.2021C155.934 74.2321 156.694 70.3621 157.174 66.9221C162.394 72.4721 166.544 78.8221 169.514 85.8521C171.744 91.1221 173.234 96.6021 173.984 102.232H175.814C175.054 96.3621 173.504 90.6421 171.184 85.1421C167.934 77.4621 163.314 70.5621 157.464 64.6021C158.114 58.7521 157.964 54.6221 157.954 54.3421L157.894 52.9021L156.474 53.1621C156.194 53.2121 152.254 53.9621 146.834 55.8421C143.474 53.6221 139.904 51.7021 136.154 50.1121C128.024 46.6721 119.394 44.9321 110.514 44.9321C108.174 44.9321 105.854 45.0521 103.564 45.2921C99.4743 41.2321 96.2343 38.8321 96.0043 38.6721L94.8443 37.8221H94.8343ZM92.5443 49.3121C95.6443 48.4021 98.8043 47.7321 102.014 47.3121C104.774 50.0721 107.904 53.5721 110.694 57.6121C112.564 60.3221 113.564 63.5321 113.634 66.7221C112.604 66.6521 111.554 66.6121 110.504 66.6121C108.184 66.6121 105.914 66.7921 103.684 67.1421C103.084 66.5821 102.234 66.3221 101.374 66.5121C100.564 66.7021 99.9243 67.2621 99.6143 67.9721C96.3243 68.8121 93.1743 70.0221 90.2243 71.5521C89.0643 68.7521 88.6443 65.6121 89.1243 62.5321C89.8943 57.6021 91.2243 53.0221 92.5343 49.3021L92.5443 49.3121ZM119.744 55.8521C125.204 54.6121 130.824 56.9421 133.814 61.5721C133.174 61.9621 132.564 62.4021 131.974 62.8621C129.694 64.5321 127.814 66.6821 126.474 69.1121C123.314 67.9521 120.044 67.1521 116.714 66.7321C116.724 63.7521 116.064 60.8321 114.744 58.1621C116.224 57.0621 117.934 56.2721 119.744 55.8621V55.8521ZM102.514 71.4721C103.494 71.2521 104.214 70.4821 104.424 69.5621C106.414 69.2721 108.444 69.1121 110.504 69.1121C111.514 69.1121 112.514 69.1521 113.504 69.2221C113.344 70.4621 113.044 71.6721 112.584 72.8421C111.084 76.7021 108.134 79.3921 104.504 80.2221C100.874 81.0521 97.0543 79.9021 94.0243 77.0821C92.9843 76.1121 92.0943 75.0021 91.3543 73.7821C94.0443 72.3821 96.8943 71.2721 99.8843 70.4921C100.464 71.2921 101.484 71.7121 102.504 71.4821L102.514 71.4721ZM65.2243 65.5021C71.0943 59.6321 77.9443 55.0121 85.5743 51.7921C86.8943 51.2321 88.2243 50.7321 89.5643 50.2621C88.5043 53.4921 87.4943 57.2521 86.8043 61.2821C84.6843 60.7221 82.4543 60.6021 80.2743 60.9521C73.2343 62.0721 67.8043 67.8021 67.0643 74.8921L67.0443 75.0521C63.5043 74.9221 60.1443 75.0721 57.1643 75.3421C59.5043 71.8221 62.1943 68.5421 65.2143 65.5121L65.2243 65.5021ZM69.7243 73.9521C70.7843 68.5421 75.1343 64.2921 80.6643 63.4121C82.4943 63.1221 84.3743 63.2221 86.1643 63.6921C85.9343 66.6621 86.4043 69.6321 87.5243 72.3821C84.5043 74.0521 81.6843 76.0821 79.1343 78.4121C76.4743 76.1021 73.1943 74.5421 69.7243 73.9521ZM47.2243 79.4021C48.5143 79.1121 50.5843 78.7021 53.1943 78.3221C52.0343 80.3621 50.9943 82.4721 50.0543 84.6421C48.7443 82.4121 47.7943 80.5621 47.2243 79.3921V79.4021ZM72.0343 89.1021C71.2843 89.2521 70.6043 89.7421 70.2443 90.4921C69.9043 91.2021 69.9243 91.9921 70.2243 92.6621C68.8843 95.6221 67.8643 98.7621 67.2043 102.032C65.0343 101.502 63.0043 100.542 61.2243 99.2221C60.6143 98.7221 60.0243 98.1821 59.4843 97.5921C56.0743 93.8821 53.3043 89.9421 51.2043 86.5821C51.3043 86.3421 51.3943 86.1021 51.4943 85.8721C52.6443 83.1621 53.9643 80.5521 55.4543 78.0521C59.3643 77.6021 64.1143 77.3321 69.0743 77.6721C72.3143 77.9021 75.4043 79.0821 77.9443 80.9821C75.6743 83.4521 73.6943 86.1821 72.0243 89.1221L72.0343 89.1021ZM98.1443 82.3621C93.5543 84.3621 89.5443 87.4421 86.4343 91.2821C86.3143 88.9721 85.6143 86.6221 84.3343 84.4221C83.5743 83.1121 82.6443 81.9021 81.5743 80.8321C83.8743 78.6121 86.4243 76.6621 89.1743 75.0121C90.0343 76.4521 91.0943 77.7721 92.3143 78.9221C94.0643 80.5621 96.0543 81.7221 98.1343 82.3721L98.1443 82.3621ZM110.714 79.7921C112.514 78.2421 113.954 76.1921 114.914 73.7521C115.454 72.3821 115.804 70.9421 115.984 69.4821C119.194 69.9021 122.294 70.7021 125.234 71.8121C124.674 73.3421 124.324 74.9421 124.194 76.5621C124.164 77.0021 124.144 77.4321 124.144 77.8621C124.144 79.8721 124.514 81.7921 125.224 83.5221C120.894 81.1721 115.954 79.8321 110.704 79.7921H110.714ZM130.764 86.9121C127.854 84.5921 126.364 80.8921 126.684 76.7621C126.794 75.4021 127.084 74.0621 127.544 72.7721C130.354 74.0421 133.004 75.6021 135.444 77.4321C135.274 78.3321 135.594 79.2921 136.354 79.9021C137.084 80.4821 138.034 80.5921 138.844 80.2821C141.074 82.3521 143.074 84.6721 144.814 87.1821C143.794 87.7821 142.704 88.2721 141.564 88.6321C137.604 89.8621 133.674 89.2421 130.764 86.9121ZM158.834 83.0221C163.224 86.4921 164.944 92.3221 163.234 97.5621C159.914 96.3821 156.294 96.1421 152.844 96.8621C151.774 93.6121 150.324 90.5121 148.534 87.6021C150.194 86.2321 151.624 84.5721 152.744 82.7021C153.174 82.0221 153.564 81.3121 153.904 80.5721C155.694 81.0321 157.374 81.8621 158.834 83.0121V83.0221ZM154.914 64.6621C154.474 68.4921 153.684 73.0421 152.294 77.6521C151.904 78.9321 151.364 80.1521 150.694 81.2821C149.664 82.9521 148.344 84.4221 146.794 85.6421C144.944 82.9821 142.824 80.5421 140.454 78.3521C140.614 77.4621 140.294 76.5221 139.534 75.9221C138.814 75.3521 137.884 75.2321 137.074 75.5221C134.524 73.6021 131.774 71.9421 128.844 70.6021C129.944 68.3621 131.544 66.3921 133.484 64.8421C133.974 64.4821 134.484 64.1521 135.014 63.8521C139.264 61.4221 143.594 59.6321 147.274 58.3421C149.974 60.2321 152.524 62.3421 154.924 64.6521L154.914 64.6621ZM155.144 62.3821C153.304 60.6821 151.384 59.1021 149.384 57.6421C151.994 56.8021 154.134 56.2621 155.454 55.9521C155.454 57.3321 155.384 59.5921 155.144 62.3921V62.3821ZM135.434 51.7921C138.654 53.1521 141.744 54.7721 144.674 56.6221C141.994 57.6321 139.044 58.8921 136.054 60.4421C132.534 54.7921 125.764 51.9221 119.184 53.4121C116.884 53.9321 114.734 54.9721 112.894 56.4221C112.844 56.3421 112.794 56.2721 112.744 56.1921C110.314 52.6621 107.654 49.5521 105.184 46.9621C106.944 46.8221 108.714 46.7421 110.494 46.7421C119.134 46.7421 127.514 48.4421 135.424 51.7821L135.434 51.7921ZM100.364 45.7121C97.9843 46.0821 95.6343 46.5821 93.3143 47.2121C94.2543 44.7421 95.1343 42.8121 95.6943 41.6121C96.7443 42.4521 98.4043 43.8521 100.364 45.7121Z" fill="#2D1F5D"/>
</g>
<g style="mix-blend-mode:screen" opacity="0.5">
<path d="M91.1343 102.232H93.2743C96.3943 96.2121 102.684 92.0821 109.914 92.0821C117.144 92.0821 123.444 96.2121 126.564 102.232H128.704C125.444 95.1121 118.264 90.1621 109.914 90.1621C101.564 90.1621 94.3843 95.1121 91.1343 102.232Z" fill="#2D1F5D"/>
</g>
<g style="mix-blend-mode:screen" opacity="0.5">
<path d="M105.734 97.8621C105.314 96.9821 104.264 96.6121 103.394 97.0321C102.764 97.3321 102.384 97.9621 102.384 98.6221C102.384 98.8721 102.434 99.1321 102.554 99.3721C102.974 100.252 104.014 100.622 104.894 100.212C105.774 99.7921 106.144 98.7521 105.734 97.8721V97.8621Z" fill="#2D1F5D"/>
<path d="M119.464 101.132C119.104 101.412 118.884 101.812 118.814 102.232H122.284C122.234 101.952 122.124 101.682 121.934 101.442C121.334 100.672 120.234 100.542 119.464 101.142V101.132Z" fill="#2D1F5D"/>
<path d="M98.0443 101.242C97.8043 101.542 97.6843 101.882 97.6543 102.242H101.154C101.124 101.772 100.904 101.302 100.504 100.982C99.7543 100.372 98.6443 100.492 98.0343 101.242H98.0443Z" fill="#2D1F5D"/>
<path d="M108.264 97.3121V97.3321C108.264 98.3021 109.044 99.0821 110.004 99.0921C110.974 99.0921 111.774 98.3221 111.774 97.3421C111.774 96.3721 111.004 95.5821 110.034 95.5721C109.064 95.5721 108.274 96.3421 108.264 97.3121Z" fill="#2D1F5D"/>
<path d="M114.304 97.9421C114.184 98.1921 114.124 98.4521 114.124 98.7221C114.124 99.3721 114.484 99.9921 115.104 100.302C115.974 100.732 117.024 100.372 117.464 99.5021C117.894 98.6321 117.534 97.5821 116.664 97.1421C115.794 96.7121 114.744 97.0721 114.314 97.9421H114.304Z" fill="#2D1F5D"/>
</g>
<path d="M79.8843 169.892C79.1443 168.872 75.9343 168.322 74.3443 167.422C72.0643 166.132 74.2243 164.182 78.4243 163.742C83.7143 163.192 90.7943 164.672 94.2943 163.202C98.2143 161.552 94.8943 157.992 105.294 158.872C110.124 159.282 113.114 160.822 115.824 162.132C117.334 162.862 119.174 163.642 121.754 163.752C124.934 163.892 127.864 162.962 131.054 163.062C134.824 163.192 136.944 164.802 135.954 166.072C134.774 167.592 128.934 168.112 127.804 169.572C126.664 171.052 134.344 171.482 136.404 172.412C137.884 173.082 138.294 174.122 136.674 174.752C132.894 176.242 126.474 174.352 122.194 174.332C119.994 174.322 117.614 174.732 116.994 175.462C116.334 176.232 117.804 177.062 117.364 177.852C115.864 180.542 106.434 178.622 103.744 177.462C101.574 176.532 99.7643 175.452 96.8843 174.792C95.7743 174.532 94.4743 174.352 93.1343 174.382C87.9743 174.502 86.6043 176.912 80.5643 176.872C77.5543 176.852 74.5344 176.082 74.1844 175.052C73.5544 173.162 81.2143 171.722 79.8743 169.882L79.8843 169.892Z" fill="#EF84C4"/>
<path d="M111.704 154.592C115.334 148.722 119.214 148.682 119.214 148.682C119.214 148.682 123.104 148.722 126.724 154.592C130.354 160.462 125.684 163.702 119.214 163.702C112.744 163.702 108.074 160.462 111.704 154.592Z" fill="#E167AA"/>
<path d="M117.894 146.232C118.474 146.452 118.484 146.932 118.484 146.932C118.484 146.932 118.454 145.622 119.214 145.622C119.974 145.622 119.944 146.932 119.944 146.932C119.944 146.932 119.944 146.452 120.534 146.232C121.114 146.012 121.874 146.772 120.934 147.532C119.994 148.292 120.134 149.322 120.134 149.322L119.214 149.152L118.294 149.322C118.294 149.322 118.434 148.292 117.494 147.532C116.554 146.772 117.314 146.012 117.894 146.232Z" fill="#E167AA"/>
<path d="M117.964 148.052C118.904 147.852 119.844 147.952 120.454 148.052C120.614 148.082 120.694 148.232 120.624 148.362C120.554 148.492 120.504 148.622 120.464 148.732C120.434 148.832 120.314 148.902 120.194 148.882C119.484 148.802 118.724 148.862 118.224 148.922C118.104 148.932 117.984 148.872 117.954 148.762C117.924 148.632 117.864 148.492 117.784 148.352C117.714 148.232 117.804 148.082 117.954 148.052H117.964Z" fill="white"/>
<g style="mix-blend-mode:multiply" opacity="0.5">
<path d="M127.804 159.642C126.964 162.282 123.484 163.692 119.214 163.692C112.734 163.692 108.074 160.452 111.704 154.582C112.324 153.582 112.954 152.752 113.564 152.062C113.864 154.462 115.784 160.842 127.804 159.642Z" fill="#E167AA"/>
</g>
<g style="mix-blend-mode:soft-light" opacity="0.5">
<path d="M118.414 149.632C121.264 148.902 124.284 152.242 125.614 154.222C126.714 155.862 124.474 155.192 123.704 154.832C122.474 154.242 121.244 153.652 119.994 153.132C119.184 152.792 117.264 152.432 116.904 151.502C116.654 150.862 117.114 150.222 117.674 149.932C117.924 149.802 118.174 149.702 118.424 149.642L118.414 149.632Z" fill="white"/>
</g>
<path d="M96.4043 160.472C100.684 153.542 105.274 153.492 105.274 153.492C105.274 153.492 109.864 153.542 114.144 160.472C118.424 167.402 112.924 171.222 105.274 171.222C97.6243 171.222 92.1243 167.402 96.4043 160.472Z" fill="#A7AEE4"/>
<path d="M103.714 150.612C104.404 150.872 104.404 151.442 104.404 151.442C104.404 151.442 104.374 149.892 105.264 149.892C106.154 149.892 106.124 151.442 106.124 151.442C106.124 151.442 106.124 150.882 106.814 150.612C107.504 150.352 108.394 151.242 107.284 152.142C106.174 153.042 106.344 154.262 106.344 154.262L105.254 154.062L104.164 154.262C104.164 154.262 104.334 153.042 103.224 152.142C102.114 151.242 103.014 150.342 103.694 150.612H103.714Z" fill="#A7AEE4"/>
<path d="M103.794 152.752C104.904 152.522 106.014 152.632 106.734 152.752C106.914 152.782 107.014 152.962 106.934 153.112C106.844 153.262 106.784 153.412 106.744 153.552C106.704 153.672 106.574 153.752 106.434 153.732C105.594 153.642 104.694 153.702 104.114 153.772C103.974 153.792 103.834 153.712 103.804 153.582C103.764 153.432 103.704 153.272 103.604 153.092C103.524 152.952 103.624 152.772 103.804 152.732L103.794 152.752Z" fill="white"/>
<g style="mix-blend-mode:multiply" opacity="0.5">
<path d="M115.404 166.432C114.414 169.552 110.314 171.212 105.264 171.212C97.6243 171.212 92.1143 167.392 96.3943 160.462C97.1243 159.282 97.8643 158.302 98.5843 157.482C98.9343 160.322 101.204 167.852 115.394 166.422L115.404 166.432Z" fill="#7BC6DB"/>
</g>
<g style="mix-blend-mode:soft-light" opacity="0.5">
<path d="M104.334 154.622C107.704 153.752 111.264 157.712 112.834 160.042C114.134 161.972 111.494 161.192 110.584 160.752C109.134 160.062 107.684 159.362 106.204 158.742C105.244 158.342 102.984 157.922 102.554 156.812C102.254 156.052 102.804 155.302 103.464 154.952C103.754 154.802 104.044 154.682 104.344 154.612L104.334 154.622Z" fill="white"/>
</g>
<path d="M162.064 71.3621C162.924 70.0021 164.824 69.4121 165.354 67.8121C165.604 67.0721 165.474 66.2721 165.554 65.5021C165.834 62.8621 168.994 60.9621 171.454 61.9521C172.714 62.4621 173.704 63.5521 175.004 63.9521C176.644 64.4621 178.474 63.7921 180.134 64.2521C182.104 64.8021 183.384 67.1021 182.804 69.0621C182.444 70.2921 181.494 71.2721 180.984 72.4521C180.344 73.9521 180.474 75.7521 181.334 77.1421C182.944 79.7421 186.864 81.3121 185.174 84.9521C184.774 85.8121 184.214 86.5821 183.854 87.4521C183.244 88.9321 183.254 90.6521 183.884 92.1121C184.784 94.1921 186.774 95.6221 187.754 97.6621C189.724 101.782 187.274 106.862 182.844 107.852C181.484 108.152 180.034 108.032 178.724 107.552C177.354 107.042 176.424 105.702 175.094 105.242C173.954 104.852 172.164 105.592 171.134 106.052C169.204 106.912 167.744 108.302 165.514 108.412C162.864 108.542 160.264 106.802 159.214 104.362C158.534 102.782 158.494 100.962 158.984 99.3221C159.444 97.7621 160.724 96.7721 161.244 95.3121C162.134 92.7921 159.614 90.4121 159.874 87.8221C160.244 84.0721 165.184 81.2721 163.704 77.2621C163.384 76.3821 162.784 75.6421 162.314 74.8321C161.844 74.0221 161.494 73.0721 161.724 72.1621C161.794 71.8721 161.914 71.6221 162.064 71.3821V71.3621Z" fill="#A7AEE4"/>
<path d="M187.754 97.6621C186.904 95.8921 185.304 94.5821 184.304 92.9221C168.654 92.3121 164.734 73.3421 164.104 69.4521C163.384 70.0621 162.554 70.5921 162.064 71.3721C161.914 71.6021 161.804 71.8621 161.724 72.1521C161.494 73.0621 161.844 74.0121 162.314 74.8221C162.784 75.6321 163.374 76.3821 163.704 77.2521C165.184 81.2621 160.244 84.0621 159.874 87.8121C159.624 90.4021 162.134 92.7821 161.244 95.3021C160.724 96.7621 159.454 97.7621 158.984 99.3121C158.644 100.462 158.564 101.682 158.774 102.862L164.674 108.382C164.954 108.412 165.234 108.422 165.514 108.412C167.744 108.302 169.204 106.912 171.134 106.052C172.164 105.592 173.954 104.852 175.094 105.242C176.424 105.692 177.344 107.042 178.724 107.552C180.034 108.042 181.484 108.162 182.844 107.852C187.274 106.862 189.724 101.782 187.754 97.6621Z" fill="#A7AEE4"/>
<path d="M165.184 76.8621C163.574 76.2621 161.964 75.6421 160.404 75.0021C158.824 74.3621 157.254 73.6921 155.784 72.9921C155.054 72.6421 154.344 72.2921 153.734 71.9521C153.434 71.7821 153.054 71.5921 152.844 71.3021C152.744 71.1621 152.694 70.9521 152.644 70.7921C152.574 70.5921 152.524 70.3921 152.474 70.1821C152.304 69.4721 152.184 68.6921 152.084 67.8921C151.904 66.2721 151.844 64.5721 151.844 62.8421C151.854 59.3921 152.094 55.8621 152.484 52.3721C152.484 52.3721 154.034 50.8921 154.574 50.3121C155.114 49.7321 154.114 49.8021 153.524 50.3121C152.944 50.8221 152.394 49.9321 152.624 49.1921C152.844 48.4521 154.094 47.3421 154.124 46.9821C154.154 46.6221 153.164 47.2021 152.654 47.8121C152.144 48.4221 152.684 46.6321 152.814 46.1221C152.944 45.6121 151.444 46.5021 150.674 47.6221C149.904 48.7421 150.814 51.9321 150.814 51.9321C149.484 55.2821 148.304 58.6721 147.324 62.2121C146.834 63.9821 146.414 65.7921 146.104 67.7021C145.964 68.6621 145.844 69.6521 145.804 70.7021C145.784 71.7721 145.804 72.8921 146.134 74.2621C146.194 74.5821 146.364 74.9921 146.494 75.3521C146.554 75.5321 146.674 75.7421 146.784 75.9521C146.894 76.1621 147.004 76.3621 147.134 76.5621C147.294 76.7821 147.464 77.0021 147.644 77.2121L147.914 77.5121L148.054 77.6621L148.644 78.2721C149.414 79.0421 150.144 79.6921 150.884 80.3321C152.354 81.5921 153.804 82.7421 155.274 83.8721C156.744 85.0021 158.214 86.0821 159.704 87.1521L159.744 87.1821C162.084 88.8521 165.364 88.0421 166.644 85.4721L167.714 83.3421C168.954 80.8621 167.784 77.8421 165.184 76.8721V76.8621Z" fill="#F0C3C1"/>
<g style="mix-blend-mode:multiply" opacity="0.5">
<path d="M166.644 85.4621L167.714 83.3321C168.954 80.8521 167.784 77.8321 165.184 76.8621C163.764 76.3321 162.354 75.7821 160.964 75.2221C159.624 76.2021 156.834 78.2821 155.714 79.4021C154.594 80.5221 149.024 77.6721 146.284 74.7721C146.354 74.9621 146.424 75.1621 146.494 75.3521C146.554 75.5321 146.674 75.7421 146.784 75.9521C146.894 76.1621 147.004 76.3621 147.134 76.5621C147.294 76.7821 147.464 77.0021 147.644 77.2121L147.914 77.5121L148.054 77.6621L148.644 78.2721C149.414 79.0421 150.144 79.6921 150.884 80.3321C152.354 81.5921 153.804 82.7421 155.274 83.8721C156.744 85.0021 158.214 86.0821 159.704 87.1521L159.744 87.1821C162.084 88.8521 165.364 88.0421 166.644 85.4721V85.4621Z" fill="#F0C3C1"/>
</g>
<path d="M191.594 168.722C191.594 168.722 194.964 172.282 196.124 173.022L195.294 173.992L193.864 173.202C193.864 173.202 193.684 175.052 192.804 176.062C191.924 177.082 188.004 177.492 188.004 177.492C188.004 177.492 189.344 175.922 190.404 174.952C190.584 173.982 190.864 172.732 190.954 171.952C191.044 171.162 189.894 169.782 189.894 169.782L191.604 168.722H191.594Z" fill="#E576B5"/>
<path d="M157.124 169.062C157.124 169.062 158.704 173.702 159.444 174.852L158.284 175.382L157.314 174.072C157.314 174.072 156.374 175.672 155.154 176.232C153.934 176.792 150.444 176.352 150.444 176.352C150.444 176.352 152.504 175.002 153.434 174.222C154.004 173.422 154.784 172.402 155.194 171.722C155.604 171.042 155.134 169.302 155.134 169.302L157.134 169.052L157.124 169.062Z" fill="#E576B5"/>
<path d="M192.434 168.602C190.744 160.112 182.664 148.372 182.664 148.372L182.014 146.622L181.444 144.892C181.234 144.312 181.134 143.762 180.974 143.202C180.804 142.632 180.734 142.122 180.644 141.612C180.544 141.142 180.484 140.512 180.404 139.932C180.324 139.362 180.274 138.732 180.224 138.122C180.164 137.512 180.124 136.892 180.074 136.262C180.034 135.642 179.984 135.012 179.954 134.382C179.814 131.862 179.734 129.292 179.684 126.722C179.584 121.592 179.604 116.352 179.724 111.262L159.704 107.582C157.484 107.172 155.334 108.572 154.814 110.762V110.802L153.914 114.702C153.334 117.302 152.794 119.912 152.294 122.532C151.794 125.152 151.334 127.792 150.934 130.462C150.534 133.122 150.194 135.822 149.974 138.572C149.864 139.952 149.784 141.342 149.764 142.782C149.744 143.492 149.764 144.232 149.774 144.962L149.834 146.092C149.854 146.462 149.904 146.782 149.934 147.122C150.204 149.822 150.584 152.482 151.044 155.112C151.974 160.372 153.154 165.472 154.624 170.572L157.894 169.952C157.894 169.952 159.104 163.432 158.974 159.042C158.844 154.662 158.194 147.132 158.194 147.132C158.234 146.832 158.254 146.502 158.294 146.222L158.414 145.412C158.524 144.852 158.614 144.302 158.744 143.722C158.994 142.582 159.294 141.422 159.624 140.252C160.294 137.912 161.084 135.552 161.934 133.202C162.784 130.852 163.694 128.502 164.654 126.162C165.164 124.922 165.674 123.682 166.204 122.452C166.574 124.352 166.954 126.252 167.354 128.152C167.914 130.782 168.494 133.402 169.154 136.052C169.314 136.712 169.494 137.382 169.664 138.042C169.834 138.702 170.014 139.372 170.214 140.052C170.414 140.732 170.594 141.392 170.824 142.082C171.044 142.772 171.244 143.432 171.554 144.202C171.844 144.942 172.124 145.702 172.454 146.332C172.784 146.982 173.084 147.682 173.434 148.292L174.464 150.142L175.544 151.922C177.004 154.252 178.514 156.482 180.094 158.652C183.234 163.002 186.504 167.152 189.934 171.222L192.744 169.252C192.624 169.032 192.504 168.822 192.384 168.602H192.434Z" fill="#8351B5"/>
<path d="M163.844 77.8621C165.034 77.3521 166.224 76.9921 167.284 76.9621C169.294 76.8921 171.604 77.7521 173.594 78.0721C176.254 78.5021 179.234 78.8521 181.714 79.9621C184.374 81.1621 183.224 85.8421 180.534 90.8221C177.844 95.8021 177.704 101.462 178.654 104.822C179.594 108.192 181.974 113.612 181.974 113.612C181.974 113.612 166.684 120.682 151.964 114.572C153.804 110.562 157.004 96.9621 156.224 94.9621C155.434 92.9421 154.374 90.9021 154.494 88.6721C154.684 85.3521 156.844 82.8921 159.504 81.1421C160.964 80.1821 161.824 78.7221 163.834 77.8621H163.844Z" fill="#E576B5"/>
<path d="M170.954 74.2621C170.954 74.2621 171.404 76.9321 168.804 78.1121C166.864 78.8221 164.674 82.0221 167.044 83.1421C169.414 84.2721 173.414 82.6121 173.834 79.1221C173.424 76.5721 173.084 73.5521 173.084 73.5521L170.954 74.2621Z" fill="#F0C3C1"/>
<g style="mix-blend-mode:multiply" opacity="0.5">
<path d="M182.254 87.1221C181.104 86.6721 179.274 86.0221 178.894 86.1621C178.324 86.3721 174.984 88.0521 174.984 88.0521C174.984 88.0521 175.494 92.8921 176.054 94.6621C176.624 96.4321 176.594 100.822 174.984 102.452C173.364 104.082 174.104 105.352 176.394 106.562C178.644 107.752 165.684 117.862 152.154 114.102C152.084 114.272 152.014 114.422 151.954 114.562C166.674 120.682 181.964 113.602 181.964 113.602C181.964 113.602 179.584 108.182 178.644 104.812C177.704 101.442 177.834 95.7921 180.524 90.8121C181.214 89.5421 181.794 88.2921 182.244 87.1121L182.254 87.1221Z" fill="#E576B5"/>
</g>
<path d="M197.434 72.7521C197.374 70.8221 197.184 68.9721 196.924 67.1521C196.404 63.5221 195.664 60.0121 194.774 56.5121C194.774 56.5121 195.854 53.0721 195.434 52.1521C195.014 51.2321 193.774 49.7221 193.574 49.9621C193.374 50.2121 193.744 52.1221 193.694 52.7721C193.474 52.1021 192.084 50.0321 192.104 50.7421C192.914 52.3821 193.334 54.5521 192.844 54.5121C192.354 54.4721 190.804 53.1421 191.204 53.8921C191.604 54.6421 193.074 56.7421 193.074 56.7421C193.014 60.2521 192.794 63.7921 192.364 67.2121C192.144 68.9221 191.864 70.6021 191.474 72.1821C191.274 72.9621 191.054 73.7221 190.794 74.4021C190.654 74.7721 190.504 75.1821 190.224 75.4621C189.964 75.7221 189.654 75.8621 189.314 75.9921C188.674 76.2421 187.914 76.5121 187.154 76.7621C185.604 77.2621 183.964 77.7221 182.314 78.1621C180.674 78.5921 179.004 79.0021 177.334 79.3921C170.464 80.9821 174.964 93.7721 181.404 90.3221L181.454 90.2921C183.064 89.4221 184.664 88.5421 186.264 87.6121C187.864 86.6821 189.464 85.7321 191.074 84.6721C191.884 84.1321 192.694 83.5821 193.564 82.9121L194.224 82.3821L194.384 82.2521L194.694 81.9821C194.894 81.7921 195.094 81.6021 195.284 81.4121C195.444 81.2221 195.574 81.0421 195.714 80.8521C195.844 80.6621 195.994 80.4621 196.074 80.2921C196.254 79.9521 196.464 79.5721 196.574 79.2621C197.084 77.9421 197.244 76.8321 197.364 75.7721C197.454 74.7221 197.474 73.7321 197.454 72.7621L197.434 72.7521Z" fill="#F0C3C1"/>
<g style="mix-blend-mode:multiply" opacity="0.5">
<path d="M191.074 84.6521C191.714 84.2321 192.354 83.7921 193.014 83.3021C192.994 83.3021 186.054 86.5821 183.394 86.9421C177.514 87.6821 175.704 82.6421 175.204 80.5121C171.674 84.0321 175.794 93.3121 181.394 90.3021L181.444 90.2721C183.054 89.4021 184.654 88.5221 186.254 87.5921C187.854 86.6621 189.454 85.7121 191.064 84.6521H191.074Z" fill="#F0C3C1"/>
</g>
<g style="mix-blend-mode:multiply" opacity="0.5">
<path d="M173.554 77.2821C173.274 75.3121 173.084 73.5521 173.084 73.5521L170.954 74.2621C170.954 74.2621 171.144 75.4021 170.544 76.5221C171.284 76.9921 172.314 77.4021 173.554 77.2821Z" fill="#F0C3C1"/>
</g>
<path d="M175.124 68.6721C174.964 67.7221 174.394 66.8821 173.554 66.4121C172.644 65.9121 171.254 65.5721 169.494 66.4521C166.234 68.0921 167.064 72.9621 167.704 74.3921C168.334 75.8121 169.784 77.3121 172.524 75.2421C174.784 73.5421 175.494 70.8221 175.124 68.6621V68.6721Z" fill="#F0C3C1"/>
<path d="M167.474 66.2921C166.514 67.2521 166.334 68.8021 167.234 69.8121C167.674 70.3021 168.364 70.6321 169.424 70.3721C172.074 69.7021 173.194 69.6121 172.674 70.7221C172.154 71.8321 170.914 73.7421 171.924 72.9521C172.934 72.1721 173.644 71.5321 173.604 72.2021C173.564 72.8721 173.464 73.2121 173.014 73.5521C172.564 73.8921 172.904 75.3121 173.614 75.1221C174.324 74.9321 176.104 72.3121 176.184 69.5021C176.274 66.7021 174.274 64.9221 171.694 64.8321C169.954 64.7721 168.454 65.3221 167.474 66.2921Z" fill="#A7AEE4"/>
<g style="mix-blend-mode:multiply" opacity="0.4">
<path d="M162.174 119.502C163.014 121.872 161.864 127.672 160.804 129.892C159.734 132.112 158.584 143.872 156.904 145.242C155.224 146.612 155.984 146.692 156.904 147.842C157.754 148.902 157.814 165.262 154.554 170.242C154.584 170.342 154.604 170.452 154.634 170.552L157.904 169.932C157.904 169.932 159.114 163.412 158.984 159.022C158.854 154.642 158.204 147.112 158.204 147.112C158.244 146.812 158.264 146.482 158.304 146.202L158.424 145.392C158.534 144.832 158.624 144.282 158.754 143.702C159.004 142.562 159.304 141.402 159.634 140.232C160.304 137.892 161.094 135.532 161.944 133.182C162.794 130.832 163.704 128.482 164.664 126.142C165.174 124.902 165.684 123.662 166.214 122.432C166.584 124.332 166.964 126.232 167.364 128.132C167.924 130.762 168.504 133.382 169.164 136.032C169.324 136.692 169.504 137.362 169.674 138.022C169.844 138.682 170.024 139.352 170.224 140.032C170.424 140.712 170.604 141.372 170.834 142.062C171.054 142.752 171.254 143.412 171.564 144.182C171.624 144.342 171.684 144.502 171.744 144.652C171.744 144.652 168.544 124.702 168.874 119.942C168.874 119.942 164.584 121.552 162.134 119.482L162.174 119.502Z" fill="#524172"/>
</g>
<path d="M168.744 71.7021C168.614 72.2021 168.494 72.7221 168.504 73.2021C168.504 73.3221 168.544 73.4321 168.594 73.4721C168.634 73.5121 168.694 73.5321 168.804 73.5321C169.014 73.5321 169.264 73.4521 169.524 73.4021C169.524 73.4021 169.544 73.4021 169.544 73.4121C169.544 73.4121 169.544 73.4221 169.544 73.4321C169.364 73.6421 169.134 73.8021 168.834 73.8621C168.684 73.8921 168.464 73.8421 168.344 73.6721C168.234 73.5021 168.244 73.3421 168.254 73.2021C168.304 72.6521 168.514 72.1621 168.724 71.6921C168.724 71.6921 168.734 71.6821 168.744 71.6921C168.744 71.6921 168.754 71.7021 168.744 71.7121V71.7021Z" fill="#CC9393"/>
<path d="M189.864 41.1521C190.284 39.5821 189.454 37.7821 187.994 37.0821C189.464 35.7121 189.734 33.2321 188.594 31.5721C187.454 29.9121 185.044 29.2821 183.234 30.1721C183.574 27.7621 181.754 25.2521 179.364 24.8121C176.964 24.3721 174.384 26.0821 173.844 28.4521C172.764 27.7921 171.174 28.2121 170.554 29.3121C170.094 28.2021 168.744 27.6421 167.554 27.8521C166.374 28.0621 165.374 28.8821 164.654 29.8521C163.194 31.8121 162.844 34.8321 164.544 36.5921C163.444 36.5621 162.414 37.5421 162.394 38.6421C162.374 39.7321 163.374 40.2021 163.694 41.1121C164.044 42.1121 163.484 42.9821 164.404 43.9021C164.774 44.2721 165.264 44.4921 165.774 44.5921C164.954 46.1321 163.264 48.5121 160.494 48.9621C160.494 48.9621 166.324 49.5521 170.084 46.3821C171.144 46.6421 172.324 46.4721 173.134 45.7221C173.754 47.7121 175.344 49.5321 177.414 49.8221C178.734 50.0121 180.134 49.3521 180.914 48.3221C184.244 51.1021 189.054 51.3121 189.054 51.3121C186.674 50.5621 185.364 48.4221 184.684 46.8021C184.724 46.7821 184.764 46.7721 184.804 46.7521C185.844 46.1921 186.454 44.9121 186.214 43.7421C187.834 43.8721 189.454 42.7221 189.874 41.1521H189.864Z" fill="#7FDDBB"/>
<g style="mix-blend-mode:multiply" opacity="0.5">
<path d="M184.674 46.8021C184.674 46.8021 184.754 46.7721 184.794 46.7521C185.834 46.1921 186.444 44.9121 186.204 43.7421C187.824 43.8721 189.444 42.7221 189.864 41.1521C190.084 40.3321 189.954 39.4421 189.574 38.6821C188.754 39.0121 187.784 38.9921 187.014 38.5621C186.214 40.5021 183.474 41.3121 181.744 40.1221C181.524 40.9321 180.264 41.1821 179.744 40.5321C179.124 41.7421 177.754 42.5321 176.394 42.4621C175.034 42.3921 173.754 41.4721 173.254 40.2021C172.434 40.8521 171.094 40.6621 170.494 39.8121C169.584 40.5821 168.064 40.5121 167.234 39.6521C166.404 38.7921 166.364 37.2821 167.164 36.3821C166.554 36.2321 166.214 35.4221 166.544 34.8821C165.414 35.0521 164.454 34.8821 163.574 34.7821C163.744 35.4521 164.064 36.0721 164.554 36.5821C163.454 36.5521 162.424 37.5321 162.404 38.6321C162.384 39.7221 163.384 40.1921 163.704 41.1021C164.054 42.1021 163.494 42.9721 164.414 43.8921C164.784 44.2621 165.274 44.4821 165.784 44.5821C164.964 46.1221 163.274 48.5021 160.504 48.9521C160.504 48.9521 166.334 49.5421 170.094 46.3721C171.154 46.6321 172.334 46.4621 173.144 45.7121C173.764 47.7021 175.354 49.5221 177.424 49.8121C178.744 50.0021 180.144 49.3421 180.924 48.3121C184.254 51.0921 189.064 51.3021 189.064 51.3021C186.684 50.5521 185.374 48.4121 184.694 46.7921L184.674 46.8021Z" fill="#72CED6"/>
</g>
<path d="M126.724 69.0321L127.264 68.4921C127.404 68.3521 127.404 68.1321 127.264 67.9921C127.124 67.8521 126.904 67.8521 126.764 67.9921L126.224 68.5321C124.514 67.8621 119.314 70.5921 119.314 70.5921L124.654 75.9321C124.654 75.9321 127.384 70.7321 126.714 69.0221L126.724 69.0321Z" fill="#E167AA"/>
<g style="mix-blend-mode:multiply" opacity="0.5">
<path d="M124.664 75.9421C124.664 75.9421 126.224 72.9721 126.694 70.7921C124.484 71.5021 122.164 70.4621 121.004 69.8021C120.034 70.2321 119.324 70.6121 119.324 70.6121L124.664 75.9521V75.9421Z" fill="#E167AA"/>
</g>
<path d="M124.66 75.9368L119.321 70.5982L103.298 86.6212L108.637 91.9599L124.66 75.9368Z" fill="#8351B5"/>
<path d="M99.7538 93.8555L101.408 95.5102L106.797 90.122L105.142 88.4674L99.7538 93.8555Z" fill="#E167AA"/>
<path d="M98.1043 93.8521L101.414 97.1621C101.644 97.3921 102.014 97.3921 102.244 97.1621C102.474 96.9321 102.474 96.5621 102.244 96.3321L98.9344 93.0221C98.7044 92.7921 98.3343 92.7921 98.1043 93.0221C97.8743 93.2521 97.8743 93.6221 98.1043 93.8521Z" fill="#E167AA"/>
<path d="M125.934 75.7921L119.464 69.3221C119.074 68.9321 118.434 68.9321 118.044 69.3221C117.654 69.7121 117.654 70.3521 118.044 70.7421L124.514 77.2121C124.904 77.6021 125.544 77.6021 125.934 77.2121C126.324 76.8221 126.324 76.1821 125.934 75.7921Z" fill="#F2C71F"/>
<path d="M119.454 74.8821H117.664C117.151 74.8821 116.734 75.2985 116.734 75.8121V77.6021C116.734 78.1158 117.151 78.5321 117.664 78.5321H119.454C119.968 78.5321 120.384 78.1158 120.384 77.6021V75.8121C120.384 75.2985 119.968 74.8821 119.454 74.8821Z" fill="#F2C71F"/>
<path d="M114.654 79.6721H112.864C112.351 79.6721 111.934 80.0885 111.934 80.6021V82.3921C111.934 82.9058 112.351 83.3221 112.864 83.3221H114.654C115.168 83.3221 115.584 82.9058 115.584 82.3921V80.6021C115.584 80.0885 115.168 79.6721 114.654 79.6721Z" fill="#F2C71F"/>
<path d="M109.864 84.4721H108.074C107.561 84.4721 107.144 84.8885 107.144 85.4021V87.1921C107.144 87.7058 107.561 88.1221 108.074 88.1221H109.864C110.378 88.1221 110.794 87.7058 110.794 87.1921V85.4021C110.794 84.8885 110.378 84.4721 109.864 84.4721Z" fill="#F2C71F"/>
<g style="mix-blend-mode:multiply" opacity="0.5">
<path d="M108.644 91.9621L119.904 80.6921C114.084 82.9121 109.174 82.9921 107.024 82.8921L103.294 86.6221L108.634 91.9621H108.644Z" fill="#8351B5"/>
</g>
<path d="M109.914 91.8221L103.444 85.3521C103.054 84.9621 102.414 84.9621 102.024 85.3521C101.634 85.7421 101.634 86.3821 102.024 86.7721L108.494 93.2421C108.884 93.6321 109.524 93.6321 109.914 93.2421C110.304 92.8521 110.304 92.2221 109.914 91.8221Z" fill="#F2C71F"/>
<path d="M127.534 67.8421C128.044 66.7621 128.664 65.7321 129.354 64.7521C130.054 63.7721 130.824 62.8321 131.694 61.9721C132.124 61.5421 132.584 61.1221 133.064 60.7321C133.544 60.3421 134.044 59.9721 134.574 59.6321C135.624 58.9421 136.784 58.3921 138.014 57.9821C138.664 57.7621 139.374 58.1121 139.594 58.7721C139.814 59.4221 139.464 60.1321 138.804 60.3521C138.744 60.3721 138.684 60.3921 138.614 60.4021C137.554 60.5721 136.504 60.8721 135.494 61.3221C134.984 61.5421 134.484 61.7921 133.994 62.0721C133.504 62.3521 133.034 62.6621 132.564 62.9921C131.634 63.6521 130.764 64.4221 129.944 65.2421C129.134 66.0721 128.364 66.9721 127.704 67.9321C127.674 67.9821 127.614 67.9921 127.564 67.9621C127.524 67.9321 127.504 67.8821 127.534 67.8321V67.8421Z" fill="#A7AEE4"/>
<path d="M128.544 68.2621C129.124 67.6521 129.774 67.1121 130.464 66.6121C131.154 66.1121 131.894 65.6821 132.684 65.3021C133.464 64.9221 134.304 64.6321 135.184 64.4221L135.844 64.2821L136.524 64.1921C136.634 64.1821 136.754 64.1621 136.864 64.1521H137.204L137.894 64.1221C138.524 64.1021 139.044 64.6021 139.064 65.2321C139.084 65.8621 138.584 66.3821 137.954 66.4021C137.874 66.4021 137.804 66.4021 137.724 66.3821L137.634 66.3621L137.094 66.2621L136.814 66.2121C136.724 66.2021 136.624 66.1921 136.534 66.1921L135.974 66.1421H135.404C134.644 66.1621 133.864 66.2521 133.094 66.4521C132.324 66.6421 131.564 66.8921 130.814 67.2221C130.074 67.5521 129.344 67.9421 128.674 68.4021C128.674 68.4021 128.564 68.4221 128.534 68.3821C128.504 68.3421 128.514 68.2921 128.544 68.2521V68.2621Z" fill="#A7AEE4"/>
<path d="M126.874 66.7521C126.894 66.0421 126.974 65.3421 127.094 64.6321C127.214 63.9321 127.384 63.2321 127.594 62.5421C127.804 61.8521 128.064 61.1621 128.384 60.5021L128.634 60.0021L128.914 59.5121L129.054 59.2721L129.214 59.0321L129.534 58.5621C129.834 58.1221 130.424 58.0021 130.874 58.3021C131.324 58.6021 131.434 59.1921 131.134 59.6421C131.094 59.6921 131.054 59.7421 131.014 59.7921L130.974 59.8321L130.634 60.1721L130.464 60.3421L130.304 60.5221L129.984 60.8921L129.684 61.2821C129.284 61.8121 128.914 62.3721 128.594 62.9621C128.274 63.5521 127.974 64.1721 127.724 64.8121C127.474 65.4521 127.254 66.1121 127.094 66.7821C127.084 66.8421 127.024 66.8721 126.974 66.8621C126.924 66.8521 126.894 66.8121 126.894 66.7621L126.874 66.7521Z" fill="#A7AEE4"/>
<path d="M128.594 68.9321C129.144 68.8021 129.694 68.7221 130.254 68.6821C130.814 68.6421 131.384 68.6321 131.954 68.6721C132.524 68.7121 133.104 68.7821 133.674 68.9021C134.244 69.0121 134.814 69.2021 135.374 69.4021C135.824 69.5621 136.054 70.0621 135.894 70.5121C135.734 70.9621 135.234 71.1921 134.784 71.0321C134.724 71.0121 134.664 70.9821 134.614 70.9421L134.594 70.9221C134.174 70.6521 133.734 70.3821 133.264 70.1621C132.794 69.9421 132.304 69.7521 131.804 69.6021C131.294 69.4421 130.774 69.3321 130.244 69.2421C129.714 69.1621 129.174 69.1121 128.634 69.1121C128.574 69.1121 128.534 69.0721 128.534 69.0121C128.534 68.9621 128.564 68.9221 128.614 68.9121L128.594 68.9321Z" fill="#A7AEE4"/>
<path d="M126.144 67.1521C125.864 66.7121 125.624 66.2621 125.404 65.7921C125.184 65.3221 124.994 64.8321 124.834 64.3221C124.684 63.8121 124.554 63.2821 124.494 62.7221C124.444 62.1621 124.454 61.5721 124.584 60.9621V60.9421C124.694 60.4521 125.174 60.1421 125.664 60.2421C126.154 60.3421 126.464 60.8221 126.364 61.3121C126.344 61.3921 126.314 61.4721 126.284 61.5421C126.104 61.8921 125.974 62.3021 125.894 62.7521C125.824 63.2021 125.804 63.6721 125.814 64.1521C125.834 64.6321 125.894 65.1221 125.974 65.6121C126.064 66.1021 126.174 66.5921 126.324 67.0721C126.344 67.1321 126.314 67.1821 126.254 67.2021C126.214 67.2121 126.164 67.2021 126.134 67.1621L126.144 67.1521Z" fill="#A7AEE4"/>
<path d="M117.164 54.6021L107.854 41.3421C108.264 39.4821 107.964 37.4221 107.154 35.7921C111.134 34.7121 114.374 32.2421 111.004 27.4121C109.034 24.5821 103.304 26.4821 101.524 29.4221C102.344 27.2621 98.9643 25.0121 96.9343 26.3721C97.1043 23.6121 97.2243 20.6521 95.6443 18.2921C93.1043 14.5121 86.6543 13.9521 82.7643 16.6321C78.8743 19.3121 77.5443 24.3321 78.6743 28.6421C75.7843 26.0821 70.7643 25.8421 67.5843 28.1121C64.4043 30.3821 63.4943 34.8621 65.5643 38.0121C67.5343 41.0221 71.9843 42.4321 75.6143 41.2921C74.6243 41.8621 74.6943 43.6121 75.7343 44.3421C76.9443 45.1721 78.6243 45.0421 80.1243 44.8621C77.3643 47.1521 78.3643 51.7721 81.5243 53.5721C84.6943 55.3821 89.0543 54.6721 92.0043 52.5921C93.8343 51.2921 95.2043 49.5721 96.2543 47.6721L117.154 54.6121L117.164 54.6021Z" fill="#E167AA"/>
<g style="mix-blend-mode:multiply" opacity="0.5">
<path d="M107.854 41.3521C108.264 39.4921 107.964 37.4321 107.154 35.8021C110.804 34.8121 113.824 32.6521 111.704 28.5721C110.724 32.2021 105.994 34.5521 104.904 35.2921C106.984 36.9821 106.084 40.0021 105.724 40.9721C106.084 47.6221 96.7843 46.4121 95.2143 45.3221C88.0943 52.5721 83.2443 45.0821 83.7943 43.6321C77.4643 43.3921 77.5643 39.6421 77.9643 38.0721C70.2043 39.1321 66.5643 33.9021 65.1643 31.0321C64.1243 33.2521 64.1843 35.9221 65.5543 38.0121C67.5243 41.0221 71.9743 42.4321 75.6043 41.2921C74.6143 41.8621 74.6843 43.6121 75.7243 44.3421C76.9343 45.1721 78.6143 45.0421 80.1143 44.8621C77.3543 47.1521 78.3543 51.7721 81.5143 53.5721C84.6843 55.3821 89.0443 54.6721 91.9943 52.5921C93.8243 51.2921 95.1943 49.5721 96.2443 47.6721L117.144 54.6121L107.834 41.3521H107.854Z" fill="#E167AA"/>
</g>
<defs>
<filter id="filter0_d_1_40974" x="26.7992" y="26.7992" width="173.54" height="173.54" filterUnits="userSpaceOnUse" color-interpolation-filters="sRGB">
<feFlood flood-opacity="0" result="BackgroundImageFix"/>
<feColorMatrix in="SourceAlpha" type="matrix" values="0 0 0 0 0 0 0 0 0 0 0 0 0 0 0 0 0 0 127 0" result="hardAlpha"/>
<feOffset dx="5" dy="5"/>
<feGaussianBlur stdDeviation="5"/>
<feColorMatrix type="matrix" values="0 0 0 0 0.447059 0 0 0 0 0.313726 0 0 0 0 0.737255 0 0 0 0.55 0"/>
<feBlend mode="normal" in2="BackgroundImageFix" result="effect1_dropShadow_1_40974"/>
<feBlend mode="normal" in="SourceGraphic" in2="effect1_dropShadow_1_40974" result="shape"/>
</filter>
</defs>
</svg>
