<svg width="174" height="174" viewBox="0 0 174 174" fill="none" xmlns="http://www.w3.org/2000/svg">
<g filter="url(#filter0_d_1_41610)">
<path d="M82.18 158.558C124.579 158.558 158.95 124.187 158.95 81.7884C158.95 39.3895 124.579 5.01843 82.18 5.01843C39.7811 5.01843 5.41 39.3895 5.41 81.7884C5.41 124.187 39.7811 158.558 82.18 158.558Z" fill="white"/>
</g>
<g style="mix-blend-mode:multiply">
<path d="M82.18 158.558C124.579 158.558 158.95 124.187 158.95 81.7884C158.95 39.3895 124.579 5.01843 82.18 5.01843C39.7811 5.01843 5.41 39.3895 5.41 81.7884C5.41 124.187 39.7811 158.558 82.18 158.558Z" fill="#001971"/>
</g>
<path d="M60.8853 58.7584C58.9053 59.5684 58.9653 63.7384 59.7753 65.7184C60.5853 67.6984 62.8453 68.6484 64.8153 67.8384C66.7953 67.0284 67.7453 64.7684 66.9353 62.7984C66.1253 60.8184 62.8653 57.9584 60.8853 58.7684V58.7584Z" fill="#00DBC4"/>
<path d="M50.4853 64.8184C49.1453 65.2584 48.4153 66.7084 48.8553 68.0484C49.2953 69.3884 50.7453 70.1184 52.0853 69.6784C53.4253 69.2384 54.1553 67.7884 53.7153 66.4484C53.2753 65.1084 51.8253 64.3784 50.4853 64.8184Z" fill="#00DBC4"/>
<path d="M37.4553 49.0384C36.9953 47.6384 34.2253 47.2384 32.8253 47.6984C31.4253 48.1584 30.6753 49.6684 31.1353 51.0584C31.5953 52.4584 33.1053 53.2084 34.4953 52.7484C35.8953 52.2884 37.9153 50.4384 37.4553 49.0384Z" fill="#00DBC4"/>
<path d="M98.6553 19.7484C95.2553 12.2884 86.8153 8.63842 78.7953 10.6884C73.3553 5.30842 64.1453 3.38842 55.1153 6.47842C49.8553 8.27842 45.5153 11.4784 42.5553 15.3484C40.2353 18.3784 39.7153 22.1484 40.7053 25.5384C41.2753 27.4684 40.0753 29.8084 38.0053 30.6784C35.5253 31.7184 33.7653 33.9784 33.8553 36.4384C33.8853 37.2584 34.0253 38.0784 34.2753 38.8884C35.1653 41.6984 37.3053 43.7684 40.0353 44.8584C41.6253 45.4884 42.6053 46.9284 42.7853 48.5684C42.8753 49.4184 43.0953 50.2584 43.4453 51.0784C45.4753 55.8684 51.4653 58.0184 56.8153 55.8884C57.5253 55.6084 58.2053 55.2584 58.8253 54.8584C60.6953 53.6684 63.0153 53.4984 64.9553 54.2984C65.5653 54.5484 66.1953 54.7584 66.8453 54.9184C67.9953 55.1984 69.0053 55.7684 69.7853 56.5784C71.9653 58.8684 75.6353 59.6384 79.0253 58.2384C83.3353 56.4584 85.5453 51.8484 83.9653 47.9484C83.8953 47.7884 83.8253 47.6284 83.7453 47.4684C85.6053 46.5384 87.0953 45.1084 88.0653 43.4384C88.3253 42.9984 88.7253 42.6384 89.2153 42.4384C89.3453 42.3884 89.4753 42.3284 89.6053 42.2684C98.4353 38.2484 102.485 28.1684 98.6453 19.7384L98.6553 19.7484Z" fill="#00DBC4"/>
<path d="M88.7253 47.3584C88.0053 47.6884 87.6853 48.5384 88.0153 49.2584C88.3453 49.9784 89.1953 50.2984 89.9153 49.9684C90.6353 49.6384 90.9553 48.7884 90.6253 48.0684C90.2953 47.3484 89.4453 47.0284 88.7253 47.3584Z" fill="#00DBC4"/>
<path d="M101.315 44.8684C98.1653 45.5384 94.6953 41.5084 94.6953 41.5084C94.6953 41.5084 97.7253 49.0984 102.145 47.8784C104.335 47.2784 103.715 44.3484 101.305 44.8584L101.315 44.8684Z" fill="#00DBC4"/>
<path d="M93.2153 53.5484C91.9853 54.9884 93.7353 56.4784 94.9453 55.2284C97.4053 52.6884 93.3853 47.8384 93.3853 47.8384C93.3853 47.8384 94.8253 51.6684 93.2153 53.5484Z" fill="#00DBC4"/>
<g style="mix-blend-mode:screen" opacity="0.4">
<path d="M131.55 80.7885C131.55 79.7385 130.24 78.9285 127.54 78.3285C125.35 77.8385 122.5 77.5585 119.45 77.5285C122.45 76.9585 125.21 76.1885 127.28 75.3285C129.84 74.2685 130.99 73.2485 130.81 72.2085C130.63 71.1685 129.19 70.6085 126.43 70.4885C124.19 70.3885 121.33 70.6085 118.32 71.0985C121.18 70.0185 123.76 68.7785 125.65 67.5785C127.98 66.0885 128.94 64.8885 128.58 63.8985C128.22 62.9085 126.71 62.5985 123.97 62.9685C121.75 63.2585 118.97 63.9685 116.09 64.9785C118.72 63.4185 121.05 61.7485 122.7 60.2385C124.74 58.3685 125.47 57.0185 124.95 56.1085C124.42 55.1985 122.88 55.1585 120.25 55.9885C118.11 56.6585 115.5 57.8485 112.84 59.3385C115.16 57.3485 117.16 55.2985 118.52 53.5185C120.2 51.3185 120.69 49.8685 120.02 49.0585C119.34 48.2485 117.82 48.4785 115.37 49.7585C113.38 50.7885 111.02 52.4085 108.65 54.3485C110.59 51.9885 112.2 49.6185 113.24 47.6285C114.52 45.1785 114.75 43.6485 113.94 42.9785C113.13 42.2985 111.67 42.7885 109.48 44.4785C107.7 45.8385 105.65 47.8485 103.66 50.1585C105.16 47.4985 106.34 44.8885 107.01 42.7485C107.84 40.1085 107.8 38.5685 106.89 38.0485C105.98 37.5185 104.63 38.2585 102.76 40.2985C101.25 41.9485 99.58 44.2785 98.02 46.9085C99.03 44.0285 99.74 41.2485 100.03 39.0285C100.39 36.2885 100.08 34.7785 99.09 34.4185C98.1 34.0585 96.9 35.0185 95.41 37.3485C94.21 39.2385 92.97 41.8185 91.89 44.6785C92.38 41.6685 92.6 38.8085 92.5 36.5685C92.38 33.8085 91.82 32.3685 90.78 32.1885C89.74 32.0085 88.72 33.1585 87.66 35.7185C86.8 37.7885 86.03 40.5485 85.46 43.5485C85.42 40.4985 85.14 37.6385 84.66 35.4585C84.06 32.7585 83.26 31.4485 82.2 31.4485C81.14 31.4485 80.34 32.7585 79.74 35.4585C79.25 37.6485 78.97 40.4985 78.94 43.5485C78.37 40.5485 77.6 37.7885 76.74 35.7185C75.68 33.1585 74.66 32.0085 73.62 32.1885C72.58 32.3685 72.02 33.8085 71.9 36.5685C71.8 38.8085 72.02 41.6685 72.51 44.6785C71.43 41.8185 70.19 39.2385 68.99 37.3485C67.5 35.0185 66.3 34.0585 65.31 34.4185C64.32 34.7785 64.01 36.2885 64.37 39.0285C64.66 41.2485 65.37 44.0285 66.38 46.9085C64.82 44.2785 63.15 41.9485 61.64 40.2985C59.77 38.2585 58.42 37.5185 57.51 38.0485C56.6 38.5785 56.56 40.1185 57.39 42.7485C58.06 44.8885 59.25 47.4985 60.74 50.1585C58.75 47.8385 56.7 45.8385 54.92 44.4785C52.73 42.7985 51.27 42.3085 50.46 42.9785C49.65 43.6585 49.88 45.1785 51.16 47.6285C52.19 49.6185 53.81 51.9785 55.75 54.3485C53.39 52.4085 51.02 50.7985 49.03 49.7585C46.58 48.4785 45.05 48.2485 44.38 49.0585C43.7 49.8685 44.19 51.3285 45.88 53.5185C47.24 55.2985 49.25 57.3485 51.56 59.3385C48.9 57.8485 46.29 56.6585 44.15 55.9885C41.51 55.1585 39.97 55.1985 39.45 56.1085C38.92 57.0185 39.66 58.3685 41.7 60.2385C43.35 61.7485 45.68 63.4185 48.31 64.9785C45.43 63.9685 42.65 63.2585 40.43 62.9685C37.69 62.6085 36.18 62.9085 35.82 63.8985C35.46 64.8885 36.42 66.0885 38.75 67.5785C40.64 68.7785 43.22 70.0285 46.08 71.0985C43.07 70.6085 40.21 70.3885 37.97 70.4885C35.21 70.6085 33.77 71.1685 33.59 72.2085C33.41 73.2485 34.56 74.2685 37.12 75.3285C39.19 76.1885 41.95 76.9585 44.95 77.5285C41.9 77.5685 39.04 77.8485 36.86 78.3285C34.16 78.9285 32.85 79.7285 32.85 80.7885C32.85 81.8485 34.16 82.6485 36.86 83.2485C39.05 83.7385 41.9 84.0185 44.95 84.0485C41.95 84.6185 39.19 85.3885 37.12 86.2485C34.56 87.3085 33.41 88.3285 33.59 89.3685C33.77 90.4085 35.21 90.9685 37.97 91.0885C38.32 91.1085 38.69 91.1085 39.07 91.1085C41.11 91.1085 43.54 90.8885 46.08 90.4685C43.22 91.5485 40.64 92.7885 38.75 93.9885C36.42 95.4785 35.46 96.6785 35.82 97.6685C36.08 98.3885 36.96 98.7485 38.48 98.7485C39.04 98.7485 39.69 98.6985 40.43 98.5985C42.65 98.3085 45.43 97.5985 48.31 96.5885C45.68 98.1485 43.35 99.8185 41.7 101.328C39.66 103.198 38.93 104.548 39.45 105.458C39.73 105.938 40.28 106.178 41.12 106.178C41.89 106.178 42.9 105.978 44.16 105.578C46.3 104.908 48.91 103.718 51.57 102.228C49.25 104.218 47.25 106.268 45.89 108.048C44.21 110.248 43.72 111.698 44.39 112.508C44.65 112.818 45.04 112.978 45.57 112.978C46.39 112.978 47.55 112.588 49.05 111.808C51.04 110.778 53.4 109.158 55.77 107.218C53.84 109.578 52.22 111.948 51.18 113.938C49.9 116.388 49.67 117.918 50.48 118.588C50.71 118.788 51 118.878 51.35 118.878C52.2 118.878 53.39 118.288 54.95 117.088C56.73 115.728 58.78 113.718 60.77 111.408C59.27 114.068 58.09 116.678 57.42 118.818C56.59 121.458 56.63 122.998 57.54 123.518C57.73 123.628 57.94 123.678 58.17 123.678C59.04 123.678 60.2 122.878 61.68 121.268C63.19 119.618 64.86 117.288 66.42 114.658C65.41 117.538 64.7 120.318 64.41 122.538C64.05 125.278 64.35 126.788 65.35 127.148C65.48 127.198 65.62 127.218 65.77 127.218C66.68 127.218 67.75 126.228 69.03 124.208C70.23 122.318 71.47 119.738 72.55 116.878C72.06 119.888 71.84 122.748 71.94 124.988C72.06 127.748 72.62 129.188 73.66 129.368C73.73 129.378 73.8 129.388 73.87 129.388C74.83 129.388 75.79 128.228 76.77 125.838C77.63 123.768 78.4 121.008 78.97 118.008C79.01 121.058 79.29 123.918 79.77 126.098C80.37 128.798 81.17 130.108 82.23 130.108C83.29 130.108 84.09 128.798 84.69 126.098C85.18 123.908 85.46 121.058 85.49 118.008C86.06 121.008 86.83 123.768 87.69 125.838C88.68 128.218 89.63 129.388 90.59 129.388C90.66 129.388 90.73 129.388 90.8 129.368C91.84 129.188 92.4 127.748 92.52 124.988C92.62 122.748 92.4 119.888 91.91 116.878C92.99 119.738 94.23 122.318 95.43 124.208C96.71 126.228 97.79 127.218 98.69 127.218C98.83 127.218 98.97 127.198 99.11 127.148C100.1 126.788 100.41 125.278 100.05 122.538C99.76 120.318 99.05 117.538 98.04 114.658C99.6 117.288 101.27 119.618 102.78 121.268C104.26 122.888 105.42 123.678 106.29 123.678C106.52 123.678 106.73 123.618 106.92 123.518C107.83 122.988 107.87 121.448 107.04 118.818C106.37 116.678 105.18 114.068 103.69 111.408C105.68 113.728 107.73 115.728 109.51 117.088C111.07 118.288 112.26 118.878 113.11 118.878C113.45 118.878 113.74 118.778 113.98 118.588C114.79 117.908 114.56 116.388 113.28 113.938C112.25 111.948 110.63 109.588 108.69 107.218C111.05 109.158 113.42 110.768 115.41 111.808C116.91 112.588 118.06 112.978 118.89 112.978C119.41 112.978 119.8 112.818 120.07 112.508C120.75 111.698 120.26 110.238 118.57 108.048C117.21 106.268 115.2 104.218 112.89 102.228C115.55 103.718 118.16 104.908 120.3 105.578C121.56 105.978 122.57 106.178 123.34 106.178C124.18 106.178 124.73 105.938 125.01 105.458C125.54 104.548 124.8 103.198 122.76 101.328C121.11 99.8185 118.78 98.1485 116.15 96.5885C119.03 97.5985 121.81 98.3085 124.03 98.5985C124.77 98.6985 125.42 98.7485 125.98 98.7485C127.5 98.7485 128.38 98.3885 128.64 97.6685C129 96.6785 128.04 95.4785 125.71 93.9885C123.82 92.7885 121.23 91.5385 118.38 90.4685C120.92 90.8885 123.35 91.1085 125.39 91.1085C125.77 91.1085 126.14 91.1085 126.49 91.0885C129.25 90.9685 130.69 90.4085 130.87 89.3685C131.05 88.3285 129.9 87.3085 127.34 86.2485C125.27 85.3885 122.51 84.6185 119.51 84.0485C122.56 84.0085 125.42 83.7285 127.6 83.2485C130.3 82.6485 131.61 81.8485 131.61 80.7885H131.55ZM82.18 117.508C61.9 117.508 45.46 101.068 45.46 80.7885C45.46 60.5085 61.9 44.0685 82.18 44.0685C102.46 44.0685 118.9 60.5085 118.9 80.7885C118.9 101.068 102.46 117.508 82.18 117.508Z" fill="#4925C5"/>
<path d="M82.18 114.098C77.68 114.098 73.32 113.218 69.22 111.478C65.25 109.798 61.69 107.398 58.63 104.338C55.57 101.278 53.17 97.7185 51.49 93.7485C49.75 89.6485 48.87 85.2785 48.87 80.7885C48.87 76.2985 49.75 71.9285 51.49 67.8285C53.17 63.8585 55.57 60.2985 58.63 57.2385C61.69 54.1785 65.25 51.7784 69.22 50.0984C73.32 48.3584 77.69 47.4785 82.18 47.4785C86.67 47.4785 91.04 48.3584 95.14 50.0984C99.11 51.7784 102.67 54.1785 105.73 57.2385C108.79 60.2985 111.19 63.8585 112.87 67.8285C114.61 71.9285 115.49 76.2985 115.49 80.7885C115.49 85.2785 114.61 89.6485 112.87 93.7485C111.19 97.7185 108.79 101.278 105.73 104.338C102.67 107.398 99.11 109.798 95.14 111.478C91.04 113.218 86.67 114.098 82.18 114.098ZM82.18 48.6385C77.84 48.6385 73.63 49.4885 69.67 51.1685C65.84 52.7885 62.4 55.1085 59.45 58.0585C56.5 61.0085 54.18 64.4485 52.56 68.2785C50.88 72.2384 50.03 76.4485 50.03 80.7885C50.03 85.1285 50.88 89.3385 52.56 93.2985C54.18 97.1285 56.5 100.568 59.45 103.518C62.4 106.468 65.84 108.788 69.67 110.408C73.63 112.088 77.84 112.938 82.18 112.938C86.52 112.938 90.73 112.088 94.69 110.408C98.52 108.788 101.96 106.468 104.91 103.518C107.86 100.568 110.18 97.1285 111.8 93.2985C113.48 89.3385 114.33 85.1285 114.33 80.7885C114.33 76.4485 113.48 72.2384 111.8 68.2785C110.18 64.4485 107.86 61.0085 104.91 58.0585C101.96 55.1085 98.52 52.7885 94.69 51.1685C90.73 49.4885 86.52 48.6385 82.18 48.6385Z" fill="#4925C5"/>
<path d="M82.18 116.198C77.4 116.198 72.76 115.268 68.4 113.418C64.18 111.638 60.4 109.078 57.14 105.828C53.89 102.578 51.33 98.7885 49.55 94.5685C47.71 90.2085 46.77 85.5685 46.77 80.7885C46.77 76.0085 47.7 71.3685 49.55 67.0085C51.33 62.7985 53.89 59.0085 57.14 55.7485C60.39 52.4985 64.18 49.9385 68.4 48.1585C72.76 46.3185 77.4 45.3785 82.18 45.3785C86.96 45.3785 91.6 46.3085 95.96 48.1585C100.17 49.9385 103.96 52.4985 107.22 55.7485C110.47 58.9985 113.03 62.7885 114.81 67.0085C116.65 71.3685 117.59 76.0085 117.59 80.7885C117.59 85.5685 116.66 90.2085 114.81 94.5685C113.03 98.7785 110.47 102.568 107.22 105.828C103.97 109.078 100.18 111.638 95.96 113.418C91.6 115.258 86.96 116.198 82.18 116.198ZM82.18 46.1485C77.5 46.1485 72.96 47.0585 68.7 48.8685C64.58 50.6085 60.87 53.1085 57.68 56.2985C54.49 59.4885 52 63.1885 50.25 67.3185C48.45 71.5885 47.53 76.1185 47.53 80.7985C47.53 85.4785 48.44 90.0185 50.25 94.2785C51.99 98.3985 54.49 102.108 57.68 105.298C60.87 108.478 64.57 110.978 68.7 112.728C72.97 114.528 77.5 115.448 82.18 115.448C86.86 115.448 91.4 114.538 95.66 112.728C99.78 110.988 103.49 108.488 106.68 105.298C109.87 102.108 112.36 98.4085 114.11 94.2785C115.91 90.0085 116.83 85.4785 116.83 80.7985C116.83 76.1185 115.92 71.5785 114.11 67.3185C112.37 63.1985 109.87 59.4885 106.68 56.2985C103.49 53.1085 99.79 50.6185 95.66 48.8685C91.39 47.0685 86.86 46.1485 82.18 46.1485Z" fill="#4925C5"/>
<path d="M82.65 131.648C82.65 131.228 82.97 130.888 83.38 130.878C83.8 130.878 84.14 131.198 84.15 131.608C84.16 132.028 83.83 132.368 83.42 132.378H83.4C82.99 132.378 82.66 132.048 82.65 131.648ZM77.73 132.208C77.32 132.168 77.01 131.808 77.04 131.398C77.08 130.988 77.44 130.678 77.85 130.708C78.26 130.738 78.57 131.108 78.54 131.518C78.51 131.908 78.18 132.208 77.79 132.208C77.79 132.208 77.75 132.208 77.73 132.208ZM88.25 131.288C88.19 130.878 88.48 130.498 88.9 130.438C89.31 130.378 89.69 130.668 89.75 131.088C89.81 131.498 89.52 131.878 89.1 131.938C89.1 131.938 89.03 131.938 89 131.938C88.63 131.938 88.31 131.668 88.26 131.288H88.25ZM72.08 131.418C71.67 131.338 71.41 130.938 71.49 130.538C71.57 130.128 71.97 129.868 72.38 129.948C72.79 130.028 73.05 130.428 72.97 130.828C72.9 131.188 72.58 131.438 72.23 131.438C72.23 131.438 72.13 131.438 72.08 131.428V131.418ZM93.78 130.318C93.68 129.918 93.92 129.508 94.33 129.408C94.73 129.308 95.14 129.548 95.24 129.958C95.34 130.358 95.1 130.768 94.69 130.868C94.63 130.888 94.57 130.888 94.51 130.888C94.17 130.888 93.87 130.658 93.78 130.318ZM66.56 130.008C66.16 129.878 65.94 129.458 66.07 129.068C66.2 128.668 66.62 128.448 67.01 128.578C67.41 128.708 67.63 129.128 67.5 129.528C67.4 129.848 67.1 130.058 66.78 130.058C66.7 130.058 66.63 130.048 66.55 130.018L66.56 130.008ZM99.17 128.738C99.03 128.348 99.22 127.918 99.61 127.768C100 127.628 100.43 127.818 100.58 128.208C100.72 128.598 100.53 129.028 100.14 129.178C100.05 129.208 99.97 129.228 99.88 129.228C99.57 129.228 99.29 129.038 99.17 128.738ZM61.23 127.988C60.85 127.818 60.68 127.378 60.85 126.998C61.02 126.618 61.46 126.448 61.84 126.618C62.22 126.788 62.39 127.228 62.22 127.608C62.1 127.888 61.82 128.058 61.53 128.058C61.43 128.058 61.32 128.038 61.22 127.998L61.23 127.988ZM104.35 126.568C104.16 126.198 104.31 125.748 104.68 125.558C105.05 125.368 105.5 125.518 105.69 125.888C105.88 126.258 105.73 126.708 105.36 126.898C105.25 126.958 105.14 126.978 105.02 126.978C104.74 126.978 104.48 126.828 104.35 126.568ZM56.16 125.398C55.8 125.188 55.68 124.728 55.89 124.368C56.1 124.008 56.56 123.888 56.92 124.098C57.28 124.308 57.4 124.768 57.19 125.128C57.05 125.368 56.8 125.498 56.54 125.498C56.41 125.498 56.28 125.468 56.16 125.398ZM109.26 123.848C109.03 123.498 109.13 123.028 109.48 122.808C109.83 122.578 110.3 122.678 110.52 123.028C110.75 123.378 110.65 123.838 110.3 124.068C110.17 124.148 110.03 124.188 109.89 124.188C109.64 124.188 109.4 124.068 109.26 123.848ZM51.41 122.258C51.08 122.008 51.01 121.538 51.25 121.208C51.5 120.878 51.97 120.808 52.3 121.048C52.63 121.298 52.7 121.768 52.46 122.098C52.31 122.298 52.09 122.398 51.85 122.398C51.69 122.398 51.54 122.348 51.4 122.248L51.41 122.258ZM113.84 120.588C113.58 120.268 113.62 119.788 113.94 119.528C114.26 119.268 114.74 119.308 115 119.628C115.26 119.948 115.22 120.428 114.9 120.688C114.76 120.808 114.59 120.858 114.42 120.858C114.2 120.858 113.99 120.768 113.84 120.588ZM47.03 118.608C46.73 118.328 46.71 117.848 46.99 117.548C47.27 117.248 47.75 117.228 48.05 117.508C48.35 117.788 48.37 118.268 48.09 118.568C47.94 118.728 47.74 118.808 47.54 118.808C47.36 118.808 47.17 118.738 47.03 118.608ZM118.03 116.848C117.73 116.558 117.73 116.078 118.02 115.788C118.31 115.488 118.79 115.488 119.08 115.778C119.38 116.068 119.38 116.548 119.09 116.848C118.94 116.998 118.75 117.078 118.55 117.078C118.36 117.078 118.17 117.008 118.02 116.868L118.03 116.848ZM43.07 114.508C42.8 114.198 42.83 113.718 43.15 113.448C43.46 113.178 43.94 113.208 44.21 113.528C44.48 113.838 44.45 114.318 44.13 114.588C43.99 114.708 43.81 114.768 43.64 114.768C43.43 114.768 43.22 114.678 43.07 114.508ZM121.79 112.678C121.46 112.418 121.4 111.948 121.66 111.618C121.92 111.288 122.39 111.228 122.72 111.488C123.05 111.748 123.11 112.218 122.85 112.548C122.7 112.738 122.48 112.838 122.26 112.838C122.1 112.838 121.93 112.788 121.8 112.678H121.79ZM39.59 109.998C39.35 109.658 39.44 109.188 39.78 108.948C40.12 108.708 40.59 108.798 40.83 109.138C41.07 109.478 40.98 109.948 40.64 110.188C40.51 110.278 40.36 110.318 40.21 110.318C39.97 110.318 39.74 110.208 39.59 109.988V109.998ZM125.07 108.118C124.72 107.898 124.61 107.438 124.83 107.078C125.05 106.728 125.51 106.618 125.87 106.828C126.22 107.048 126.33 107.508 126.11 107.868C125.97 108.098 125.72 108.228 125.47 108.228C125.34 108.228 125.2 108.188 125.08 108.118H125.07ZM36.63 105.138C36.43 104.768 36.57 104.318 36.94 104.118C37.31 103.918 37.76 104.058 37.96 104.428C38.16 104.798 38.02 105.248 37.65 105.448C37.54 105.508 37.41 105.538 37.29 105.538C37.02 105.538 36.76 105.398 36.63 105.138ZM127.83 103.228C127.45 103.048 127.29 102.598 127.47 102.228C127.65 101.848 128.1 101.688 128.47 101.868C128.85 102.048 129.01 102.498 128.83 102.868C128.7 103.138 128.43 103.298 128.15 103.298C128.04 103.298 127.93 103.278 127.83 103.228ZM34.23 99.9785C34.08 99.5885 34.26 99.1585 34.65 98.9985C35.04 98.8485 35.47 99.0285 35.63 99.4185C35.78 99.8085 35.6 100.238 35.21 100.398C35.12 100.438 35.02 100.448 34.93 100.448C34.63 100.448 34.35 100.268 34.23 99.9785ZM130.03 98.0585C129.64 97.9185 129.43 97.4985 129.56 97.0985C129.69 96.7085 130.12 96.4985 130.52 96.6285C130.91 96.7685 131.12 97.1885 130.99 97.5885C130.88 97.8985 130.59 98.0985 130.28 98.0985C130.2 98.0985 130.12 98.0885 130.03 98.0585ZM32.41 94.5785C32.3 94.1785 32.53 93.7585 32.93 93.6485C33.33 93.5385 33.75 93.7685 33.86 94.1785C33.97 94.5785 33.74 94.9985 33.33 95.1085C33.26 95.1285 33.2 95.1385 33.13 95.1385C32.8 95.1385 32.5 94.9185 32.4 94.5885L32.41 94.5785ZM131.64 92.6685C131.23 92.5785 130.98 92.1785 131.07 91.7685C131.16 91.3585 131.56 91.1085 131.97 91.1985C132.38 91.2885 132.63 91.6885 132.54 92.0985C132.46 92.4485 132.15 92.6885 131.81 92.6885C131.76 92.6885 131.7 92.6885 131.65 92.6685H131.64ZM31.2 89.0085C31.13 88.5985 31.41 88.2085 31.82 88.1485C32.23 88.0785 32.62 88.3585 32.68 88.7685C32.75 89.1785 32.47 89.5685 32.06 89.6285C32.06 89.6285 31.98 89.6285 31.94 89.6285C31.58 89.6285 31.26 89.3685 31.2 88.9985V89.0085ZM132.64 87.1485C132.23 87.0985 131.93 86.7285 131.97 86.3185C132.02 85.9085 132.39 85.6085 132.8 85.6485C133.21 85.6985 133.51 86.0685 133.47 86.4785C133.43 86.8685 133.1 87.1485 132.72 87.1485C132.72 87.1485 132.66 87.1485 132.64 87.1485ZM30.61 83.3485C30.59 82.9285 30.91 82.5785 31.33 82.5585C31.75 82.5385 32.1 82.8585 32.12 83.2785C32.14 83.6985 31.82 84.0485 31.4 84.0685H31.36C30.96 84.0685 30.63 83.7585 30.61 83.3485ZM132.28 80.7985C132.28 80.3785 132.62 80.0485 133.03 80.0485C133.45 80.0485 133.78 80.3885 133.78 80.7985C133.78 81.2185 133.44 81.5485 133.03 81.5485C132.61 81.5485 132.28 81.2085 132.28 80.7985ZM31.35 78.4485C30.93 78.4285 30.62 78.0685 30.64 77.6485C30.66 77.2285 31.02 76.9185 31.44 76.9385C31.85 76.9585 32.17 77.3185 32.15 77.7385C32.13 78.1385 31.79 78.4485 31.4 78.4485C31.4 78.4485 31.37 78.4485 31.35 78.4485ZM132.04 75.8485C132 75.4385 132.3 75.0685 132.72 75.0285C133.13 74.9885 133.5 75.2885 133.54 75.7085C133.58 76.1185 133.28 76.4885 132.86 76.5285C132.86 76.5285 132.81 76.5285 132.79 76.5285C132.41 76.5285 132.08 76.2385 132.04 75.8485ZM31.92 72.8585C31.51 72.7885 31.24 72.3985 31.31 71.9885C31.38 71.5785 31.77 71.3085 32.18 71.3785C32.59 71.4485 32.86 71.8385 32.79 72.2485C32.73 72.6185 32.41 72.8785 32.05 72.8785C32.05 72.8785 31.96 72.8785 31.92 72.8685V72.8585ZM131.2 70.3785C131.11 69.9685 131.37 69.5685 131.78 69.4885C132.19 69.3985 132.59 69.6585 132.67 70.0685C132.76 70.4785 132.5 70.8785 132.09 70.9585C132.04 70.9685 131.98 70.9785 131.93 70.9785C131.58 70.9785 131.27 70.7385 131.19 70.3785H131.2ZM33.09 67.3685C32.69 67.2485 32.46 66.8385 32.58 66.4385C32.7 66.0385 33.11 65.8085 33.51 65.9285C33.91 66.0485 34.14 66.4585 34.02 66.8585C33.92 67.1885 33.62 67.3985 33.3 67.3985C33.23 67.3985 33.16 67.3985 33.09 67.3685ZM129.75 65.0385C129.62 64.6485 129.83 64.2185 130.23 64.0885C130.63 63.9585 131.05 64.1685 131.18 64.5685C131.31 64.9585 131.1 65.3885 130.7 65.5185C130.62 65.5485 130.54 65.5585 130.46 65.5585C130.14 65.5585 129.85 65.3585 129.75 65.0385ZM34.86 62.0385C34.48 61.8785 34.29 61.4385 34.45 61.0585C34.61 60.6785 35.05 60.4885 35.43 60.6485C35.81 60.8085 36 61.2485 35.84 61.6285C35.72 61.9185 35.44 62.0985 35.14 62.0985C35.04 62.0985 34.95 62.0785 34.85 62.0385H34.86ZM127.72 59.8885C127.55 59.5085 127.72 59.0685 128.09 58.8885C128.47 58.7185 128.91 58.8885 129.09 59.2585C129.26 59.6385 129.09 60.0785 128.72 60.2585C128.62 60.3085 128.51 60.3285 128.41 60.3285C128.13 60.3285 127.85 60.1685 127.73 59.8885H127.72ZM37.22 56.9385C36.86 56.7385 36.72 56.2785 36.92 55.9185C37.12 55.5585 37.58 55.4185 37.94 55.6185C38.3 55.8185 38.44 56.2785 38.24 56.6385C38.1 56.8885 37.84 57.0285 37.58 57.0285C37.46 57.0285 37.33 56.9985 37.22 56.9385ZM125.14 54.9985C124.93 54.6385 125.04 54.1785 125.4 53.9685C125.76 53.7585 126.22 53.8685 126.43 54.2285C126.64 54.5885 126.53 55.0485 126.17 55.2585C126.05 55.3285 125.91 55.3685 125.78 55.3685C125.52 55.3685 125.28 55.2385 125.13 55.0085L125.14 54.9985ZM40.13 52.1285C39.79 51.8885 39.71 51.4185 39.95 51.0785C40.19 50.7385 40.66 50.6585 41 50.8985C41.34 51.1385 41.42 51.6085 41.18 51.9485C41.03 52.1585 40.8 52.2685 40.56 52.2685C40.41 52.2685 40.26 52.2285 40.13 52.1285ZM122.03 50.4185C121.78 50.0885 121.84 49.6185 122.17 49.3585C122.5 49.1085 122.97 49.1685 123.23 49.4985C123.48 49.8285 123.42 50.2985 123.09 50.5585C122.95 50.6585 122.79 50.7085 122.63 50.7085C122.4 50.7085 122.18 50.6085 122.03 50.4085V50.4185ZM43.55 47.6685C43.24 47.3885 43.21 46.9185 43.48 46.6085C43.76 46.2985 44.23 46.2685 44.54 46.5485C44.85 46.8285 44.88 47.2985 44.61 47.6085C44.46 47.7785 44.25 47.8585 44.05 47.8585C43.87 47.8585 43.69 47.7985 43.55 47.6685ZM118.44 46.2085C118.15 45.9085 118.16 45.4285 118.47 45.1485C118.77 44.8585 119.25 44.8685 119.53 45.1685C119.82 45.4685 119.81 45.9485 119.5 46.2385C119.35 46.3785 119.17 46.4485 118.98 46.4485C118.78 46.4485 118.58 46.3685 118.43 46.2185L118.44 46.2085ZM47.44 43.6085C47.16 43.2985 47.18 42.8285 47.49 42.5485C47.8 42.2685 48.27 42.2885 48.55 42.5985C48.83 42.9085 48.81 43.3785 48.5 43.6585C48.36 43.7885 48.18 43.8585 47.99 43.8585C47.78 43.8585 47.58 43.7785 47.43 43.6085H47.44ZM114.41 42.4185C114.09 42.1485 114.05 41.6785 114.32 41.3585C114.59 41.0385 115.06 40.9985 115.38 41.2685C115.7 41.5385 115.74 42.0085 115.47 42.3285C115.32 42.5085 115.11 42.5985 114.89 42.5985C114.72 42.5985 114.55 42.5385 114.41 42.4185ZM51.74 40.0085C51.5 39.6685 51.57 39.1985 51.91 38.9585C52.25 38.7185 52.72 38.7885 52.96 39.1285C53.2 39.4685 53.13 39.9385 52.79 40.1785C52.66 40.2785 52.5 40.3185 52.35 40.3185C52.12 40.3185 51.89 40.2085 51.74 40.0085ZM109.98 39.0985C109.63 38.8685 109.54 38.3985 109.77 38.0585C110 37.7085 110.47 37.6185 110.81 37.8485C111.16 38.0785 111.25 38.5485 111.02 38.8885C110.87 39.1085 110.64 39.2185 110.39 39.2185C110.25 39.2185 110.1 39.1785 109.97 39.0885L109.98 39.0985ZM56.41 36.8985C56.2 36.5385 56.33 36.0785 56.69 35.8685C57.05 35.6585 57.51 35.7885 57.72 36.1485C57.93 36.5085 57.8 36.9685 57.44 37.1785C57.32 37.2485 57.19 37.2785 57.07 37.2785C56.81 37.2785 56.55 37.1385 56.41 36.8985ZM105.22 36.2785C104.85 36.0885 104.71 35.6285 104.9 35.2585C105.09 34.8885 105.55 34.7485 105.92 34.9385C106.29 35.1285 106.43 35.5885 106.24 35.9485C106.11 36.2085 105.84 36.3585 105.57 36.3585C105.45 36.3585 105.33 36.3285 105.22 36.2685V36.2785ZM61.4 34.3285C61.24 33.9485 61.41 33.5085 61.8 33.3385C62.18 33.1785 62.62 33.3485 62.79 33.7285C62.95 34.1085 62.78 34.5585 62.4 34.7185C62.3 34.7585 62.2 34.7785 62.1 34.7785C61.81 34.7785 61.53 34.6085 61.41 34.3185L61.4 34.3285ZM100.17 34.0085C99.78 33.8585 99.59 33.4185 99.74 33.0385C99.89 32.6485 100.33 32.4585 100.71 32.6085C101.1 32.7585 101.29 33.1985 101.14 33.5785C101.02 33.8785 100.74 34.0585 100.44 34.0585C100.35 34.0585 100.26 34.0385 100.17 34.0085ZM66.64 32.3285C66.52 31.9285 66.74 31.5085 67.14 31.3885C67.54 31.2685 67.96 31.4885 68.08 31.8885C68.2 32.2885 67.98 32.7085 67.58 32.8285C67.51 32.8485 67.43 32.8585 67.36 32.8585C67.04 32.8585 66.74 32.6485 66.64 32.3285ZM94.9 32.3085C94.5 32.1985 94.26 31.7885 94.36 31.3885C94.47 30.9885 94.88 30.7485 95.28 30.8485C95.68 30.9585 95.92 31.3685 95.82 31.7685C95.73 32.1085 95.43 32.3285 95.09 32.3285C95.03 32.3285 94.96 32.3285 94.9 32.3085ZM72.07 30.9085C71.99 30.4985 72.26 30.1085 72.67 30.0285C73.08 29.9485 73.47 30.2185 73.55 30.6285C73.63 31.0385 73.36 31.4285 72.95 31.5085C72.95 31.5085 72.86 31.5185 72.81 31.5185C72.45 31.5185 72.14 31.2685 72.07 30.8985V30.9085ZM89.48 31.1985C89.07 31.1385 88.78 30.7585 88.84 30.3485C88.9 29.9385 89.28 29.6485 89.69 29.7085C90.1 29.7685 90.39 30.1485 90.33 30.5585C90.27 30.9285 89.95 31.1985 89.59 31.1985C89.59 31.1985 89.52 31.1985 89.48 31.1985ZM77.63 30.1085C77.6 29.6985 77.91 29.3285 78.33 29.2985C78.75 29.2685 79.11 29.5785 79.14 29.9985C79.17 30.4085 78.86 30.7785 78.44 30.8085C78.44 30.8085 78.4 30.8085 78.38 30.8085C77.99 30.8085 77.66 30.5085 77.63 30.1085ZM83.97 30.6985C83.55 30.6785 83.23 30.3385 83.24 29.9185C83.25 29.4985 83.6 29.1785 84.02 29.1885C84.44 29.1985 84.76 29.5485 84.75 29.9685C84.74 30.3785 84.4 30.6985 84 30.6985H83.97Z" fill="#4925C5"/>
</g>
<path d="M103.741 120.382C101.291 118.892 101.671 116.842 101.671 116.842L81.3206 118.872L60.9706 116.842C60.9706 116.842 61.3606 118.892 58.9006 120.382C56.4506 121.872 48.5106 126.332 48.5106 137.422C48.5106 148.512 55.1806 159.392 81.3106 159.392C107.441 159.392 114.111 148.502 114.111 137.422C114.111 126.342 106.171 121.872 103.721 120.382H103.741Z" fill="#00DBC4"/>
<path d="M82.2006 127.612C90.4906 127.612 99.8006 126.832 109.151 124.532C108.101 123.432 107.031 122.572 106.081 121.892C85.2006 126.462 64.4906 123.402 56.5906 121.892C55.6206 122.582 54.5306 123.462 53.4606 124.592C56.8406 125.352 68.0306 127.622 82.2006 127.622V127.612Z" fill="#E167AA"/>
<path d="M111.371 148.152C84.6406 154.692 57.5206 149.562 51.3206 148.212C52.2006 149.632 53.3106 150.972 54.7006 152.202C60.5706 153.252 70.6606 154.662 82.5406 154.662C90.4306 154.662 99.1206 154.032 107.881 152.272C109.331 151.012 110.481 149.622 111.381 148.152H111.371Z" fill="#E167AA"/>
<path d="M112.721 129.982C111.081 131.202 110.181 133.522 109.311 135.792C108.901 136.872 108.241 138.592 107.741 139.222C107.001 138.882 105.601 137.562 104.721 136.732C102.591 134.722 100.411 132.642 97.8806 132.992C95.2806 133.352 93.6906 136.012 92.1606 138.592C91.5706 139.582 90.6306 141.162 90.0406 141.692C89.3406 141.242 88.0906 139.622 87.3906 138.722C85.5306 136.312 83.7706 134.042 81.2506 134.012H81.2006C78.5306 134.012 76.5606 136.452 74.6606 138.802C73.9606 139.672 72.8206 141.072 72.1906 141.512C71.5206 140.992 70.4306 139.112 69.8206 138.062C68.3306 135.492 66.9206 133.062 64.5006 132.722C61.6306 132.312 59.1106 134.722 56.9006 136.852C56.1006 137.612 54.9406 138.732 54.3506 139.042C53.4406 138.772 53.1406 138.112 52.6606 135.692C52.3006 133.862 51.8306 131.482 49.8806 130.102C49.0506 132.142 48.5206 134.572 48.5206 137.442C48.5206 137.902 48.5306 138.362 48.5606 138.822C49.2006 140.902 50.4606 143.062 53.6606 143.732C56.0406 144.222 58.0406 142.302 60.1706 140.262C61.0806 139.392 62.9306 137.612 63.7306 137.422C64.2606 137.892 65.1806 139.472 65.7406 140.442C67.3506 143.222 69.0106 146.092 71.8906 146.312C74.5006 146.512 76.4506 144.112 78.3306 141.782C79.0906 140.852 80.4506 139.162 81.1506 138.792C81.7806 139.192 82.9406 140.702 83.6606 141.622C85.5206 144.032 87.4406 146.512 90.1006 146.512C90.1806 146.512 90.2706 146.512 90.3606 146.512C93.0406 146.352 94.6506 143.652 96.2106 141.032C96.8506 139.962 97.8906 138.212 98.5106 137.742C99.2006 138.032 100.611 139.362 101.481 140.182C103.751 142.332 106.101 144.552 108.821 143.932C111.481 143.332 112.611 140.372 113.711 137.502C113.821 137.202 113.961 136.852 114.101 136.492C113.991 133.982 113.471 131.842 112.711 130.002L112.721 129.982Z" fill="#E167AA"/>
<path d="M81.3306 120.052C94.0608 120.052 104.381 117.545 104.381 114.452C104.381 111.36 94.0608 108.852 81.3306 108.852C68.6004 108.852 58.2806 111.36 58.2806 114.452C58.2806 117.545 68.6004 120.052 81.3306 120.052Z" fill="#EDBB2C"/>
<path d="M100.451 112.502C97.7106 108.952 88.2506 97.4225 81.3306 97.4225C74.4106 97.4225 64.9506 108.962 62.2106 112.502C61.7106 112.832 61.4306 113.172 61.4306 113.532C61.4306 115.582 70.3406 117.242 81.3306 117.242C92.3206 117.242 101.231 115.582 101.231 113.532C101.231 113.172 100.961 112.832 100.451 112.502Z" fill="#9D75CC"/>
<g style="mix-blend-mode:multiply" opacity="0.5">
<path d="M51.6506 148.732C55.7606 154.892 64.5106 159.402 81.3206 159.402C107.461 159.402 114.121 148.512 114.121 137.432C114.121 131.702 112.001 127.742 109.611 125.042C106.621 131.862 93.5306 154.042 51.6406 148.732H51.6506Z" fill="#8B29EC"/>
</g>
<g style="mix-blend-mode:multiply" opacity="0.5">
<path d="M101.221 113.533C101.221 113.173 100.951 112.833 100.441 112.503C98.9606 110.583 95.5106 106.343 91.5706 102.833C88.9606 106.033 81.0006 113.093 61.6406 112.973C61.5006 113.153 61.4206 113.333 61.4206 113.523C61.4206 115.573 70.3306 117.233 81.3206 117.233C92.3106 117.233 101.221 115.573 101.221 113.523V113.533Z" fill="#8B29EC"/>
</g>
<path d="M46.4806 108.902C46.5306 108.782 49.9006 100.112 41.8206 96.7225C36.2206 94.3725 35.2606 87.4625 39.2706 84.9325C40.0106 84.4625 40.9206 84.1525 42.0006 84.0425C45.2506 83.7125 47.5406 85.3325 48.9606 87.9525C52.0306 93.6225 50.9706 103.922 46.4706 108.902H46.4806Z" fill="#EDBB2C"/>
<path d="M46.4806 108.902C46.5306 108.782 49.9006 100.113 41.8206 96.7225C36.2206 94.3725 35.2606 87.4625 39.2706 84.9325C39.2706 84.9325 34.5006 91.0925 40.9906 94.2225C45.6006 96.4425 51.0506 92.6425 48.9606 87.9425C52.0306 93.6125 50.9706 103.913 46.4706 108.893L46.4806 108.902Z" fill="#E8A026"/>
<path d="M42.3706 111.922C42.3606 111.832 41.4906 105.722 35.7206 106.382C31.7106 106.842 28.9106 103.152 30.4106 100.382C30.6906 99.8725 31.1106 99.3925 31.7006 98.9825C33.4706 97.7325 35.3306 97.9325 37.0006 98.9825C40.6206 101.262 43.3506 107.582 42.3706 111.932V111.922Z" fill="#80E19F"/>
<path d="M42.3706 111.922C42.3606 111.832 41.4906 105.722 35.7206 106.382C31.7106 106.842 28.9106 103.152 30.4106 100.382C30.4106 100.382 29.6506 105.502 34.4306 105.202C37.8206 104.992 39.7406 101.012 37.0106 98.9725C40.6306 101.252 43.3606 107.572 42.3806 111.922H42.3706Z" fill="#6CBE8F"/>
<path d="M115.471 109.522C115.421 109.392 112.011 100.602 120.201 97.1625C125.881 94.7725 126.861 87.7625 122.791 85.2025C122.041 84.7325 121.121 84.4125 120.021 84.2925C116.731 83.9525 114.401 85.6025 112.961 88.2525C109.841 94.0025 110.921 104.452 115.481 109.512L115.471 109.522Z" fill="#EDBB2C"/>
<path d="M115.471 109.523C115.421 109.393 112.011 100.603 120.201 97.1625C125.881 94.7725 126.861 87.7625 122.791 85.2025C122.791 85.2025 127.631 91.4525 121.041 94.6325C116.361 96.8925 110.831 93.0225 112.961 88.2625C109.841 94.0125 110.921 104.463 115.481 109.523H115.471Z" fill="#E8A026"/>
<path d="M119.631 112.583C119.641 112.493 120.521 106.293 126.381 106.963C130.451 107.423 133.291 103.683 131.761 100.873C131.481 100.353 131.051 99.8725 130.451 99.4525C128.651 98.1825 126.771 98.3825 125.071 99.4525C121.401 101.773 118.631 108.173 119.631 112.593V112.583Z" fill="#D63770"/>
<path d="M119.631 112.583C119.641 112.493 120.521 106.292 126.381 106.962C130.451 107.422 133.291 103.682 131.761 100.872C131.761 100.872 132.531 106.062 127.691 105.762C124.251 105.552 122.301 101.513 125.081 99.4425C121.411 101.763 118.641 108.163 119.641 112.583H119.631Z" fill="#A51357"/>
<path d="M42.0274 60.5461C42.0274 61.5079 42.2678 62.3895 42.7487 63.1909C43.2296 63.9523 43.47 64.5735 43.47 65.0543C43.47 65.4952 43.3498 65.8959 43.1094 66.2565C42.909 66.6172 42.6285 66.7975 42.2678 66.7975C41.5866 66.7975 41.0255 66.2165 40.5847 65.0543C40.1439 63.8922 39.9235 62.67 39.9235 61.3876C39.9235 59.4641 40.6248 57.741 42.0274 56.2182C43.47 54.6954 45.2933 53.934 47.4974 53.934C48.9801 53.934 50.0821 54.6553 50.8034 56.098C51.5648 57.5005 51.9455 59.1035 51.9455 60.9068C51.9455 62.7101 51.8854 64.4132 51.7652 66.0161C51.685 67.579 51.6049 68.8012 51.5248 69.6828C51.4446 70.5244 51.2843 71.8869 51.0439 73.7703C50.8034 75.6137 50.6431 76.896 50.563 77.6173C53.7689 77.6173 57.135 75.9944 60.6615 72.7484C61.1424 66.9779 61.8036 62.4696 62.6451 59.2237C63.5267 55.9377 64.4083 53.6334 65.2899 52.311C66.1716 50.9886 67.1133 50.3274 68.1151 50.3274C69.157 50.3274 69.9986 50.7882 70.6397 51.7099C71.321 52.6316 71.6616 53.7336 71.6616 55.016C71.6616 59.7446 69.5578 64.854 65.3501 70.344C65.1096 73.5098 64.9894 76.4352 64.9894 79.1201C64.9894 81.7649 65.3701 84.3497 66.1315 86.8743C66.9329 89.3588 67.3337 90.7414 67.3337 91.0219C67.3337 91.3425 67.1133 91.5829 66.6725 91.7432C66.2317 91.9436 65.7508 92.0437 65.2298 92.0437C63.8273 92.0437 62.6852 91.6831 61.8036 90.9618C61.3628 90.6011 61.0021 89.3789 60.7216 87.295C60.4411 85.2112 60.3008 83.2677 60.3008 81.4644C60.3008 79.621 60.3609 77.6374 60.4811 75.5135C56.9146 78.5591 53.5284 80.142 50.3226 80.2622C50.2825 80.8232 50.2424 81.7649 50.2023 83.0873C50.1623 84.3697 50.1021 85.3315 50.022 85.9726C49.9419 86.5737 49.7816 87.275 49.5411 88.0765C49.1404 89.5592 48.1786 90.3006 46.6558 90.3006C45.7342 90.3006 45.2733 89.5191 45.2733 87.9563C45.2733 86.3533 45.5138 83.5883 45.9946 79.6611C44.1913 78.8997 43.2897 77.5572 43.2897 75.6337C43.2897 74.2311 43.6503 73.049 44.3717 72.0872C45.093 71.0854 45.9746 70.5845 47.0165 70.5845C47.3772 66.8977 47.5575 64.0525 47.5575 62.0488C47.5575 58.4422 46.9965 56.6389 45.8744 56.6389C43.3097 56.6389 42.0274 57.9413 42.0274 60.5461ZM69.7381 56.0378C69.7381 55.4367 69.6379 54.8958 69.4375 54.4149C69.2772 53.8939 69.0568 53.6334 68.7763 53.6334C67.6543 53.6334 66.6324 57.9814 65.7107 66.6773C68.3956 62.5898 69.7381 59.0433 69.7381 56.0378ZM46.8362 72.508C46.2751 72.9087 45.9946 73.4497 45.9946 74.131C45.9946 74.8122 46.1549 75.3732 46.4755 75.814L46.8362 72.508ZM89.8632 76.9561C91.4661 76.4352 92.5681 75.9944 93.1692 75.6337C93.8104 75.233 94.2913 74.9324 94.6119 74.7321L95.3332 74.3113C95.5336 74.1911 95.6939 74.131 95.8141 74.131C96.1347 74.131 96.295 74.3113 96.295 74.6719C96.295 75.0326 95.6738 75.6738 94.4316 76.5955C93.1893 77.4771 91.6465 78.2785 89.8031 78.9999C89.5226 82.366 88.4606 85.091 86.6172 87.1748C84.7739 89.2586 82.1491 90.3006 78.7428 90.3006C76.2583 90.3006 74.3548 89.3188 73.0324 87.3552C71.71 85.3515 71.0488 83.0272 71.0488 80.3824C71.0488 77.6975 71.8302 75.1729 73.393 72.8085C74.996 70.4442 77.0397 69.262 79.5243 69.262C80.6463 68.4606 81.9687 68.0598 83.4915 68.0598C85.0544 68.0598 86.497 68.8814 87.8195 70.5244C89.1419 72.1674 89.8231 74.3113 89.8632 76.9561ZM85.956 80.0217L83.7921 80.142C81.9487 80.142 80.3858 79.601 79.1035 78.519C77.8212 77.3969 77.18 76.1747 77.18 74.8523C77.18 73.5299 77.4004 72.3878 77.8412 71.426C76.118 72.7885 75.2565 75.4734 75.2565 79.4807C75.2565 81.4043 75.6572 83.2476 76.4587 85.0109C77.2601 86.734 78.5224 87.5956 80.2456 87.5956C81.9687 87.5956 83.3112 86.8743 84.273 85.4316C85.2347 83.9489 85.7957 82.1456 85.956 80.0217ZM82.2292 70.0435C81.588 70.0435 81.0871 70.344 80.7265 70.9451C80.3658 71.5062 80.1855 72.1273 80.1855 72.8085C80.1855 74.2913 80.6864 75.4935 81.6882 76.4151C82.7301 77.3368 83.9323 77.7977 85.2948 77.7977H86.0162C85.936 75.8341 85.5954 74.0508 84.9943 72.4479C84.4333 70.8449 83.5116 70.0435 82.2292 70.0435ZM97.3323 90.3006C96.4507 90.3006 95.6292 90.2004 94.8678 90C94.1465 89.7596 93.7057 89.5392 93.5454 89.3388C93.1447 88.8579 92.9443 86.3734 92.9443 81.8851C92.9443 77.3569 93.4452 71.2256 94.447 63.4915C95.2886 57.1198 97.2522 53.934 100.338 53.934C101.059 53.934 101.58 54.3347 101.901 55.1362C102.221 55.8976 102.382 56.6389 102.382 57.3603C102.382 62.5698 100.799 68.4005 97.6329 74.8523C97.5127 78.1784 97.4525 81.0837 97.4525 83.5682C97.4525 86.0127 97.673 87.2349 98.1138 87.2349C98.795 87.1949 99.7367 86.3533 100.939 84.7103C102.141 83.0272 103.323 80.8833 104.485 78.2785C105.688 75.6738 106.409 74.3714 106.649 74.3714C106.93 74.3714 107.07 74.5317 107.07 74.8523C107.07 75.9743 106.489 77.7576 105.327 80.2021C102.161 86.9344 99.4963 90.3006 97.3323 90.3006ZM100.879 57.9013C100.879 56.6189 100.719 55.9777 100.398 55.9777C99.1957 55.9777 98.3141 60.9669 97.7531 70.9451C99.8369 65.4551 100.879 61.1071 100.879 57.9013ZM105.676 60.6062C105.676 59.8849 106.057 59.2638 106.818 58.7428C107.579 58.2218 108.261 57.9614 108.862 57.9614C109.944 57.9614 110.485 58.5825 110.485 59.8248C110.485 61.0671 110.164 62.149 109.523 63.0707C108.882 63.9523 107.98 64.3931 106.818 64.3931C106.057 64.3931 105.676 63.1308 105.676 60.6062ZM107.419 90.3006C105.856 90.3006 104.674 89.98 103.873 89.3388C103.592 89.0583 103.452 88.0564 103.452 86.3333C103.452 84.6101 103.572 81.7449 103.812 77.7376C104.093 73.6902 104.333 71.5062 104.534 71.1856C104.734 70.865 105.355 70.2639 106.397 69.3823C107.439 68.5007 108.241 68.0598 108.802 68.0598C109.403 68.0598 109.703 68.8212 109.703 70.344C109.703 70.7448 109.583 71.5262 109.343 72.6883C109.142 73.8504 108.902 74.692 108.621 75.2129C108.1 76.5354 107.84 80.0017 107.84 85.612C107.84 86.6939 107.96 87.2349 108.2 87.2349C108.882 87.1949 109.823 86.3533 111.026 84.7103C112.228 83.0272 113.41 80.8833 114.572 78.2785C115.774 75.6738 116.496 74.3714 116.736 74.3714C117.017 74.3714 117.157 74.5317 117.157 74.8523C117.157 75.9743 116.576 77.7576 115.414 80.2021C112.248 86.9344 109.583 90.3006 107.419 90.3006Z" fill="white"/>
<path d="M83.264 102.984H85.832V105H80.6V96.504H83.264V102.984ZM92.1183 103.716H89.2863L88.8663 105H86.0703L89.1783 96.504H92.2503L95.3463 105H92.5383L92.1183 103.716ZM91.4703 101.712L90.7023 99.348L89.9343 101.712H91.4703ZM104.1 105H101.436L98.6156 100.728V105H95.9516V96.504H98.6156L101.436 100.848V96.504H104.1V105ZM108.843 96.504C109.731 96.504 110.507 96.684 111.171 97.044C111.843 97.404 112.359 97.904 112.719 98.544C113.079 99.184 113.259 99.912 113.259 100.728C113.259 101.536 113.079 102.264 112.719 102.912C112.359 103.56 111.843 104.072 111.171 104.448C110.507 104.816 109.731 105 108.843 105H105.303V96.504H108.843ZM108.603 102.624C109.203 102.624 109.679 102.46 110.031 102.132C110.383 101.804 110.559 101.336 110.559 100.728C110.559 100.12 110.383 99.652 110.031 99.324C109.679 98.996 109.203 98.832 108.603 98.832H107.967V102.624H108.603Z" fill="white"/>
<defs>
<filter id="filter0_d_1_41610" x="0.410004" y="0.0184326" width="173.54" height="173.54" filterUnits="userSpaceOnUse" color-interpolation-filters="sRGB">
<feFlood flood-opacity="0" result="BackgroundImageFix"/>
<feColorMatrix in="SourceAlpha" type="matrix" values="0 0 0 0 0 0 0 0 0 0 0 0 0 0 0 0 0 0 127 0" result="hardAlpha"/>
<feOffset dx="5" dy="5"/>
<feGaussianBlur stdDeviation="5"/>
<feColorMatrix type="matrix" values="0 0 0 0 0.447059 0 0 0 0 0.313726 0 0 0 0 0.737255 0 0 0 0.55 0"/>
<feBlend mode="normal" in2="BackgroundImageFix" result="effect1_dropShadow_1_41610"/>
<feBlend mode="normal" in="SourceGraphic" in2="effect1_dropShadow_1_41610" result="shape"/>
</filter>
</defs>
</svg>
